solid inletwall
facet normal 0.000000 0.999770 0.021470
outer loop
vertex 15.000000 4.650000 0.660000
vertex 12.000000 4.649860 0.666543
vertex 15.000000 4.649860 0.666543
endloop
endfacet
facet normal 0.000000 0.997841 0.065676
outer loop
vertex 12.000000 4.649860 0.666543
vertex 12.000000 4.649430 0.673073
vertex 15.000000 4.649860 0.666543
endloop
endfacet
facet normal 0.000000 0.997841 0.065676
outer loop
vertex 15.000000 4.649860 0.666543
vertex 12.000000 4.649430 0.673073
vertex 15.000000 4.649430 0.673073
endloop
endfacet
facet normal 0.000000 0.994085 0.108607
outer loop
vertex 12.000000 4.649430 0.673073
vertex 12.000000 4.648720 0.679579
vertex 15.000000 4.649430 0.673073
endloop
endfacet
facet normal 0.000000 0.994106 0.108415
outer loop
vertex 15.000000 4.649430 0.673073
vertex 12.000000 4.648720 0.679579
vertex 15.000000 4.648720 0.679579
endloop
endfacet
facet normal 0.000000 0.988271 0.152710
outer loop
vertex 12.000000 4.648720 0.679579
vertex 12.000000 4.647720 0.686047
vertex 15.000000 4.648720 0.679579
endloop
endfacet
facet normal 0.000000 0.988242 0.152900
outer loop
vertex 15.000000 4.648720 0.679579
vertex 12.000000 4.647720 0.686047
vertex 15.000000 4.647720 0.686047
endloop
endfacet
facet normal 0.000000 0.980716 0.195440
outer loop
vertex 12.000000 4.647720 0.686047
vertex 12.000000 4.646440 0.692466
vertex 15.000000 4.647720 0.686047
endloop
endfacet
facet normal 0.000000 0.980678 0.195626
outer loop
vertex 15.000000 4.647720 0.686047
vertex 12.000000 4.646440 0.692466
vertex 15.000000 4.646440 0.692466
endloop
endfacet
facet normal 0.000000 0.971558 0.236801
outer loop
vertex 12.000000 4.646440 0.692466
vertex 12.000000 4.644890 0.698823
vertex 15.000000 4.646440 0.692466
endloop
endfacet
facet normal 0.000000 0.971513 0.236985
outer loop
vertex 15.000000 4.646440 0.692466
vertex 12.000000 4.644890 0.698823
vertex 15.000000 4.644890 0.698823
endloop
endfacet
facet normal 0.000000 0.960140 0.279520
outer loop
vertex 12.000000 4.644890 0.698823
vertex 12.000000 4.643060 0.705106
vertex 15.000000 4.644890 0.698823
endloop
endfacet
facet normal 0.000000 0.960088 0.279699
outer loop
vertex 15.000000 4.644890 0.698823
vertex 12.000000 4.643060 0.705106
vertex 15.000000 4.643060 0.705106
endloop
endfacet
facet normal 0.000000 0.946624 0.322340
outer loop
vertex 12.000000 4.643060 0.705106
vertex 12.000000 4.640950 0.711303
vertex 15.000000 4.643060 0.705106
endloop
endfacet
facet normal 0.000000 0.946654 0.322253
outer loop
vertex 15.000000 4.643060 0.705106
vertex 12.000000 4.640950 0.711303
vertex 15.000000 4.640950 0.711303
endloop
endfacet
facet normal 0.000000 0.932076 0.362262
outer loop
vertex 12.000000 4.640950 0.711303
vertex 12.000000 4.638580 0.717403
vertex 15.000000 4.640950 0.711303
endloop
endfacet
facet normal 0.000000 0.932109 0.362178
outer loop
vertex 15.000000 4.640950 0.711303
vertex 12.000000 4.638580 0.717403
vertex 15.000000 4.638580 0.717403
endloop
endfacet
facet normal 0.000000 0.915689 0.401887
outer loop
vertex 12.000000 4.638580 0.717403
vertex 12.000000 4.635950 0.723393
vertex 15.000000 4.638580 0.717403
endloop
endfacet
facet normal 0.000000 0.915618 0.402050
outer loop
vertex 15.000000 4.638580 0.717403
vertex 12.000000 4.635950 0.723393
vertex 15.000000 4.635950 0.723393
endloop
endfacet
facet normal 0.000000 0.896498 0.443049
outer loop
vertex 12.000000 4.635950 0.723393
vertex 12.000000 4.633050 0.729262
vertex 15.000000 4.635950 0.723393
endloop
endfacet
facet normal 0.000000 0.896536 0.442970
outer loop
vertex 15.000000 4.635950 0.723393
vertex 12.000000 4.633050 0.729262
vertex 15.000000 4.633050 0.729262
endloop
endfacet
facet normal 0.000000 0.876577 0.481261
outer loop
vertex 12.000000 4.633050 0.729262
vertex 12.000000 4.629900 0.735000
vertex 15.000000 4.633050 0.729262
endloop
endfacet
facet normal 0.000000 0.876618 0.481186
outer loop
vertex 15.000000 4.633050 0.729262
vertex 12.000000 4.629900 0.735000
vertex 15.000000 4.629900 0.735000
endloop
endfacet
facet normal 0.000000 0.855302 0.518130
outer loop
vertex 12.000000 4.629900 0.735000
vertex 12.000000 4.626510 0.740595
vertex 15.000000 4.629900 0.735000
endloop
endfacet
facet normal 0.000000 0.855215 0.518273
outer loop
vertex 15.000000 4.629900 0.735000
vertex 12.000000 4.626510 0.740595
vertex 15.000000 4.626510 0.740595
endloop
endfacet
facet normal 0.000000 0.831167 0.556023
outer loop
vertex 12.000000 4.626510 0.740595
vertex 12.000000 4.622870 0.746036
vertex 15.000000 4.626510 0.740595
endloop
endfacet
facet normal 0.000000 0.831167 0.556023
outer loop
vertex 15.000000 4.626510 0.740595
vertex 12.000000 4.622870 0.746036
vertex 15.000000 4.622870 0.746036
endloop
endfacet
facet normal 0.000000 0.806396 0.591376
outer loop
vertex 12.000000 4.622870 0.746036
vertex 12.000000 4.619000 0.751314
vertex 15.000000 4.622870 0.746036
endloop
endfacet
facet normal 0.000000 0.806489 0.591249
outer loop
vertex 15.000000 4.622870 0.746036
vertex 12.000000 4.619000 0.751314
vertex 15.000000 4.619000 0.751314
endloop
endfacet
facet normal 0.000000 0.780315 0.625387
outer loop
vertex 12.000000 4.619000 0.751314
vertex 12.000000 4.614910 0.756418
vertex 15.000000 4.619000 0.751314
endloop
endfacet
facet normal 0.000000 0.780410 0.625268
outer loop
vertex 15.000000 4.619000 0.751314
vertex 12.000000 4.614910 0.756418
vertex 15.000000 4.614910 0.756418
endloop
endfacet
facet normal 0.000000 0.751497 0.659737
outer loop
vertex 12.000000 4.614910 0.756418
vertex 12.000000 4.610590 0.761339
vertex 15.000000 4.614910 0.756418
endloop
endfacet
facet normal 0.000000 0.751497 0.659737
outer loop
vertex 15.000000 4.614910 0.756418
vertex 12.000000 4.610590 0.761339
vertex 15.000000 4.610590 0.761339
endloop
endfacet
facet normal 0.000000 0.722723 0.691137
outer loop
vertex 12.000000 4.610590 0.761339
vertex 12.000000 4.606070 0.766066
vertex 15.000000 4.610590 0.761339
endloop
endfacet
facet normal 0.000000 0.722821 0.691036
outer loop
vertex 15.000000 4.610590 0.761339
vertex 12.000000 4.606070 0.766066
vertex 15.000000 4.606070 0.766066
endloop
endfacet
facet normal 0.000000 0.691334 0.722535
outer loop
vertex 12.000000 4.606070 0.766066
vertex 12.000000 4.601340 0.770592
vertex 15.000000 4.606070 0.766066
endloop
endfacet
facet normal 0.000000 0.691334 0.722535
outer loop
vertex 15.000000 4.606070 0.766066
vertex 12.000000 4.601340 0.770592
vertex 15.000000 4.601340 0.770592
endloop
endfacet
facet normal 0.000000 0.659347 0.751839
outer loop
vertex 12.000000 4.601340 0.770592
vertex 12.000000 4.596420 0.774907
vertex 15.000000 4.601340 0.770592
endloop
endfacet
facet normal 0.000000 0.659347 0.751839
outer loop
vertex 15.000000 4.601340 0.770592
vertex 12.000000 4.596420 0.774907
vertex 15.000000 4.596420 0.774907
endloop
endfacet
facet normal 0.000000 0.625506 0.780220
outer loop
vertex 12.000000 4.596420 0.774907
vertex 12.000000 4.591310 0.779003
vertex 15.000000 4.596420 0.774907
endloop
endfacet
facet normal 0.000000 0.625411 0.780295
outer loop
vertex 15.000000 4.596420 0.774907
vertex 12.000000 4.591310 0.779003
vertex 15.000000 4.591310 0.779003
endloop
endfacet
facet normal 0.000000 0.591935 0.805986
outer loop
vertex 12.000000 4.591310 0.779003
vertex 12.000000 4.586040 0.782873
vertex 15.000000 4.591310 0.779003
endloop
endfacet
facet normal 0.000000 0.591842 0.806054
outer loop
vertex 15.000000 4.591310 0.779003
vertex 12.000000 4.586040 0.782873
vertex 15.000000 4.586040 0.782873
endloop
endfacet
facet normal 0.000000 0.555660 0.831410
outer loop
vertex 12.000000 4.586040 0.782873
vertex 12.000000 4.580600 0.786509
vertex 15.000000 4.586040 0.782873
endloop
endfacet
facet normal 0.000000 0.555705 0.831380
outer loop
vertex 15.000000 4.586040 0.782873
vertex 12.000000 4.580600 0.786509
vertex 15.000000 4.580600 0.786509
endloop
endfacet
facet normal 0.000000 0.518424 0.855124
outer loop
vertex 12.000000 4.580600 0.786509
vertex 12.000000 4.575000 0.789904
vertex 15.000000 4.580600 0.786509
endloop
endfacet
facet normal 0.000000 0.518424 0.855124
outer loop
vertex 15.000000 4.580600 0.786509
vertex 12.000000 4.575000 0.789904
vertex 15.000000 4.575000 0.789904
endloop
endfacet
facet normal 0.000000 0.480916 0.876767
outer loop
vertex 12.000000 4.575000 0.789904
vertex 12.000000 4.569260 0.793052
vertex 15.000000 4.575000 0.789904
endloop
endfacet
facet normal 0.000000 0.480875 0.876789
outer loop
vertex 15.000000 4.575000 0.789904
vertex 12.000000 4.569260 0.793052
vertex 15.000000 4.569260 0.793052
endloop
endfacet
facet normal 0.000000 0.442182 0.896925
outer loop
vertex 12.000000 4.569260 0.793052
vertex 12.000000 4.563390 0.795946
vertex 15.000000 4.569260 0.793052
endloop
endfacet
facet normal 0.000000 0.442143 0.896944
outer loop
vertex 15.000000 4.569260 0.793052
vertex 12.000000 4.563390 0.795946
vertex 15.000000 4.563390 0.795946
endloop
endfacet
facet normal 0.000000 0.402844 0.915269
outer loop
vertex 12.000000 4.563390 0.795946
vertex 12.000000 4.557400 0.798582
vertex 15.000000 4.563390 0.795946
endloop
endfacet
facet normal 0.000000 0.402808 0.915284
outer loop
vertex 15.000000 4.563390 0.795946
vertex 12.000000 4.557400 0.798582
vertex 15.000000 4.557400 0.798582
endloop
endfacet
facet normal 0.000000 0.362362 0.932037
outer loop
vertex 12.000000 4.557400 0.798582
vertex 12.000000 4.551300 0.800954
vertex 15.000000 4.557400 0.798582
endloop
endfacet
facet normal 0.000000 0.362428 0.932012
outer loop
vertex 15.000000 4.557400 0.798582
vertex 12.000000 4.551300 0.800954
vertex 15.000000 4.551300 0.800954
endloop
endfacet
facet normal 0.000000 0.321857 0.946788
outer loop
vertex 12.000000 4.551300 0.800954
vertex 12.000000 4.545110 0.803058
vertex 15.000000 4.551300 0.800954
endloop
endfacet
facet normal 0.000000 0.321798 0.946809
outer loop
vertex 15.000000 4.551300 0.800954
vertex 12.000000 4.545110 0.803058
vertex 15.000000 4.545110 0.803058
endloop
endfacet
facet normal 0.000000 0.279477 0.960152
outer loop
vertex 12.000000 4.545110 0.803058
vertex 12.000000 4.538820 0.804889
vertex 15.000000 4.545110 0.803058
endloop
endfacet
facet normal 0.000000 0.279477 0.960152
outer loop
vertex 15.000000 4.545110 0.803058
vertex 12.000000 4.538820 0.804889
vertex 15.000000 4.538820 0.804889
endloop
endfacet
facet normal 0.000000 0.237887 0.971293
outer loop
vertex 12.000000 4.538820 0.804889
vertex 12.000000 4.532470 0.806444
vertex 15.000000 4.538820 0.804889
endloop
endfacet
facet normal 0.000000 0.237842 0.971304
outer loop
vertex 15.000000 4.538820 0.804889
vertex 12.000000 4.532470 0.806444
vertex 15.000000 4.532470 0.806444
endloop
endfacet
facet normal 0.000000 0.195088 0.980786
outer loop
vertex 12.000000 4.532470 0.806444
vertex 12.000000 4.526050 0.807721
vertex 15.000000 4.532470 0.806444
endloop
endfacet
facet normal 0.000000 0.195088 0.980786
outer loop
vertex 15.000000 4.532470 0.806444
vertex 12.000000 4.526050 0.807721
vertex 15.000000 4.526050 0.807721
endloop
endfacet
facet normal 0.000000 0.152140 0.988359
outer loop
vertex 12.000000 4.526050 0.807721
vertex 12.000000 4.519580 0.808717
vertex 15.000000 4.526050 0.807721
endloop
endfacet
facet normal 0.000000 0.152154 0.988357
outer loop
vertex 15.000000 4.526050 0.807721
vertex 12.000000 4.519580 0.808717
vertex 15.000000 4.519580 0.808717
endloop
endfacet
facet normal 0.000000 0.108722 0.994072
outer loop
vertex 12.000000 4.519580 0.808717
vertex 12.000000 4.513070 0.809429
vertex 15.000000 4.519580 0.808717
endloop
endfacet
facet normal 0.000000 0.108722 0.994072
outer loop
vertex 15.000000 4.519580 0.808717
vertex 12.000000 4.513070 0.809429
vertex 15.000000 4.513070 0.809429
endloop
endfacet
facet normal 0.000000 0.065399 0.997859
outer loop
vertex 12.000000 4.513070 0.809429
vertex 12.000000 4.506540 0.809857
vertex 15.000000 4.513070 0.809429
endloop
endfacet
facet normal 0.000000 0.065405 0.997859
outer loop
vertex 15.000000 4.513070 0.809429
vertex 12.000000 4.506540 0.809857
vertex 15.000000 4.506540 0.809857
endloop
endfacet
facet normal 0.000000 0.021862 0.999761
outer loop
vertex 12.000000 4.506540 0.809857
vertex 12.000000 4.500000 0.810000
vertex 15.000000 4.506540 0.809857
endloop
endfacet
facet normal 0.000000 0.021858 0.999761
outer loop
vertex 15.000000 4.506540 0.809857
vertex 12.000000 4.500000 0.810000
vertex 15.000000 4.500000 0.810000
endloop
endfacet
facet normal 0.000000 -0.021858 0.999761
outer loop
vertex 12.000000 4.500000 0.810000
vertex 12.000000 4.493460 0.809857
vertex 15.000000 4.500000 0.810000
endloop
endfacet
facet normal 0.000000 -0.021862 0.999761
outer loop
vertex 15.000000 4.500000 0.810000
vertex 12.000000 4.493460 0.809857
vertex 15.000000 4.493460 0.809857
endloop
endfacet
facet normal 0.000000 -0.065405 0.997859
outer loop
vertex 12.000000 4.493460 0.809857
vertex 12.000000 4.486930 0.809429
vertex 15.000000 4.493460 0.809857
endloop
endfacet
facet normal 0.000000 -0.065399 0.997859
outer loop
vertex 15.000000 4.493460 0.809857
vertex 12.000000 4.486930 0.809429
vertex 15.000000 4.486930 0.809429
endloop
endfacet
facet normal 0.000000 -0.108722 0.994072
outer loop
vertex 12.000000 4.486930 0.809429
vertex 12.000000 4.480420 0.808717
vertex 15.000000 4.486930 0.809429
endloop
endfacet
facet normal 0.000000 -0.108722 0.994072
outer loop
vertex 15.000000 4.486930 0.809429
vertex 12.000000 4.480420 0.808717
vertex 15.000000 4.480420 0.808717
endloop
endfacet
facet normal 0.000000 -0.152154 0.988357
outer loop
vertex 12.000000 4.480420 0.808717
vertex 12.000000 4.473950 0.807721
vertex 15.000000 4.480420 0.808717
endloop
endfacet
facet normal 0.000000 -0.152140 0.988359
outer loop
vertex 15.000000 4.480420 0.808717
vertex 12.000000 4.473950 0.807721
vertex 15.000000 4.473950 0.807721
endloop
endfacet
facet normal 0.000000 -0.195088 0.980786
outer loop
vertex 12.000000 4.473950 0.807721
vertex 12.000000 4.467530 0.806444
vertex 15.000000 4.473950 0.807721
endloop
endfacet
facet normal 0.000000 -0.195088 0.980786
outer loop
vertex 15.000000 4.473950 0.807721
vertex 12.000000 4.467530 0.806444
vertex 15.000000 4.467530 0.806444
endloop
endfacet
facet normal 0.000000 -0.237842 0.971304
outer loop
vertex 12.000000 4.467530 0.806444
vertex 12.000000 4.461180 0.804889
vertex 15.000000 4.467530 0.806444
endloop
endfacet
facet normal 0.000000 -0.237887 0.971293
outer loop
vertex 15.000000 4.467530 0.806444
vertex 12.000000 4.461180 0.804889
vertex 15.000000 4.461180 0.804889
endloop
endfacet
facet normal 0.000000 -0.279477 0.960152
outer loop
vertex 12.000000 4.461180 0.804889
vertex 12.000000 4.454890 0.803058
vertex 15.000000 4.461180 0.804889
endloop
endfacet
facet normal 0.000000 -0.279477 0.960152
outer loop
vertex 15.000000 4.461180 0.804889
vertex 12.000000 4.454890 0.803058
vertex 15.000000 4.454890 0.803058
endloop
endfacet
facet normal 0.000000 -0.321798 0.946809
outer loop
vertex 12.000000 4.454890 0.803058
vertex 12.000000 4.448700 0.800954
vertex 15.000000 4.454890 0.803058
endloop
endfacet
facet normal 0.000000 -0.321857 0.946788
outer loop
vertex 15.000000 4.454890 0.803058
vertex 12.000000 4.448700 0.800954
vertex 15.000000 4.448700 0.800954
endloop
endfacet
facet normal 0.000000 -0.362428 0.932012
outer loop
vertex 12.000000 4.448700 0.800954
vertex 12.000000 4.442600 0.798582
vertex 15.000000 4.448700 0.800954
endloop
endfacet
facet normal 0.000000 -0.362362 0.932037
outer loop
vertex 15.000000 4.448700 0.800954
vertex 12.000000 4.442600 0.798582
vertex 15.000000 4.442600 0.798582
endloop
endfacet
facet normal 0.000000 -0.402808 0.915284
outer loop
vertex 12.000000 4.442600 0.798582
vertex 12.000000 4.436610 0.795946
vertex 15.000000 4.442600 0.798582
endloop
endfacet
facet normal 0.000000 -0.402844 0.915269
outer loop
vertex 15.000000 4.442600 0.798582
vertex 12.000000 4.436610 0.795946
vertex 15.000000 4.436610 0.795946
endloop
endfacet
facet normal 0.000000 -0.442143 0.896944
outer loop
vertex 12.000000 4.436610 0.795946
vertex 12.000000 4.430740 0.793052
vertex 15.000000 4.436610 0.795946
endloop
endfacet
facet normal 0.000000 -0.442182 0.896925
outer loop
vertex 15.000000 4.436610 0.795946
vertex 12.000000 4.430740 0.793052
vertex 15.000000 4.430740 0.793052
endloop
endfacet
facet normal 0.000000 -0.480875 0.876789
outer loop
vertex 12.000000 4.430740 0.793052
vertex 12.000000 4.425000 0.789904
vertex 15.000000 4.430740 0.793052
endloop
endfacet
facet normal 0.000000 -0.480916 0.876767
outer loop
vertex 15.000000 4.430740 0.793052
vertex 12.000000 4.425000 0.789904
vertex 15.000000 4.425000 0.789904
endloop
endfacet
facet normal 0.000000 -0.518424 0.855124
outer loop
vertex 12.000000 4.425000 0.789904
vertex 12.000000 4.419400 0.786509
vertex 15.000000 4.425000 0.789904
endloop
endfacet
facet normal 0.000000 -0.518424 0.855124
outer loop
vertex 15.000000 4.425000 0.789904
vertex 12.000000 4.419400 0.786509
vertex 15.000000 4.419400 0.786509
endloop
endfacet
facet normal 0.000000 -0.555705 0.831380
outer loop
vertex 12.000000 4.419400 0.786509
vertex 12.000000 4.413960 0.782873
vertex 15.000000 4.419400 0.786509
endloop
endfacet
facet normal 0.000000 -0.555660 0.831410
outer loop
vertex 15.000000 4.419400 0.786509
vertex 12.000000 4.413960 0.782873
vertex 15.000000 4.413960 0.782873
endloop
endfacet
facet normal 0.000000 -0.591842 0.806054
outer loop
vertex 12.000000 4.413960 0.782873
vertex 12.000000 4.408690 0.779003
vertex 15.000000 4.413960 0.782873
endloop
endfacet
facet normal 0.000000 -0.591935 0.805986
outer loop
vertex 15.000000 4.413960 0.782873
vertex 12.000000 4.408690 0.779003
vertex 15.000000 4.408690 0.779003
endloop
endfacet
facet normal 0.000000 -0.625411 0.780295
outer loop
vertex 12.000000 4.408690 0.779003
vertex 12.000000 4.403580 0.774907
vertex 15.000000 4.408690 0.779003
endloop
endfacet
facet normal 0.000000 -0.625506 0.780220
outer loop
vertex 15.000000 4.408690 0.779003
vertex 12.000000 4.403580 0.774907
vertex 15.000000 4.403580 0.774907
endloop
endfacet
facet normal 0.000000 -0.659347 0.751839
outer loop
vertex 12.000000 4.403580 0.774907
vertex 12.000000 4.398660 0.770592
vertex 15.000000 4.403580 0.774907
endloop
endfacet
facet normal 0.000000 -0.659347 0.751839
outer loop
vertex 15.000000 4.403580 0.774907
vertex 12.000000 4.398660 0.770592
vertex 15.000000 4.398660 0.770592
endloop
endfacet
facet normal 0.000000 -0.691334 0.722535
outer loop
vertex 12.000000 4.398660 0.770592
vertex 12.000000 4.393930 0.766066
vertex 15.000000 4.398660 0.770592
endloop
endfacet
facet normal 0.000000 -0.691334 0.722535
outer loop
vertex 15.000000 4.398660 0.770592
vertex 12.000000 4.393930 0.766066
vertex 15.000000 4.393930 0.766066
endloop
endfacet
facet normal 0.000000 -0.722821 0.691036
outer loop
vertex 12.000000 4.393930 0.766066
vertex 12.000000 4.389410 0.761339
vertex 15.000000 4.393930 0.766066
endloop
endfacet
facet normal 0.000000 -0.722723 0.691137
outer loop
vertex 15.000000 4.393930 0.766066
vertex 12.000000 4.389410 0.761339
vertex 15.000000 4.389410 0.761339
endloop
endfacet
facet normal 0.000000 -0.751497 0.659737
outer loop
vertex 12.000000 4.389410 0.761339
vertex 12.000000 4.385090 0.756418
vertex 15.000000 4.389410 0.761339
endloop
endfacet
facet normal 0.000000 -0.751497 0.659737
outer loop
vertex 15.000000 4.389410 0.761339
vertex 12.000000 4.385090 0.756418
vertex 15.000000 4.385090 0.756418
endloop
endfacet
facet normal 0.000000 -0.780410 0.625268
outer loop
vertex 12.000000 4.385090 0.756418
vertex 12.000000 4.381000 0.751314
vertex 15.000000 4.385090 0.756418
endloop
endfacet
facet normal 0.000000 -0.780315 0.625387
outer loop
vertex 15.000000 4.385090 0.756418
vertex 12.000000 4.381000 0.751314
vertex 15.000000 4.381000 0.751314
endloop
endfacet
facet normal 0.000000 -0.806489 0.591249
outer loop
vertex 12.000000 4.381000 0.751314
vertex 12.000000 4.377130 0.746036
vertex 15.000000 4.381000 0.751314
endloop
endfacet
facet normal 0.000000 -0.806396 0.591376
outer loop
vertex 15.000000 4.381000 0.751314
vertex 12.000000 4.377130 0.746036
vertex 15.000000 4.377130 0.746036
endloop
endfacet
facet normal 0.000000 -0.831167 0.556023
outer loop
vertex 12.000000 4.377130 0.746036
vertex 12.000000 4.373490 0.740595
vertex 15.000000 4.377130 0.746036
endloop
endfacet
facet normal 0.000000 -0.831167 0.556023
outer loop
vertex 15.000000 4.377130 0.746036
vertex 12.000000 4.373490 0.740595
vertex 15.000000 4.373490 0.740595
endloop
endfacet
facet normal 0.000000 -0.855215 0.518273
outer loop
vertex 12.000000 4.373490 0.740595
vertex 12.000000 4.370100 0.735000
vertex 15.000000 4.373490 0.740595
endloop
endfacet
facet normal 0.000000 -0.855302 0.518130
outer loop
vertex 15.000000 4.373490 0.740595
vertex 12.000000 4.370100 0.735000
vertex 15.000000 4.370100 0.735000
endloop
endfacet
facet normal 0.000000 -0.876618 0.481186
outer loop
vertex 12.000000 4.370100 0.735000
vertex 12.000000 4.366950 0.729262
vertex 15.000000 4.370100 0.735000
endloop
endfacet
facet normal 0.000000 -0.876577 0.481261
outer loop
vertex 15.000000 4.370100 0.735000
vertex 12.000000 4.366950 0.729262
vertex 15.000000 4.366950 0.729262
endloop
endfacet
facet normal 0.000000 -0.896536 0.442970
outer loop
vertex 12.000000 4.366950 0.729262
vertex 12.000000 4.364050 0.723393
vertex 15.000000 4.366950 0.729262
endloop
endfacet
facet normal 0.000000 -0.896498 0.443049
outer loop
vertex 15.000000 4.366950 0.729262
vertex 12.000000 4.364050 0.723393
vertex 15.000000 4.364050 0.723393
endloop
endfacet
facet normal 0.000000 -0.915618 0.402050
outer loop
vertex 12.000000 4.364050 0.723393
vertex 12.000000 4.361420 0.717403
vertex 15.000000 4.364050 0.723393
endloop
endfacet
facet normal 0.000000 -0.915689 0.401887
outer loop
vertex 15.000000 4.364050 0.723393
vertex 12.000000 4.361420 0.717403
vertex 15.000000 4.361420 0.717403
endloop
endfacet
facet normal 0.000000 -0.932109 0.362178
outer loop
vertex 12.000000 4.361420 0.717403
vertex 12.000000 4.359050 0.711303
vertex 15.000000 4.361420 0.717403
endloop
endfacet
facet normal 0.000000 -0.932076 0.362262
outer loop
vertex 15.000000 4.361420 0.717403
vertex 12.000000 4.359050 0.711303
vertex 15.000000 4.359050 0.711303
endloop
endfacet
facet normal 0.000000 -0.946654 0.322253
outer loop
vertex 12.000000 4.359050 0.711303
vertex 12.000000 4.356940 0.705106
vertex 15.000000 4.359050 0.711303
endloop
endfacet
facet normal 0.000000 -0.946624 0.322340
outer loop
vertex 15.000000 4.359050 0.711303
vertex 12.000000 4.356940 0.705106
vertex 15.000000 4.356940 0.705106
endloop
endfacet
facet normal 0.000000 -0.960088 0.279699
outer loop
vertex 12.000000 4.356940 0.705106
vertex 12.000000 4.355110 0.698823
vertex 15.000000 4.356940 0.705106
endloop
endfacet
facet normal 0.000000 -0.960140 0.279520
outer loop
vertex 15.000000 4.356940 0.705106
vertex 12.000000 4.355110 0.698823
vertex 15.000000 4.355110 0.698823
endloop
endfacet
facet normal 0.000000 -0.971513 0.236985
outer loop
vertex 12.000000 4.355110 0.698823
vertex 12.000000 4.353560 0.692466
vertex 15.000000 4.355110 0.698823
endloop
endfacet
facet normal 0.000000 -0.971558 0.236801
outer loop
vertex 15.000000 4.355110 0.698823
vertex 12.000000 4.353560 0.692466
vertex 15.000000 4.353560 0.692466
endloop
endfacet
facet normal 0.000000 -0.980678 0.195626
outer loop
vertex 12.000000 4.353560 0.692466
vertex 12.000000 4.352280 0.686047
vertex 15.000000 4.353560 0.692466
endloop
endfacet
facet normal 0.000000 -0.980716 0.195440
outer loop
vertex 15.000000 4.353560 0.692466
vertex 12.000000 4.352280 0.686047
vertex 15.000000 4.352280 0.686047
endloop
endfacet
facet normal 0.000000 -0.988242 0.152900
outer loop
vertex 12.000000 4.352280 0.686047
vertex 12.000000 4.351280 0.679579
vertex 15.000000 4.352280 0.686047
endloop
endfacet
facet normal 0.000000 -0.988271 0.152710
outer loop
vertex 15.000000 4.352280 0.686047
vertex 12.000000 4.351280 0.679579
vertex 15.000000 4.351280 0.679579
endloop
endfacet
facet normal 0.000000 -0.994106 0.108415
outer loop
vertex 12.000000 4.351280 0.679579
vertex 12.000000 4.350570 0.673073
vertex 15.000000 4.351280 0.679579
endloop
endfacet
facet normal 0.000000 -0.994085 0.108607
outer loop
vertex 15.000000 4.351280 0.679579
vertex 12.000000 4.350570 0.673073
vertex 15.000000 4.350570 0.673073
endloop
endfacet
facet normal 0.000000 -0.997841 0.065676
outer loop
vertex 12.000000 4.350570 0.673073
vertex 12.000000 4.350140 0.666543
vertex 15.000000 4.350570 0.673073
endloop
endfacet
facet normal 0.000000 -0.997841 0.065676
outer loop
vertex 15.000000 4.350570 0.673073
vertex 12.000000 4.350140 0.666543
vertex 15.000000 4.350140 0.666543
endloop
endfacet
facet normal 0.000000 -0.999770 0.021470
outer loop
vertex 12.000000 4.350140 0.666543
vertex 12.000000 4.350000 0.660000
vertex 15.000000 4.350140 0.666543
endloop
endfacet
facet normal 0.000000 -0.999770 0.021470
outer loop
vertex 15.000000 4.350140 0.666543
vertex 12.000000 4.350000 0.660000
vertex 15.000000 4.350000 0.660000
endloop
endfacet
facet normal 0.000000 -0.999770 -0.021469
outer loop
vertex 12.000000 4.350000 0.660000
vertex 12.000000 4.350140 0.653457
vertex 15.000000 4.350000 0.660000
endloop
endfacet
facet normal 0.000000 -0.999770 -0.021469
outer loop
vertex 15.000000 4.350000 0.660000
vertex 12.000000 4.350140 0.653457
vertex 15.000000 4.350140 0.653457
endloop
endfacet
facet normal 0.000000 -0.997841 -0.065676
outer loop
vertex 12.000000 4.350140 0.653457
vertex 12.000000 4.350570 0.646927
vertex 15.000000 4.350140 0.653457
endloop
endfacet
facet normal 0.000000 -0.997841 -0.065676
outer loop
vertex 15.000000 4.350140 0.653457
vertex 12.000000 4.350570 0.646927
vertex 15.000000 4.350570 0.646927
endloop
endfacet
facet normal 0.000000 -0.994085 -0.108607
outer loop
vertex 12.000000 4.350570 0.646927
vertex 12.000000 4.351280 0.640421
vertex 15.000000 4.350570 0.646927
endloop
endfacet
facet normal 0.000000 -0.994106 -0.108415
outer loop
vertex 15.000000 4.350570 0.646927
vertex 12.000000 4.351280 0.640421
vertex 15.000000 4.351280 0.640421
endloop
endfacet
facet normal 0.000000 -0.988271 -0.152710
outer loop
vertex 12.000000 4.351280 0.640421
vertex 12.000000 4.352280 0.633953
vertex 15.000000 4.351280 0.640421
endloop
endfacet
facet normal 0.000000 -0.988242 -0.152900
outer loop
vertex 15.000000 4.351280 0.640421
vertex 12.000000 4.352280 0.633953
vertex 15.000000 4.352280 0.633953
endloop
endfacet
facet normal 0.000000 -0.980716 -0.195440
outer loop
vertex 12.000000 4.352280 0.633953
vertex 12.000000 4.353560 0.627534
vertex 15.000000 4.352280 0.633953
endloop
endfacet
facet normal 0.000000 -0.980678 -0.195626
outer loop
vertex 15.000000 4.352280 0.633953
vertex 12.000000 4.353560 0.627534
vertex 15.000000 4.353560 0.627534
endloop
endfacet
facet normal 0.000000 -0.971558 -0.236801
outer loop
vertex 12.000000 4.353560 0.627534
vertex 12.000000 4.355110 0.621177
vertex 15.000000 4.353560 0.627534
endloop
endfacet
facet normal 0.000000 -0.971513 -0.236985
outer loop
vertex 15.000000 4.353560 0.627534
vertex 12.000000 4.355110 0.621177
vertex 15.000000 4.355110 0.621177
endloop
endfacet
facet normal 0.000000 -0.960140 -0.279520
outer loop
vertex 12.000000 4.355110 0.621177
vertex 12.000000 4.356940 0.614894
vertex 15.000000 4.355110 0.621177
endloop
endfacet
facet normal 0.000000 -0.960088 -0.279699
outer loop
vertex 15.000000 4.355110 0.621177
vertex 12.000000 4.356940 0.614894
vertex 15.000000 4.356940 0.614894
endloop
endfacet
facet normal 0.000000 -0.946624 -0.322340
outer loop
vertex 12.000000 4.356940 0.614894
vertex 12.000000 4.359050 0.608697
vertex 15.000000 4.356940 0.614894
endloop
endfacet
facet normal 0.000000 -0.946654 -0.322253
outer loop
vertex 15.000000 4.356940 0.614894
vertex 12.000000 4.359050 0.608697
vertex 15.000000 4.359050 0.608697
endloop
endfacet
facet normal 0.000000 -0.932076 -0.362262
outer loop
vertex 12.000000 4.359050 0.608697
vertex 12.000000 4.361420 0.602597
vertex 15.000000 4.359050 0.608697
endloop
endfacet
facet normal 0.000000 -0.932109 -0.362178
outer loop
vertex 15.000000 4.359050 0.608697
vertex 12.000000 4.361420 0.602597
vertex 15.000000 4.361420 0.602597
endloop
endfacet
facet normal 0.000000 -0.915688 -0.401890
outer loop
vertex 12.000000 4.361420 0.602597
vertex 12.000000 4.364050 0.596607
vertex 15.000000 4.361420 0.602597
endloop
endfacet
facet normal 0.000000 -0.915616 -0.402053
outer loop
vertex 15.000000 4.361420 0.602597
vertex 12.000000 4.364050 0.596607
vertex 15.000000 4.364050 0.596607
endloop
endfacet
facet normal 0.000000 -0.896499 -0.443045
outer loop
vertex 12.000000 4.364050 0.596607
vertex 12.000000 4.366950 0.590738
vertex 15.000000 4.364050 0.596607
endloop
endfacet
facet normal 0.000000 -0.896538 -0.442967
outer loop
vertex 15.000000 4.364050 0.596607
vertex 12.000000 4.366950 0.590738
vertex 15.000000 4.366950 0.590738
endloop
endfacet
facet normal 0.000000 -0.876577 -0.481261
outer loop
vertex 12.000000 4.366950 0.590738
vertex 12.000000 4.370100 0.585000
vertex 15.000000 4.366950 0.590738
endloop
endfacet
facet normal 0.000000 -0.876618 -0.481186
outer loop
vertex 15.000000 4.366950 0.590738
vertex 12.000000 4.370100 0.585000
vertex 15.000000 4.370100 0.585000
endloop
endfacet
facet normal 0.000000 -0.855302 -0.518130
outer loop
vertex 12.000000 4.370100 0.585000
vertex 12.000000 4.373490 0.579405
vertex 15.000000 4.370100 0.585000
endloop
endfacet
facet normal 0.000000 -0.855215 -0.518273
outer loop
vertex 15.000000 4.370100 0.585000
vertex 12.000000 4.373490 0.579405
vertex 15.000000 4.373490 0.579405
endloop
endfacet
facet normal 0.000000 -0.831167 -0.556023
outer loop
vertex 12.000000 4.373490 0.579405
vertex 12.000000 4.377130 0.573964
vertex 15.000000 4.373490 0.579405
endloop
endfacet
facet normal 0.000000 -0.831167 -0.556023
outer loop
vertex 15.000000 4.373490 0.579405
vertex 12.000000 4.377130 0.573964
vertex 15.000000 4.377130 0.573964
endloop
endfacet
facet normal 0.000000 -0.806396 -0.591376
outer loop
vertex 12.000000 4.377130 0.573964
vertex 12.000000 4.381000 0.568686
vertex 15.000000 4.377130 0.573964
endloop
endfacet
facet normal 0.000000 -0.806489 -0.591249
outer loop
vertex 15.000000 4.377130 0.573964
vertex 12.000000 4.381000 0.568686
vertex 15.000000 4.381000 0.568686
endloop
endfacet
facet normal 0.000000 -0.780315 -0.625387
outer loop
vertex 12.000000 4.381000 0.568686
vertex 12.000000 4.385090 0.563582
vertex 15.000000 4.381000 0.568686
endloop
endfacet
facet normal 0.000000 -0.780410 -0.625268
outer loop
vertex 15.000000 4.381000 0.568686
vertex 12.000000 4.385090 0.563582
vertex 15.000000 4.385090 0.563582
endloop
endfacet
facet normal 0.000000 -0.751497 -0.659737
outer loop
vertex 12.000000 4.385090 0.563582
vertex 12.000000 4.389410 0.558661
vertex 15.000000 4.385090 0.563582
endloop
endfacet
facet normal 0.000000 -0.751497 -0.659737
outer loop
vertex 15.000000 4.385090 0.563582
vertex 12.000000 4.389410 0.558661
vertex 15.000000 4.389410 0.558661
endloop
endfacet
facet normal 0.000000 -0.722723 -0.691137
outer loop
vertex 12.000000 4.389410 0.558661
vertex 12.000000 4.393930 0.553934
vertex 15.000000 4.389410 0.558661
endloop
endfacet
facet normal 0.000000 -0.722821 -0.691036
outer loop
vertex 15.000000 4.389410 0.558661
vertex 12.000000 4.393930 0.553934
vertex 15.000000 4.393930 0.553934
endloop
endfacet
facet normal 0.000000 -0.691334 -0.722535
outer loop
vertex 12.000000 4.393930 0.553934
vertex 12.000000 4.398660 0.549408
vertex 15.000000 4.393930 0.553934
endloop
endfacet
facet normal 0.000000 -0.691334 -0.722535
outer loop
vertex 15.000000 4.393930 0.553934
vertex 12.000000 4.398660 0.549408
vertex 15.000000 4.398660 0.549408
endloop
endfacet
facet normal 0.000000 -0.659347 -0.751839
outer loop
vertex 12.000000 4.398660 0.549408
vertex 12.000000 4.403580 0.545093
vertex 15.000000 4.398660 0.549408
endloop
endfacet
facet normal 0.000000 -0.659347 -0.751839
outer loop
vertex 15.000000 4.398660 0.549408
vertex 12.000000 4.403580 0.545093
vertex 15.000000 4.403580 0.545093
endloop
endfacet
facet normal 0.000000 -0.625500 -0.780224
outer loop
vertex 12.000000 4.403580 0.545093
vertex 12.000000 4.408690 0.540997
vertex 15.000000 4.403580 0.545093
endloop
endfacet
facet normal 0.000000 -0.625405 -0.780300
outer loop
vertex 15.000000 4.403580 0.545093
vertex 12.000000 4.408690 0.540997
vertex 15.000000 4.408690 0.540997
endloop
endfacet
facet normal 0.000000 -0.591941 -0.805981
outer loop
vertex 12.000000 4.408690 0.540997
vertex 12.000000 4.413960 0.537127
vertex 15.000000 4.408690 0.540997
endloop
endfacet
facet normal 0.000000 -0.591848 -0.806049
outer loop
vertex 15.000000 4.408690 0.540997
vertex 12.000000 4.413960 0.537127
vertex 15.000000 4.413960 0.537127
endloop
endfacet
facet normal 0.000000 -0.555660 -0.831410
outer loop
vertex 12.000000 4.413960 0.537127
vertex 12.000000 4.419400 0.533491
vertex 15.000000 4.413960 0.537127
endloop
endfacet
facet normal 0.000000 -0.555705 -0.831380
outer loop
vertex 15.000000 4.413960 0.537127
vertex 12.000000 4.419400 0.533491
vertex 15.000000 4.419400 0.533491
endloop
endfacet
facet normal 0.000000 -0.518424 -0.855124
outer loop
vertex 12.000000 4.419400 0.533491
vertex 12.000000 4.425000 0.530096
vertex 15.000000 4.419400 0.533491
endloop
endfacet
facet normal 0.000000 -0.518424 -0.855124
outer loop
vertex 15.000000 4.419400 0.533491
vertex 12.000000 4.425000 0.530096
vertex 15.000000 4.425000 0.530096
endloop
endfacet
facet normal 0.000000 -0.480916 -0.876767
outer loop
vertex 12.000000 4.425000 0.530096
vertex 12.000000 4.430740 0.526948
vertex 15.000000 4.425000 0.530096
endloop
endfacet
facet normal 0.000000 -0.480875 -0.876789
outer loop
vertex 15.000000 4.425000 0.530096
vertex 12.000000 4.430740 0.526948
vertex 15.000000 4.430740 0.526948
endloop
endfacet
facet normal 0.000000 -0.442182 -0.896925
outer loop
vertex 12.000000 4.430740 0.526948
vertex 12.000000 4.436610 0.524054
vertex 15.000000 4.430740 0.526948
endloop
endfacet
facet normal 0.000000 -0.442143 -0.896944
outer loop
vertex 15.000000 4.430740 0.526948
vertex 12.000000 4.436610 0.524054
vertex 15.000000 4.436610 0.524054
endloop
endfacet
facet normal 0.000000 -0.402844 -0.915269
outer loop
vertex 12.000000 4.436610 0.524054
vertex 12.000000 4.442600 0.521418
vertex 15.000000 4.436610 0.524054
endloop
endfacet
facet normal 0.000000 -0.402808 -0.915284
outer loop
vertex 15.000000 4.436610 0.524054
vertex 12.000000 4.442600 0.521418
vertex 15.000000 4.442600 0.521418
endloop
endfacet
facet normal 0.000000 -0.362362 -0.932037
outer loop
vertex 12.000000 4.442600 0.521418
vertex 12.000000 4.448700 0.519046
vertex 15.000000 4.442600 0.521418
endloop
endfacet
facet normal 0.000000 -0.362428 -0.932012
outer loop
vertex 15.000000 4.442600 0.521418
vertex 12.000000 4.448700 0.519046
vertex 15.000000 4.448700 0.519046
endloop
endfacet
facet normal 0.000000 -0.321849 -0.946791
outer loop
vertex 12.000000 4.448700 0.519046
vertex 12.000000 4.454890 0.516942
vertex 15.000000 4.448700 0.519046
endloop
endfacet
facet normal 0.000000 -0.321790 -0.946811
outer loop
vertex 15.000000 4.448700 0.519046
vertex 12.000000 4.454890 0.516942
vertex 15.000000 4.454890 0.516942
endloop
endfacet
facet normal 0.000000 -0.279477 -0.960152
outer loop
vertex 12.000000 4.454890 0.516942
vertex 12.000000 4.461180 0.515111
vertex 15.000000 4.454890 0.516942
endloop
endfacet
facet normal 0.000000 -0.279477 -0.960152
outer loop
vertex 15.000000 4.454890 0.516942
vertex 12.000000 4.461180 0.515111
vertex 15.000000 4.461180 0.515111
endloop
endfacet
facet normal 0.000000 -0.237896 -0.971291
outer loop
vertex 12.000000 4.461180 0.515111
vertex 12.000000 4.467530 0.513556
vertex 15.000000 4.461180 0.515111
endloop
endfacet
facet normal 0.000000 -0.237851 -0.971302
outer loop
vertex 15.000000 4.461180 0.515111
vertex 12.000000 4.467530 0.513556
vertex 15.000000 4.467530 0.513556
endloop
endfacet
facet normal 0.000000 -0.195088 -0.980786
outer loop
vertex 12.000000 4.467530 0.513556
vertex 12.000000 4.473950 0.512279
vertex 15.000000 4.467530 0.513556
endloop
endfacet
facet normal 0.000000 -0.195088 -0.980786
outer loop
vertex 15.000000 4.467530 0.513556
vertex 12.000000 4.473950 0.512279
vertex 15.000000 4.473950 0.512279
endloop
endfacet
facet normal 0.000000 -0.152140 -0.988359
outer loop
vertex 12.000000 4.473950 0.512279
vertex 12.000000 4.480420 0.511283
vertex 15.000000 4.473950 0.512279
endloop
endfacet
facet normal 0.000000 -0.152154 -0.988357
outer loop
vertex 15.000000 4.473950 0.512279
vertex 12.000000 4.480420 0.511283
vertex 15.000000 4.480420 0.511283
endloop
endfacet
facet normal 0.000000 -0.108722 -0.994072
outer loop
vertex 12.000000 4.480420 0.511283
vertex 12.000000 4.486930 0.510571
vertex 15.000000 4.480420 0.511283
endloop
endfacet
facet normal 0.000000 -0.108722 -0.994072
outer loop
vertex 15.000000 4.480420 0.511283
vertex 12.000000 4.486930 0.510571
vertex 15.000000 4.486930 0.510571
endloop
endfacet
facet normal 0.000000 -0.065399 -0.997859
outer loop
vertex 12.000000 4.486930 0.510571
vertex 12.000000 4.493460 0.510143
vertex 15.000000 4.486930 0.510571
endloop
endfacet
facet normal 0.000000 -0.065405 -0.997859
outer loop
vertex 15.000000 4.486930 0.510571
vertex 12.000000 4.493460 0.510143
vertex 15.000000 4.493460 0.510143
endloop
endfacet
facet normal 0.000000 -0.021862 -0.999761
outer loop
vertex 12.000000 4.493460 0.510143
vertex 12.000000 4.500000 0.510000
vertex 15.000000 4.493460 0.510143
endloop
endfacet
facet normal 0.000000 -0.021858 -0.999761
outer loop
vertex 15.000000 4.493460 0.510143
vertex 12.000000 4.500000 0.510000
vertex 15.000000 4.500000 0.510000
endloop
endfacet
facet normal 0.000000 0.021858 -0.999761
outer loop
vertex 12.000000 4.500000 0.510000
vertex 12.000000 4.506540 0.510143
vertex 15.000000 4.500000 0.510000
endloop
endfacet
facet normal 0.000000 0.021862 -0.999761
outer loop
vertex 15.000000 4.500000 0.510000
vertex 12.000000 4.506540 0.510143
vertex 15.000000 4.506540 0.510143
endloop
endfacet
facet normal 0.000000 0.065405 -0.997859
outer loop
vertex 12.000000 4.506540 0.510143
vertex 12.000000 4.513070 0.510571
vertex 15.000000 4.506540 0.510143
endloop
endfacet
facet normal 0.000000 0.065399 -0.997859
outer loop
vertex 15.000000 4.506540 0.510143
vertex 12.000000 4.513070 0.510571
vertex 15.000000 4.513070 0.510571
endloop
endfacet
facet normal 0.000000 0.108722 -0.994072
outer loop
vertex 12.000000 4.513070 0.510571
vertex 12.000000 4.519580 0.511283
vertex 15.000000 4.513070 0.510571
endloop
endfacet
facet normal 0.000000 0.108722 -0.994072
outer loop
vertex 15.000000 4.513070 0.510571
vertex 12.000000 4.519580 0.511283
vertex 15.000000 4.519580 0.511283
endloop
endfacet
facet normal 0.000000 0.152154 -0.988357
outer loop
vertex 12.000000 4.519580 0.511283
vertex 12.000000 4.526050 0.512279
vertex 15.000000 4.519580 0.511283
endloop
endfacet
facet normal 0.000000 0.152140 -0.988359
outer loop
vertex 15.000000 4.519580 0.511283
vertex 12.000000 4.526050 0.512279
vertex 15.000000 4.526050 0.512279
endloop
endfacet
facet normal 0.000000 0.195088 -0.980786
outer loop
vertex 12.000000 4.526050 0.512279
vertex 12.000000 4.532470 0.513556
vertex 15.000000 4.526050 0.512279
endloop
endfacet
facet normal 0.000000 0.195088 -0.980786
outer loop
vertex 15.000000 4.526050 0.512279
vertex 12.000000 4.532470 0.513556
vertex 15.000000 4.532470 0.513556
endloop
endfacet
facet normal 0.000000 0.237851 -0.971302
outer loop
vertex 12.000000 4.532470 0.513556
vertex 12.000000 4.538820 0.515111
vertex 15.000000 4.532470 0.513556
endloop
endfacet
facet normal 0.000000 0.237896 -0.971291
outer loop
vertex 15.000000 4.532470 0.513556
vertex 12.000000 4.538820 0.515111
vertex 15.000000 4.538820 0.515111
endloop
endfacet
facet normal 0.000000 0.279477 -0.960152
outer loop
vertex 12.000000 4.538820 0.515111
vertex 12.000000 4.545110 0.516942
vertex 15.000000 4.538820 0.515111
endloop
endfacet
facet normal 0.000000 0.279477 -0.960152
outer loop
vertex 15.000000 4.538820 0.515111
vertex 12.000000 4.545110 0.516942
vertex 15.000000 4.545110 0.516942
endloop
endfacet
facet normal 0.000000 0.321790 -0.946811
outer loop
vertex 12.000000 4.545110 0.516942
vertex 12.000000 4.551300 0.519046
vertex 15.000000 4.545110 0.516942
endloop
endfacet
facet normal 0.000000 0.321849 -0.946791
outer loop
vertex 15.000000 4.545110 0.516942
vertex 12.000000 4.551300 0.519046
vertex 15.000000 4.551300 0.519046
endloop
endfacet
facet normal 0.000000 0.362428 -0.932012
outer loop
vertex 12.000000 4.551300 0.519046
vertex 12.000000 4.557400 0.521418
vertex 15.000000 4.551300 0.519046
endloop
endfacet
facet normal 0.000000 0.362362 -0.932037
outer loop
vertex 15.000000 4.551300 0.519046
vertex 12.000000 4.557400 0.521418
vertex 15.000000 4.557400 0.521418
endloop
endfacet
facet normal 0.000000 0.402808 -0.915284
outer loop
vertex 12.000000 4.557400 0.521418
vertex 12.000000 4.563390 0.524054
vertex 15.000000 4.557400 0.521418
endloop
endfacet
facet normal 0.000000 0.402844 -0.915269
outer loop
vertex 15.000000 4.557400 0.521418
vertex 12.000000 4.563390 0.524054
vertex 15.000000 4.563390 0.524054
endloop
endfacet
facet normal 0.000000 0.442143 -0.896944
outer loop
vertex 12.000000 4.563390 0.524054
vertex 12.000000 4.569260 0.526948
vertex 15.000000 4.563390 0.524054
endloop
endfacet
facet normal 0.000000 0.442182 -0.896925
outer loop
vertex 15.000000 4.563390 0.524054
vertex 12.000000 4.569260 0.526948
vertex 15.000000 4.569260 0.526948
endloop
endfacet
facet normal 0.000000 0.480875 -0.876789
outer loop
vertex 12.000000 4.569260 0.526948
vertex 12.000000 4.575000 0.530096
vertex 15.000000 4.569260 0.526948
endloop
endfacet
facet normal 0.000000 0.480916 -0.876767
outer loop
vertex 15.000000 4.569260 0.526948
vertex 12.000000 4.575000 0.530096
vertex 15.000000 4.575000 0.530096
endloop
endfacet
facet normal 0.000000 0.518424 -0.855124
outer loop
vertex 12.000000 4.575000 0.530096
vertex 12.000000 4.580600 0.533491
vertex 15.000000 4.575000 0.530096
endloop
endfacet
facet normal 0.000000 0.518424 -0.855124
outer loop
vertex 15.000000 4.575000 0.530096
vertex 12.000000 4.580600 0.533491
vertex 15.000000 4.580600 0.533491
endloop
endfacet
facet normal 0.000000 0.555705 -0.831380
outer loop
vertex 12.000000 4.580600 0.533491
vertex 12.000000 4.586040 0.537127
vertex 15.000000 4.580600 0.533491
endloop
endfacet
facet normal 0.000000 0.555660 -0.831410
outer loop
vertex 15.000000 4.580600 0.533491
vertex 12.000000 4.586040 0.537127
vertex 15.000000 4.586040 0.537127
endloop
endfacet
facet normal 0.000000 0.591848 -0.806049
outer loop
vertex 12.000000 4.586040 0.537127
vertex 12.000000 4.591310 0.540997
vertex 15.000000 4.586040 0.537127
endloop
endfacet
facet normal 0.000000 0.591941 -0.805981
outer loop
vertex 15.000000 4.586040 0.537127
vertex 12.000000 4.591310 0.540997
vertex 15.000000 4.591310 0.540997
endloop
endfacet
facet normal 0.000000 0.625405 -0.780300
outer loop
vertex 12.000000 4.591310 0.540997
vertex 12.000000 4.596420 0.545093
vertex 15.000000 4.591310 0.540997
endloop
endfacet
facet normal 0.000000 0.625500 -0.780224
outer loop
vertex 15.000000 4.591310 0.540997
vertex 12.000000 4.596420 0.545093
vertex 15.000000 4.596420 0.545093
endloop
endfacet
facet normal 0.000000 0.659347 -0.751839
outer loop
vertex 12.000000 4.596420 0.545093
vertex 12.000000 4.601340 0.549408
vertex 15.000000 4.596420 0.545093
endloop
endfacet
facet normal 0.000000 0.659347 -0.751839
outer loop
vertex 15.000000 4.596420 0.545093
vertex 12.000000 4.601340 0.549408
vertex 15.000000 4.601340 0.549408
endloop
endfacet
facet normal 0.000000 0.691334 -0.722535
outer loop
vertex 12.000000 4.601340 0.549408
vertex 12.000000 4.606070 0.553934
vertex 15.000000 4.601340 0.549408
endloop
endfacet
facet normal 0.000000 0.691334 -0.722535
outer loop
vertex 15.000000 4.601340 0.549408
vertex 12.000000 4.606070 0.553934
vertex 15.000000 4.606070 0.553934
endloop
endfacet
facet normal 0.000000 0.722821 -0.691036
outer loop
vertex 12.000000 4.606070 0.553934
vertex 12.000000 4.610590 0.558661
vertex 15.000000 4.606070 0.553934
endloop
endfacet
facet normal 0.000000 0.722723 -0.691137
outer loop
vertex 15.000000 4.606070 0.553934
vertex 12.000000 4.610590 0.558661
vertex 15.000000 4.610590 0.558661
endloop
endfacet
facet normal 0.000000 0.751497 -0.659737
outer loop
vertex 12.000000 4.610590 0.558661
vertex 12.000000 4.614910 0.563582
vertex 15.000000 4.610590 0.558661
endloop
endfacet
facet normal 0.000000 0.751497 -0.659737
outer loop
vertex 15.000000 4.610590 0.558661
vertex 12.000000 4.614910 0.563582
vertex 15.000000 4.614910 0.563582
endloop
endfacet
facet normal 0.000000 0.780410 -0.625268
outer loop
vertex 12.000000 4.614910 0.563582
vertex 12.000000 4.619000 0.568686
vertex 15.000000 4.614910 0.563582
endloop
endfacet
facet normal 0.000000 0.780315 -0.625387
outer loop
vertex 15.000000 4.614910 0.563582
vertex 12.000000 4.619000 0.568686
vertex 15.000000 4.619000 0.568686
endloop
endfacet
facet normal 0.000000 0.806489 -0.591249
outer loop
vertex 12.000000 4.619000 0.568686
vertex 12.000000 4.622870 0.573964
vertex 15.000000 4.619000 0.568686
endloop
endfacet
facet normal 0.000000 0.806396 -0.591376
outer loop
vertex 15.000000 4.619000 0.568686
vertex 12.000000 4.622870 0.573964
vertex 15.000000 4.622870 0.573964
endloop
endfacet
facet normal 0.000000 0.831167 -0.556023
outer loop
vertex 12.000000 4.622870 0.573964
vertex 12.000000 4.626510 0.579405
vertex 15.000000 4.622870 0.573964
endloop
endfacet
facet normal 0.000000 0.831167 -0.556023
outer loop
vertex 15.000000 4.622870 0.573964
vertex 12.000000 4.626510 0.579405
vertex 15.000000 4.626510 0.579405
endloop
endfacet
facet normal 0.000000 0.855215 -0.518273
outer loop
vertex 12.000000 4.626510 0.579405
vertex 12.000000 4.629900 0.585000
vertex 15.000000 4.626510 0.579405
endloop
endfacet
facet normal 0.000000 0.855302 -0.518130
outer loop
vertex 15.000000 4.626510 0.579405
vertex 12.000000 4.629900 0.585000
vertex 15.000000 4.629900 0.585000
endloop
endfacet
facet normal 0.000000 0.876618 -0.481186
outer loop
vertex 12.000000 4.629900 0.585000
vertex 12.000000 4.633050 0.590738
vertex 15.000000 4.629900 0.585000
endloop
endfacet
facet normal 0.000000 0.876577 -0.481261
outer loop
vertex 15.000000 4.629900 0.585000
vertex 12.000000 4.633050 0.590738
vertex 15.000000 4.633050 0.590738
endloop
endfacet
facet normal 0.000000 0.896538 -0.442967
outer loop
vertex 12.000000 4.633050 0.590738
vertex 12.000000 4.635950 0.596607
vertex 15.000000 4.633050 0.590738
endloop
endfacet
facet normal 0.000000 0.896499 -0.443045
outer loop
vertex 15.000000 4.633050 0.590738
vertex 12.000000 4.635950 0.596607
vertex 15.000000 4.635950 0.596607
endloop
endfacet
facet normal 0.000000 0.915616 -0.402053
outer loop
vertex 12.000000 4.635950 0.596607
vertex 12.000000 4.638580 0.602597
vertex 15.000000 4.635950 0.596607
endloop
endfacet
facet normal 0.000000 0.915688 -0.401890
outer loop
vertex 15.000000 4.635950 0.596607
vertex 12.000000 4.638580 0.602597
vertex 15.000000 4.638580 0.602597
endloop
endfacet
facet normal 0.000000 0.932109 -0.362178
outer loop
vertex 12.000000 4.638580 0.602597
vertex 12.000000 4.640950 0.608697
vertex 15.000000 4.638580 0.602597
endloop
endfacet
facet normal 0.000000 0.932076 -0.362262
outer loop
vertex 15.000000 4.638580 0.602597
vertex 12.000000 4.640950 0.608697
vertex 15.000000 4.640950 0.608697
endloop
endfacet
facet normal 0.000000 0.946654 -0.322253
outer loop
vertex 12.000000 4.640950 0.608697
vertex 12.000000 4.643060 0.614894
vertex 15.000000 4.640950 0.608697
endloop
endfacet
facet normal 0.000000 0.946624 -0.322340
outer loop
vertex 15.000000 4.640950 0.608697
vertex 12.000000 4.643060 0.614894
vertex 15.000000 4.643060 0.614894
endloop
endfacet
facet normal 0.000000 0.960088 -0.279699
outer loop
vertex 12.000000 4.643060 0.614894
vertex 12.000000 4.644890 0.621177
vertex 15.000000 4.643060 0.614894
endloop
endfacet
facet normal 0.000000 0.960140 -0.279520
outer loop
vertex 15.000000 4.643060 0.614894
vertex 12.000000 4.644890 0.621177
vertex 15.000000 4.644890 0.621177
endloop
endfacet
facet normal 0.000000 0.971513 -0.236985
outer loop
vertex 12.000000 4.644890 0.621177
vertex 12.000000 4.646440 0.627534
vertex 15.000000 4.644890 0.621177
endloop
endfacet
facet normal 0.000000 0.971558 -0.236801
outer loop
vertex 15.000000 4.644890 0.621177
vertex 12.000000 4.646440 0.627534
vertex 15.000000 4.646440 0.627534
endloop
endfacet
facet normal 0.000000 0.980678 -0.195626
outer loop
vertex 12.000000 4.646440 0.627534
vertex 12.000000 4.647720 0.633953
vertex 15.000000 4.646440 0.627534
endloop
endfacet
facet normal 0.000000 0.980716 -0.195440
outer loop
vertex 15.000000 4.646440 0.627534
vertex 12.000000 4.647720 0.633953
vertex 15.000000 4.647720 0.633953
endloop
endfacet
facet normal 0.000000 0.988242 -0.152900
outer loop
vertex 12.000000 4.647720 0.633953
vertex 12.000000 4.648720 0.640421
vertex 15.000000 4.647720 0.633953
endloop
endfacet
facet normal 0.000000 0.988271 -0.152710
outer loop
vertex 15.000000 4.647720 0.633953
vertex 12.000000 4.648720 0.640421
vertex 15.000000 4.648720 0.640421
endloop
endfacet
facet normal 0.000000 0.994106 -0.108415
outer loop
vertex 12.000000 4.648720 0.640421
vertex 12.000000 4.649430 0.646927
vertex 15.000000 4.648720 0.640421
endloop
endfacet
facet normal 0.000000 0.994085 -0.108607
outer loop
vertex 15.000000 4.648720 0.640421
vertex 12.000000 4.649430 0.646927
vertex 15.000000 4.649430 0.646927
endloop
endfacet
facet normal 0.000000 0.997841 -0.065676
outer loop
vertex 12.000000 4.649430 0.646927
vertex 12.000000 4.649860 0.653457
vertex 15.000000 4.649430 0.646927
endloop
endfacet
facet normal 0.000000 0.997841 -0.065676
outer loop
vertex 15.000000 4.649430 0.646927
vertex 12.000000 4.649860 0.653457
vertex 15.000000 4.649860 0.653457
endloop
endfacet
facet normal 0.000000 0.999770 -0.021469
outer loop
vertex 12.000000 4.649860 0.653457
vertex 12.000000 4.650000 0.660000
vertex 15.000000 4.649860 0.653457
endloop
endfacet
facet normal 0.000000 0.999770 -0.021469
outer loop
vertex 15.000000 4.649860 0.653457
vertex 12.000000 4.650000 0.660000
vertex 15.000000 4.650000 0.660000
endloop
endfacet
facet normal 0.000000 0.999770 0.021470
outer loop
vertex 12.000000 4.650000 0.660000
vertex 12.000000 4.649860 0.666543
vertex 15.000000 4.650000 0.660000
endloop
endfacet
endsolid inletwall
