solid outletwall
facet normal 0.000000 0.021858 0.999761
outer loop
vertex -3.000000 1.000000 0.810000
vertex 0.000000 1.006540 0.809857
vertex -3.000000 1.006540 0.809857
endloop
endfacet
facet normal 0.000000 0.065407 0.997859
outer loop
vertex 0.000000 1.006540 0.809857
vertex 0.000000 1.013070 0.809429
vertex -3.000000 1.006540 0.809857
endloop
endfacet
facet normal 0.000000 0.065407 0.997859
outer loop
vertex -3.000000 1.006540 0.809857
vertex 0.000000 1.013070 0.809429
vertex -3.000000 1.013070 0.809429
endloop
endfacet
facet normal 0.000000 0.108717 0.994073
outer loop
vertex 0.000000 1.013070 0.809429
vertex 0.000000 1.019580 0.808717
vertex -3.000000 1.013070 0.809429
endloop
endfacet
facet normal 0.000000 0.108717 0.994073
outer loop
vertex -3.000000 1.013070 0.809429
vertex 0.000000 1.019580 0.808717
vertex -3.000000 1.019580 0.808717
endloop
endfacet
facet normal 0.000000 0.152151 0.988357
outer loop
vertex 0.000000 1.019580 0.808717
vertex 0.000000 1.026050 0.807721
vertex -3.000000 1.019580 0.808717
endloop
endfacet
facet normal 0.000000 0.152151 0.988357
outer loop
vertex -3.000000 1.019580 0.808717
vertex 0.000000 1.026050 0.807721
vertex -3.000000 1.026050 0.807721
endloop
endfacet
facet normal 0.000000 0.195093 0.980785
outer loop
vertex 0.000000 1.026050 0.807721
vertex 0.000000 1.032470 0.806444
vertex -3.000000 1.026050 0.807721
endloop
endfacet
facet normal 0.000000 0.195088 0.980786
outer loop
vertex -3.000000 1.026050 0.807721
vertex 0.000000 1.032470 0.806444
vertex -3.000000 1.032470 0.806444
endloop
endfacet
facet normal 0.000000 0.237848 0.971302
outer loop
vertex 0.000000 1.032470 0.806444
vertex 0.000000 1.038820 0.804889
vertex -3.000000 1.032470 0.806444
endloop
endfacet
facet normal 0.000000 0.237848 0.971302
outer loop
vertex -3.000000 1.032470 0.806444
vertex 0.000000 1.038820 0.804889
vertex -3.000000 1.038820 0.804889
endloop
endfacet
facet normal 0.000000 0.279497 0.960147
outer loop
vertex 0.000000 1.038820 0.804889
vertex 0.000000 1.045110 0.803058
vertex -3.000000 1.038820 0.804889
endloop
endfacet
facet normal 0.000000 0.279497 0.960147
outer loop
vertex -3.000000 1.038820 0.804889
vertex 0.000000 1.045110 0.803058
vertex -3.000000 1.045110 0.803058
endloop
endfacet
facet normal 0.000000 0.321820 0.946801
outer loop
vertex 0.000000 1.045110 0.803058
vertex 0.000000 1.051300 0.800954
vertex -3.000000 1.045110 0.803058
endloop
endfacet
facet normal 0.000000 0.321827 0.946798
outer loop
vertex -3.000000 1.045110 0.803058
vertex 0.000000 1.051300 0.800954
vertex -3.000000 1.051300 0.800954
endloop
endfacet
facet normal 0.000000 0.362411 0.932018
outer loop
vertex 0.000000 1.051300 0.800954
vertex 0.000000 1.057400 0.798582
vertex -3.000000 1.051300 0.800954
endloop
endfacet
facet normal 0.000000 0.362420 0.932015
outer loop
vertex -3.000000 1.051300 0.800954
vertex 0.000000 1.057400 0.798582
vertex -3.000000 1.057400 0.798582
endloop
endfacet
facet normal 0.000000 0.402790 0.915292
outer loop
vertex 0.000000 1.057400 0.798582
vertex 0.000000 1.063390 0.795946
vertex -3.000000 1.057400 0.798582
endloop
endfacet
facet normal 0.000000 0.402790 0.915292
outer loop
vertex -3.000000 1.057400 0.798582
vertex 0.000000 1.063390 0.795946
vertex -3.000000 1.063390 0.795946
endloop
endfacet
facet normal 0.000000 0.442201 0.896916
outer loop
vertex 0.000000 1.063390 0.795946
vertex 0.000000 1.069260 0.793052
vertex -3.000000 1.063390 0.795946
endloop
endfacet
facet normal 0.000000 0.442191 0.896921
outer loop
vertex -3.000000 1.063390 0.795946
vertex 0.000000 1.069260 0.793052
vertex -3.000000 1.069260 0.793052
endloop
endfacet
facet normal 0.000000 0.480865 0.876795
outer loop
vertex 0.000000 1.069260 0.793052
vertex 0.000000 1.075000 0.789904
vertex -3.000000 1.069260 0.793052
endloop
endfacet
facet normal 0.000000 0.480854 0.876800
outer loop
vertex -3.000000 1.069260 0.793052
vertex 0.000000 1.075000 0.789904
vertex -3.000000 1.075000 0.789904
endloop
endfacet
facet normal 0.000000 0.519103 0.854712
outer loop
vertex 0.000000 1.075000 0.789904
vertex 0.000000 1.080590 0.786509
vertex -3.000000 1.075000 0.789904
endloop
endfacet
facet normal 0.000000 0.519103 0.854712
outer loop
vertex -3.000000 1.075000 0.789904
vertex 0.000000 1.080590 0.786509
vertex -3.000000 1.080590 0.786509
endloop
endfacet
facet normal 0.000000 0.554976 0.831866
outer loop
vertex 0.000000 1.080590 0.786509
vertex 0.000000 1.086040 0.782873
vertex -3.000000 1.080590 0.786509
endloop
endfacet
facet normal 0.000000 0.554987 0.831859
outer loop
vertex -3.000000 1.080590 0.786509
vertex 0.000000 1.086040 0.782873
vertex -3.000000 1.086040 0.782873
endloop
endfacet
facet normal 0.000000 0.591889 0.806020
outer loop
vertex 0.000000 1.086040 0.782873
vertex 0.000000 1.091310 0.779003
vertex -3.000000 1.086040 0.782873
endloop
endfacet
facet normal 0.000000 0.591889 0.806020
outer loop
vertex -3.000000 1.086040 0.782873
vertex 0.000000 1.091310 0.779003
vertex -3.000000 1.091310 0.779003
endloop
endfacet
facet normal 0.000000 0.625435 0.780276
outer loop
vertex 0.000000 1.091310 0.779003
vertex 0.000000 1.096420 0.774907
vertex -3.000000 1.091310 0.779003
endloop
endfacet
facet normal 0.000000 0.625447 0.780267
outer loop
vertex -3.000000 1.091310 0.779003
vertex 0.000000 1.096420 0.774907
vertex -3.000000 1.096420 0.774907
endloop
endfacet
facet normal 0.000000 0.659371 0.751818
outer loop
vertex 0.000000 1.096420 0.774907
vertex 0.000000 1.101340 0.770592
vertex -3.000000 1.096420 0.774907
endloop
endfacet
facet normal 0.000000 0.659371 0.751818
outer loop
vertex -3.000000 1.096420 0.774907
vertex 0.000000 1.101340 0.770592
vertex -3.000000 1.101340 0.770592
endloop
endfacet
facet normal 0.000000 0.691346 0.722524
outer loop
vertex 0.000000 1.101340 0.770592
vertex 0.000000 1.106070 0.766066
vertex -3.000000 1.101340 0.770592
endloop
endfacet
facet normal 0.000000 0.691358 0.722512
outer loop
vertex -3.000000 1.101340 0.770592
vertex 0.000000 1.106070 0.766066
vertex -3.000000 1.106070 0.766066
endloop
endfacet
facet normal 0.000000 0.722760 0.691099
outer loop
vertex 0.000000 1.106070 0.766066
vertex 0.000000 1.110590 0.761339
vertex -3.000000 1.106070 0.766066
endloop
endfacet
facet normal 0.000000 0.722760 0.691099
outer loop
vertex -3.000000 1.106070 0.766066
vertex 0.000000 1.110590 0.761339
vertex -3.000000 1.110590 0.761339
endloop
endfacet
facet normal 0.000000 0.751497 0.659737
outer loop
vertex 0.000000 1.110590 0.761339
vertex 0.000000 1.114910 0.756418
vertex -3.000000 1.110590 0.761339
endloop
endfacet
facet normal 0.000000 0.751521 0.659709
outer loop
vertex -3.000000 1.110590 0.761339
vertex 0.000000 1.114910 0.756418
vertex -3.000000 1.114910 0.756418
endloop
endfacet
facet normal 0.000000 0.780351 0.625342
outer loop
vertex 0.000000 1.114910 0.756418
vertex 0.000000 1.119000 0.751314
vertex -3.000000 1.114910 0.756418
endloop
endfacet
facet normal 0.000000 0.780374 0.625313
outer loop
vertex -3.000000 1.114910 0.756418
vertex 0.000000 1.119000 0.751314
vertex -3.000000 1.119000 0.751314
endloop
endfacet
facet normal 0.000000 0.806443 0.591312
outer loop
vertex 0.000000 1.119000 0.751314
vertex 0.000000 1.122870 0.746036
vertex -3.000000 1.119000 0.751314
endloop
endfacet
facet normal 0.000000 0.806443 0.591312
outer loop
vertex -3.000000 1.119000 0.751314
vertex 0.000000 1.122870 0.746036
vertex -3.000000 1.122870 0.746036
endloop
endfacet
facet normal 0.000000 0.831144 0.556057
outer loop
vertex 0.000000 1.122870 0.746036
vertex 0.000000 1.126510 0.740595
vertex -3.000000 1.122870 0.746036
endloop
endfacet
facet normal 0.000000 0.831167 0.556023
outer loop
vertex -3.000000 1.122870 0.746036
vertex 0.000000 1.126510 0.740595
vertex -3.000000 1.126510 0.740595
endloop
endfacet
facet normal 0.000000 0.855248 0.518219
outer loop
vertex 0.000000 1.126510 0.740595
vertex 0.000000 1.129900 0.735000
vertex -3.000000 1.126510 0.740595
endloop
endfacet
facet normal 0.000000 0.855269 0.518184
outer loop
vertex -3.000000 1.126510 0.740595
vertex 0.000000 1.129900 0.735000
vertex -3.000000 1.129900 0.735000
endloop
endfacet
facet normal 0.000000 0.876598 0.481224
outer loop
vertex 0.000000 1.129900 0.735000
vertex 0.000000 1.133050 0.729262
vertex -3.000000 1.129900 0.735000
endloop
endfacet
facet normal 0.000000 0.876598 0.481224
outer loop
vertex -3.000000 1.129900 0.735000
vertex 0.000000 1.133050 0.729262
vertex -3.000000 1.133050 0.729262
endloop
endfacet
facet normal 0.000000 0.896517 0.443009
outer loop
vertex 0.000000 1.133050 0.729262
vertex 0.000000 1.135950 0.723393
vertex -3.000000 1.133050 0.729262
endloop
endfacet
facet normal 0.000000 0.896536 0.442970
outer loop
vertex -3.000000 1.133050 0.729262
vertex 0.000000 1.135950 0.723393
vertex -3.000000 1.135950 0.723393
endloop
endfacet
facet normal 0.000000 0.915627 0.402029
outer loop
vertex 0.000000 1.135950 0.723393
vertex 0.000000 1.138580 0.717403
vertex -3.000000 1.135950 0.723393
endloop
endfacet
facet normal 0.000000 0.915627 0.402029
outer loop
vertex -3.000000 1.135950 0.723393
vertex 0.000000 1.138580 0.717403
vertex -3.000000 1.138580 0.717403
endloop
endfacet
facet normal 0.000000 0.932117 0.362157
outer loop
vertex 0.000000 1.138580 0.717403
vertex 0.000000 1.140950 0.711303
vertex -3.000000 1.138580 0.717403
endloop
endfacet
facet normal 0.000000 0.932126 0.362135
outer loop
vertex -3.000000 1.138580 0.717403
vertex 0.000000 1.140950 0.711303
vertex -3.000000 1.140950 0.711303
endloop
endfacet
facet normal 0.000000 0.946631 0.322318
outer loop
vertex 0.000000 1.140950 0.711303
vertex 0.000000 1.143060 0.705106
vertex -3.000000 1.140950 0.711303
endloop
endfacet
facet normal 0.000000 0.946631 0.322318
outer loop
vertex -3.000000 1.140950 0.711303
vertex 0.000000 1.143060 0.705106
vertex -3.000000 1.143060 0.705106
endloop
endfacet
facet normal 0.000000 0.960101 0.279654
outer loop
vertex 0.000000 1.143060 0.705106
vertex 0.000000 1.144890 0.698823
vertex -3.000000 1.143060 0.705106
endloop
endfacet
facet normal 0.000000 0.960107 0.279632
outer loop
vertex -3.000000 1.143060 0.705106
vertex 0.000000 1.144890 0.698823
vertex -3.000000 1.144890 0.698823
endloop
endfacet
facet normal 0.000000 0.971541 0.236870
outer loop
vertex 0.000000 1.144890 0.698823
vertex 0.000000 1.146440 0.692466
vertex -3.000000 1.144890 0.698823
endloop
endfacet
facet normal 0.000000 0.971530 0.236916
outer loop
vertex -3.000000 1.144890 0.698823
vertex 0.000000 1.146440 0.692466
vertex -3.000000 1.146440 0.692466
endloop
endfacet
facet normal 0.000000 0.980697 0.195533
outer loop
vertex 0.000000 1.146440 0.692466
vertex 0.000000 1.147720 0.686047
vertex -3.000000 1.146440 0.692466
endloop
endfacet
facet normal 0.000000 0.980688 0.195580
outer loop
vertex -3.000000 1.146440 0.692466
vertex 0.000000 1.147720 0.686047
vertex -3.000000 1.147720 0.686047
endloop
endfacet
facet normal 0.000000 0.988256 0.152805
outer loop
vertex 0.000000 1.147720 0.686047
vertex 0.000000 1.148720 0.679579
vertex -3.000000 1.147720 0.686047
endloop
endfacet
facet normal 0.000000 0.988260 0.152781
outer loop
vertex -3.000000 1.147720 0.686047
vertex 0.000000 1.148720 0.679579
vertex -3.000000 1.148720 0.679579
endloop
endfacet
facet normal 0.000000 0.994098 0.108487
outer loop
vertex 0.000000 1.148720 0.679579
vertex 0.000000 1.149430 0.673073
vertex -3.000000 1.148720 0.679579
endloop
endfacet
facet normal 0.000000 0.994098 0.108487
outer loop
vertex -3.000000 1.148720 0.679579
vertex 0.000000 1.149430 0.673073
vertex -3.000000 1.149430 0.673073
endloop
endfacet
facet normal 0.000000 0.997838 0.065724
outer loop
vertex 0.000000 1.149430 0.673073
vertex 0.000000 1.149860 0.666543
vertex -3.000000 1.149430 0.673073
endloop
endfacet
facet normal 0.000000 0.997839 0.065700
outer loop
vertex -3.000000 1.149430 0.673073
vertex 0.000000 1.149860 0.666543
vertex -3.000000 1.149860 0.666543
endloop
endfacet
facet normal 0.000000 0.999772 0.021373
outer loop
vertex 0.000000 1.149860 0.666543
vertex 0.000000 1.150000 0.660000
vertex -3.000000 1.149860 0.666543
endloop
endfacet
facet normal 0.000000 0.999772 0.021373
outer loop
vertex -3.000000 1.149860 0.666543
vertex 0.000000 1.150000 0.660000
vertex -3.000000 1.150000 0.660000
endloop
endfacet
facet normal 0.000000 0.999772 -0.021372
outer loop
vertex 0.000000 1.150000 0.660000
vertex 0.000000 1.149860 0.653457
vertex -3.000000 1.150000 0.660000
endloop
endfacet
facet normal 0.000000 0.999772 -0.021372
outer loop
vertex -3.000000 1.150000 0.660000
vertex 0.000000 1.149860 0.653457
vertex -3.000000 1.149860 0.653457
endloop
endfacet
facet normal 0.000000 0.997839 -0.065700
outer loop
vertex 0.000000 1.149860 0.653457
vertex 0.000000 1.149430 0.646927
vertex -3.000000 1.149860 0.653457
endloop
endfacet
facet normal 0.000000 0.997838 -0.065724
outer loop
vertex -3.000000 1.149860 0.653457
vertex 0.000000 1.149430 0.646927
vertex -3.000000 1.149430 0.646927
endloop
endfacet
facet normal 0.000000 0.994098 -0.108487
outer loop
vertex 0.000000 1.149430 0.646927
vertex 0.000000 1.148720 0.640421
vertex -3.000000 1.149430 0.646927
endloop
endfacet
facet normal 0.000000 0.994098 -0.108487
outer loop
vertex -3.000000 1.149430 0.646927
vertex 0.000000 1.148720 0.640421
vertex -3.000000 1.148720 0.640421
endloop
endfacet
facet normal 0.000000 0.988260 -0.152781
outer loop
vertex 0.000000 1.148720 0.640421
vertex 0.000000 1.147720 0.633953
vertex -3.000000 1.148720 0.640421
endloop
endfacet
facet normal 0.000000 0.988256 -0.152805
outer loop
vertex -3.000000 1.148720 0.640421
vertex 0.000000 1.147720 0.633953
vertex -3.000000 1.147720 0.633953
endloop
endfacet
facet normal 0.000000 0.980688 -0.195580
outer loop
vertex 0.000000 1.147720 0.633953
vertex 0.000000 1.146440 0.627534
vertex -3.000000 1.147720 0.633953
endloop
endfacet
facet normal 0.000000 0.980697 -0.195533
outer loop
vertex -3.000000 1.147720 0.633953
vertex 0.000000 1.146440 0.627534
vertex -3.000000 1.146440 0.627534
endloop
endfacet
facet normal 0.000000 0.971530 -0.236916
outer loop
vertex 0.000000 1.146440 0.627534
vertex 0.000000 1.144890 0.621177
vertex -3.000000 1.146440 0.627534
endloop
endfacet
facet normal 0.000000 0.971541 -0.236870
outer loop
vertex -3.000000 1.146440 0.627534
vertex 0.000000 1.144890 0.621177
vertex -3.000000 1.144890 0.621177
endloop
endfacet
facet normal 0.000000 0.960107 -0.279632
outer loop
vertex 0.000000 1.144890 0.621177
vertex 0.000000 1.143060 0.614894
vertex -3.000000 1.144890 0.621177
endloop
endfacet
facet normal 0.000000 0.960101 -0.279654
outer loop
vertex -3.000000 1.144890 0.621177
vertex 0.000000 1.143060 0.614894
vertex -3.000000 1.143060 0.614894
endloop
endfacet
facet normal 0.000000 0.946631 -0.322318
outer loop
vertex 0.000000 1.143060 0.614894
vertex 0.000000 1.140950 0.608697
vertex -3.000000 1.143060 0.614894
endloop
endfacet
facet normal 0.000000 0.946631 -0.322318
outer loop
vertex -3.000000 1.143060 0.614894
vertex 0.000000 1.140950 0.608697
vertex -3.000000 1.140950 0.608697
endloop
endfacet
facet normal 0.000000 0.932126 -0.362135
outer loop
vertex 0.000000 1.140950 0.608697
vertex 0.000000 1.138580 0.602597
vertex -3.000000 1.140950 0.608697
endloop
endfacet
facet normal 0.000000 0.932117 -0.362157
outer loop
vertex -3.000000 1.140950 0.608697
vertex 0.000000 1.138580 0.602597
vertex -3.000000 1.138580 0.602597
endloop
endfacet
facet normal 0.000000 0.915625 -0.402033
outer loop
vertex 0.000000 1.138580 0.602597
vertex 0.000000 1.135950 0.596607
vertex -3.000000 1.138580 0.602597
endloop
endfacet
facet normal 0.000000 0.915625 -0.402033
outer loop
vertex -3.000000 1.138580 0.602597
vertex 0.000000 1.135950 0.596607
vertex -3.000000 1.135950 0.596607
endloop
endfacet
facet normal 0.000000 0.896538 -0.442967
outer loop
vertex 0.000000 1.135950 0.596607
vertex 0.000000 1.133050 0.590738
vertex -3.000000 1.135950 0.596607
endloop
endfacet
facet normal 0.000000 0.896519 -0.443006
outer loop
vertex -3.000000 1.135950 0.596607
vertex 0.000000 1.133050 0.590738
vertex -3.000000 1.133050 0.590738
endloop
endfacet
facet normal 0.000000 0.876598 -0.481224
outer loop
vertex 0.000000 1.133050 0.590738
vertex 0.000000 1.129900 0.585000
vertex -3.000000 1.133050 0.590738
endloop
endfacet
facet normal 0.000000 0.876598 -0.481224
outer loop
vertex -3.000000 1.133050 0.590738
vertex 0.000000 1.129900 0.585000
vertex -3.000000 1.129900 0.585000
endloop
endfacet
facet normal 0.000000 0.855269 -0.518184
outer loop
vertex 0.000000 1.129900 0.585000
vertex 0.000000 1.126510 0.579405
vertex -3.000000 1.129900 0.585000
endloop
endfacet
facet normal 0.000000 0.855248 -0.518219
outer loop
vertex -3.000000 1.129900 0.585000
vertex 0.000000 1.126510 0.579405
vertex -3.000000 1.126510 0.579405
endloop
endfacet
facet normal 0.000000 0.831167 -0.556023
outer loop
vertex 0.000000 1.126510 0.579405
vertex 0.000000 1.122870 0.573964
vertex -3.000000 1.126510 0.579405
endloop
endfacet
facet normal 0.000000 0.831144 -0.556057
outer loop
vertex -3.000000 1.126510 0.579405
vertex 0.000000 1.122870 0.573964
vertex -3.000000 1.122870 0.573964
endloop
endfacet
facet normal 0.000000 0.806443 -0.591312
outer loop
vertex 0.000000 1.122870 0.573964
vertex 0.000000 1.119000 0.568686
vertex -3.000000 1.122870 0.573964
endloop
endfacet
facet normal 0.000000 0.806443 -0.591312
outer loop
vertex -3.000000 1.122870 0.573964
vertex 0.000000 1.119000 0.568686
vertex -3.000000 1.119000 0.568686
endloop
endfacet
facet normal 0.000000 0.780374 -0.625313
outer loop
vertex 0.000000 1.119000 0.568686
vertex 0.000000 1.114910 0.563582
vertex -3.000000 1.119000 0.568686
endloop
endfacet
facet normal 0.000000 0.780351 -0.625342
outer loop
vertex -3.000000 1.119000 0.568686
vertex 0.000000 1.114910 0.563582
vertex -3.000000 1.114910 0.563582
endloop
endfacet
facet normal 0.000000 0.751521 -0.659709
outer loop
vertex 0.000000 1.114910 0.563582
vertex 0.000000 1.110590 0.558661
vertex -3.000000 1.114910 0.563582
endloop
endfacet
facet normal 0.000000 0.751497 -0.659737
outer loop
vertex -3.000000 1.114910 0.563582
vertex 0.000000 1.110590 0.558661
vertex -3.000000 1.110590 0.558661
endloop
endfacet
facet normal 0.000000 0.722760 -0.691099
outer loop
vertex 0.000000 1.110590 0.558661
vertex 0.000000 1.106070 0.553934
vertex -3.000000 1.110590 0.558661
endloop
endfacet
facet normal 0.000000 0.722760 -0.691099
outer loop
vertex -3.000000 1.110590 0.558661
vertex 0.000000 1.106070 0.553934
vertex -3.000000 1.106070 0.553934
endloop
endfacet
facet normal 0.000000 0.691358 -0.722512
outer loop
vertex 0.000000 1.106070 0.553934
vertex 0.000000 1.101340 0.549408
vertex -3.000000 1.106070 0.553934
endloop
endfacet
facet normal 0.000000 0.691346 -0.722524
outer loop
vertex -3.000000 1.106070 0.553934
vertex 0.000000 1.101340 0.549408
vertex -3.000000 1.101340 0.549408
endloop
endfacet
facet normal 0.000000 0.659371 -0.751818
outer loop
vertex 0.000000 1.101340 0.549408
vertex 0.000000 1.096420 0.545093
vertex -3.000000 1.101340 0.549408
endloop
endfacet
facet normal 0.000000 0.659371 -0.751818
outer loop
vertex -3.000000 1.101340 0.549408
vertex 0.000000 1.096420 0.545093
vertex -3.000000 1.096420 0.545093
endloop
endfacet
facet normal 0.000000 0.625441 -0.780271
outer loop
vertex 0.000000 1.096420 0.545093
vertex 0.000000 1.091310 0.540997
vertex -3.000000 1.096420 0.545093
endloop
endfacet
facet normal 0.000000 0.625429 -0.780281
outer loop
vertex -3.000000 1.096420 0.545093
vertex 0.000000 1.091310 0.540997
vertex -3.000000 1.091310 0.540997
endloop
endfacet
facet normal 0.000000 0.591895 -0.806015
outer loop
vertex 0.000000 1.091310 0.540997
vertex 0.000000 1.086040 0.537127
vertex -3.000000 1.091310 0.540997
endloop
endfacet
facet normal 0.000000 0.591895 -0.806015
outer loop
vertex -3.000000 1.091310 0.540997
vertex 0.000000 1.086040 0.537127
vertex -3.000000 1.086040 0.537127
endloop
endfacet
facet normal 0.000000 0.554987 -0.831859
outer loop
vertex 0.000000 1.086040 0.537127
vertex 0.000000 1.080590 0.533491
vertex -3.000000 1.086040 0.537127
endloop
endfacet
facet normal 0.000000 0.554976 -0.831866
outer loop
vertex -3.000000 1.086040 0.537127
vertex 0.000000 1.080590 0.533491
vertex -3.000000 1.080590 0.533491
endloop
endfacet
facet normal 0.000000 0.519103 -0.854712
outer loop
vertex 0.000000 1.080590 0.533491
vertex 0.000000 1.075000 0.530096
vertex -3.000000 1.080590 0.533491
endloop
endfacet
facet normal 0.000000 0.519103 -0.854712
outer loop
vertex -3.000000 1.080590 0.533491
vertex 0.000000 1.075000 0.530096
vertex -3.000000 1.075000 0.530096
endloop
endfacet
facet normal 0.000000 0.480854 -0.876800
outer loop
vertex 0.000000 1.075000 0.530096
vertex 0.000000 1.069260 0.526948
vertex -3.000000 1.075000 0.530096
endloop
endfacet
facet normal 0.000000 0.480865 -0.876795
outer loop
vertex -3.000000 1.075000 0.530096
vertex 0.000000 1.069260 0.526948
vertex -3.000000 1.069260 0.526948
endloop
endfacet
facet normal 0.000000 0.442191 -0.896921
outer loop
vertex 0.000000 1.069260 0.526948
vertex 0.000000 1.063390 0.524054
vertex -3.000000 1.069260 0.526948
endloop
endfacet
facet normal 0.000000 0.442201 -0.896916
outer loop
vertex -3.000000 1.069260 0.526948
vertex 0.000000 1.063390 0.524054
vertex -3.000000 1.063390 0.524054
endloop
endfacet
facet normal 0.000000 0.402790 -0.915292
outer loop
vertex 0.000000 1.063390 0.524054
vertex 0.000000 1.057400 0.521418
vertex -3.000000 1.063390 0.524054
endloop
endfacet
facet normal 0.000000 0.402790 -0.915292
outer loop
vertex -3.000000 1.063390 0.524054
vertex 0.000000 1.057400 0.521418
vertex -3.000000 1.057400 0.521418
endloop
endfacet
facet normal 0.000000 0.362420 -0.932015
outer loop
vertex 0.000000 1.057400 0.521418
vertex 0.000000 1.051300 0.519046
vertex -3.000000 1.057400 0.521418
endloop
endfacet
facet normal 0.000000 0.362411 -0.932018
outer loop
vertex -3.000000 1.057400 0.521418
vertex 0.000000 1.051300 0.519046
vertex -3.000000 1.051300 0.519046
endloop
endfacet
facet normal 0.000000 0.321819 -0.946801
outer loop
vertex 0.000000 1.051300 0.519046
vertex 0.000000 1.045110 0.516942
vertex -3.000000 1.051300 0.519046
endloop
endfacet
facet normal 0.000000 0.321812 -0.946804
outer loop
vertex -3.000000 1.051300 0.519046
vertex 0.000000 1.045110 0.516942
vertex -3.000000 1.045110 0.516942
endloop
endfacet
facet normal 0.000000 0.279497 -0.960147
outer loop
vertex 0.000000 1.045110 0.516942
vertex 0.000000 1.038820 0.515111
vertex -3.000000 1.045110 0.516942
endloop
endfacet
facet normal 0.000000 0.279497 -0.960147
outer loop
vertex -3.000000 1.045110 0.516942
vertex 0.000000 1.038820 0.515111
vertex -3.000000 1.038820 0.515111
endloop
endfacet
facet normal 0.000000 0.237856 -0.971300
outer loop
vertex 0.000000 1.038820 0.515111
vertex 0.000000 1.032470 0.513556
vertex -3.000000 1.038820 0.515111
endloop
endfacet
facet normal 0.000000 0.237856 -0.971300
outer loop
vertex -3.000000 1.038820 0.515111
vertex 0.000000 1.032470 0.513556
vertex -3.000000 1.032470 0.513556
endloop
endfacet
facet normal 0.000000 0.195088 -0.980786
outer loop
vertex 0.000000 1.032470 0.513556
vertex 0.000000 1.026050 0.512279
vertex -3.000000 1.032470 0.513556
endloop
endfacet
facet normal 0.000000 0.195093 -0.980785
outer loop
vertex -3.000000 1.032470 0.513556
vertex 0.000000 1.026050 0.512279
vertex -3.000000 1.026050 0.512279
endloop
endfacet
facet normal 0.000000 0.152151 -0.988357
outer loop
vertex 0.000000 1.026050 0.512279
vertex 0.000000 1.019580 0.511283
vertex -3.000000 1.026050 0.512279
endloop
endfacet
facet normal 0.000000 0.152151 -0.988357
outer loop
vertex -3.000000 1.026050 0.512279
vertex 0.000000 1.019580 0.511283
vertex -3.000000 1.019580 0.511283
endloop
endfacet
facet normal 0.000000 0.108717 -0.994073
outer loop
vertex 0.000000 1.019580 0.511283
vertex 0.000000 1.013070 0.510571
vertex -3.000000 1.019580 0.511283
endloop
endfacet
facet normal 0.000000 0.108717 -0.994073
outer loop
vertex -3.000000 1.019580 0.511283
vertex 0.000000 1.013070 0.510571
vertex -3.000000 1.013070 0.510571
endloop
endfacet
facet normal 0.000000 0.065407 -0.997859
outer loop
vertex 0.000000 1.013070 0.510571
vertex 0.000000 1.006540 0.510143
vertex -3.000000 1.013070 0.510571
endloop
endfacet
facet normal 0.000000 0.065407 -0.997859
outer loop
vertex -3.000000 1.013070 0.510571
vertex 0.000000 1.006540 0.510143
vertex -3.000000 1.006540 0.510143
endloop
endfacet
facet normal 0.000000 0.021858 -0.999761
outer loop
vertex 0.000000 1.006540 0.510143
vertex 0.000000 1.000000 0.510000
vertex -3.000000 1.006540 0.510143
endloop
endfacet
facet normal 0.000000 0.021860 -0.999761
outer loop
vertex -3.000000 1.006540 0.510143
vertex 0.000000 1.000000 0.510000
vertex -3.000000 1.000000 0.510000
endloop
endfacet
facet normal 0.000000 -0.021849 -0.999761
outer loop
vertex 0.000000 1.000000 0.510000
vertex 0.000000 0.993457 0.510143
vertex -3.000000 1.000000 0.510000
endloop
endfacet
facet normal 0.000000 -0.021848 -0.999761
outer loop
vertex -3.000000 1.000000 0.510000
vertex 0.000000 0.993457 0.510143
vertex -3.000000 0.993457 0.510143
endloop
endfacet
facet normal 0.000000 -0.065407 -0.997859
outer loop
vertex 0.000000 0.993457 0.510143
vertex 0.000000 0.986927 0.510571
vertex -3.000000 0.993457 0.510143
endloop
endfacet
facet normal 0.000000 -0.065405 -0.997859
outer loop
vertex -3.000000 0.993457 0.510143
vertex 0.000000 0.986927 0.510571
vertex -3.000000 0.986927 0.510571
endloop
endfacet
facet normal 0.000000 -0.108785 -0.994065
outer loop
vertex 0.000000 0.986927 0.510571
vertex 0.000000 0.980421 0.511283
vertex -3.000000 0.986927 0.510571
endloop
endfacet
facet normal 0.000000 -0.108785 -0.994065
outer loop
vertex -3.000000 0.986927 0.510571
vertex 0.000000 0.980421 0.511283
vertex -3.000000 0.980421 0.511283
endloop
endfacet
facet normal 0.000000 -0.152195 -0.988351
outer loop
vertex 0.000000 0.980421 0.511283
vertex 0.000000 0.973953 0.512279
vertex -3.000000 0.980421 0.511283
endloop
endfacet
facet normal 0.000000 -0.152195 -0.988351
outer loop
vertex -3.000000 0.980421 0.511283
vertex 0.000000 0.973953 0.512279
vertex -3.000000 0.973953 0.512279
endloop
endfacet
facet normal 0.000000 -0.195121 -0.980779
outer loop
vertex 0.000000 0.973953 0.512279
vertex 0.000000 0.967534 0.513556
vertex -3.000000 0.973953 0.512279
endloop
endfacet
facet normal 0.000000 -0.195121 -0.980779
outer loop
vertex -3.000000 0.973953 0.512279
vertex 0.000000 0.967534 0.513556
vertex -3.000000 0.967534 0.513556
endloop
endfacet
facet normal 0.000000 -0.237609 -0.971361
outer loop
vertex 0.000000 0.967534 0.513556
vertex 0.000000 0.961177 0.515111
vertex -3.000000 0.967534 0.513556
endloop
endfacet
facet normal 0.000000 -0.237615 -0.971359
outer loop
vertex -3.000000 0.967534 0.513556
vertex 0.000000 0.961177 0.515111
vertex -3.000000 0.961177 0.515111
endloop
endfacet
facet normal 0.000000 -0.279777 -0.960065
outer loop
vertex 0.000000 0.961177 0.515111
vertex 0.000000 0.954894 0.516942
vertex -3.000000 0.961177 0.515111
endloop
endfacet
facet normal 0.000000 -0.279784 -0.960063
outer loop
vertex -3.000000 0.961177 0.515111
vertex 0.000000 0.954894 0.516942
vertex -3.000000 0.954894 0.516942
endloop
endfacet
facet normal 0.000000 -0.321486 -0.946914
outer loop
vertex 0.000000 0.954894 0.516942
vertex 0.000000 0.948697 0.519046
vertex -3.000000 0.954894 0.516942
endloop
endfacet
facet normal 0.000000 -0.321494 -0.946912
outer loop
vertex -3.000000 0.954894 0.516942
vertex 0.000000 0.948697 0.519046
vertex -3.000000 0.948697 0.519046
endloop
endfacet
facet normal 0.000000 -0.362469 -0.931996
outer loop
vertex 0.000000 0.948697 0.519046
vertex 0.000000 0.942598 0.521418
vertex -3.000000 0.948697 0.519046
endloop
endfacet
facet normal 0.000000 -0.362469 -0.931996
outer loop
vertex -3.000000 0.948697 0.519046
vertex 0.000000 0.942598 0.521418
vertex -3.000000 0.942598 0.521418
endloop
endfacet
facet normal 0.000000 -0.402736 -0.915316
outer loop
vertex 0.000000 0.942598 0.521418
vertex 0.000000 0.936607 0.524054
vertex -3.000000 0.942598 0.521418
endloop
endfacet
facet normal 0.000000 -0.402736 -0.915316
outer loop
vertex -3.000000 0.942598 0.521418
vertex 0.000000 0.936607 0.524054
vertex -3.000000 0.936607 0.524054
endloop
endfacet
facet normal 0.000000 -0.442249 -0.896892
outer loop
vertex 0.000000 0.936607 0.524054
vertex 0.000000 0.930738 0.526948
vertex -3.000000 0.936607 0.524054
endloop
endfacet
facet normal 0.000000 -0.442249 -0.896892
outer loop
vertex -3.000000 0.936607 0.524054
vertex 0.000000 0.930738 0.526948
vertex -3.000000 0.930738 0.526948
endloop
endfacet
facet normal 0.000000 -0.480998 -0.876722
outer loop
vertex 0.000000 0.930738 0.526948
vertex 0.000000 0.925000 0.530096
vertex -3.000000 0.930738 0.526948
endloop
endfacet
facet normal 0.000000 -0.480998 -0.876722
outer loop
vertex -3.000000 0.930738 0.526948
vertex 0.000000 0.925000 0.530096
vertex -3.000000 0.925000 0.530096
endloop
endfacet
facet normal 0.000000 -0.518747 -0.854928
outer loop
vertex 0.000000 0.925000 0.530096
vertex 0.000000 0.919405 0.533491
vertex -3.000000 0.925000 0.530096
endloop
endfacet
facet normal 0.000000 -0.518769 -0.854915
outer loop
vertex -3.000000 0.925000 0.530096
vertex 0.000000 0.919405 0.533491
vertex -3.000000 0.919405 0.533491
endloop
endfacet
facet normal 0.000000 -0.555615 -0.831440
outer loop
vertex 0.000000 0.919405 0.533491
vertex 0.000000 0.913964 0.537127
vertex -3.000000 0.919405 0.533491
endloop
endfacet
facet normal 0.000000 -0.555615 -0.831440
outer loop
vertex -3.000000 0.919405 0.533491
vertex 0.000000 0.913964 0.537127
vertex -3.000000 0.913964 0.537127
endloop
endfacet
facet normal 0.000000 -0.591315 -0.806441
outer loop
vertex 0.000000 0.913964 0.537127
vertex 0.000000 0.908686 0.540997
vertex -3.000000 0.913964 0.537127
endloop
endfacet
facet normal 0.000000 -0.591315 -0.806441
outer loop
vertex -3.000000 0.913964 0.537127
vertex 0.000000 0.908686 0.540997
vertex -3.000000 0.908686 0.540997
endloop
endfacet
facet normal 0.000000 -0.625879 -0.779920
outer loop
vertex 0.000000 0.908686 0.540997
vertex 0.000000 0.903582 0.545093
vertex -3.000000 0.908686 0.540997
endloop
endfacet
facet normal 0.000000 -0.625879 -0.779920
outer loop
vertex -3.000000 0.908686 0.540997
vertex 0.000000 0.903582 0.545093
vertex -3.000000 0.903582 0.545093
endloop
endfacet
facet normal 0.000000 -0.659299 -0.751881
outer loop
vertex 0.000000 0.903582 0.545093
vertex 0.000000 0.898661 0.549408
vertex -3.000000 0.903582 0.545093
endloop
endfacet
facet normal 0.000000 -0.659299 -0.751881
outer loop
vertex -3.000000 0.903582 0.545093
vertex 0.000000 0.898661 0.549408
vertex -3.000000 0.898661 0.549408
endloop
endfacet
facet normal 0.000000 -0.691589 -0.722291
outer loop
vertex 0.000000 0.898661 0.549408
vertex 0.000000 0.893934 0.553934
vertex -3.000000 0.898661 0.549408
endloop
endfacet
facet normal 0.000000 -0.691577 -0.722303
outer loop
vertex -3.000000 0.898661 0.549408
vertex 0.000000 0.893934 0.553934
vertex -3.000000 0.893934 0.553934
endloop
endfacet
facet normal 0.000000 -0.722299 -0.691581
outer loop
vertex 0.000000 0.893934 0.553934
vertex 0.000000 0.889408 0.558661
vertex -3.000000 0.893934 0.553934
endloop
endfacet
facet normal 0.000000 -0.722287 -0.691594
outer loop
vertex -3.000000 0.893934 0.553934
vertex 0.000000 0.889408 0.558661
vertex -3.000000 0.889408 0.558661
endloop
endfacet
facet normal 0.000000 -0.751894 -0.659284
outer loop
vertex 0.000000 0.889408 0.558661
vertex 0.000000 0.885093 0.563582
vertex -3.000000 0.889408 0.558661
endloop
endfacet
facet normal 0.000000 -0.751882 -0.659298
outer loop
vertex -3.000000 0.889408 0.558661
vertex 0.000000 0.885093 0.563582
vertex -3.000000 0.885093 0.563582
endloop
endfacet
facet normal 0.000000 -0.779912 -0.625889
outer loop
vertex 0.000000 0.885093 0.563582
vertex 0.000000 0.880997 0.568686
vertex -3.000000 0.885093 0.563582
endloop
endfacet
facet normal 0.000000 -0.779924 -0.625875
outer loop
vertex -3.000000 0.885093 0.563582
vertex 0.000000 0.880997 0.568686
vertex -3.000000 0.880997 0.568686
endloop
endfacet
facet normal 0.000000 -0.806443 -0.591312
outer loop
vertex 0.000000 0.880997 0.568686
vertex 0.000000 0.877127 0.573964
vertex -3.000000 0.880997 0.568686
endloop
endfacet
facet normal 0.000000 -0.806443 -0.591312
outer loop
vertex -3.000000 0.880997 0.568686
vertex 0.000000 0.877127 0.573964
vertex -3.000000 0.877127 0.573964
endloop
endfacet
facet normal 0.000000 -0.831436 -0.555620
outer loop
vertex 0.000000 0.877127 0.573964
vertex 0.000000 0.873491 0.579405
vertex -3.000000 0.877127 0.573964
endloop
endfacet
facet normal 0.000000 -0.831436 -0.555620
outer loop
vertex -3.000000 0.877127 0.573964
vertex 0.000000 0.873491 0.579405
vertex -3.000000 0.873491 0.579405
endloop
endfacet
facet normal 0.000000 -0.854925 -0.518752
outer loop
vertex 0.000000 0.873491 0.579405
vertex 0.000000 0.870096 0.585000
vertex -3.000000 0.873491 0.579405
endloop
endfacet
facet normal 0.000000 -0.854925 -0.518752
outer loop
vertex -3.000000 0.873491 0.579405
vertex 0.000000 0.870096 0.585000
vertex -3.000000 0.870096 0.585000
endloop
endfacet
facet normal 0.000000 -0.876721 -0.481000
outer loop
vertex 0.000000 0.870096 0.585000
vertex 0.000000 0.866948 0.590738
vertex -3.000000 0.870096 0.585000
endloop
endfacet
facet normal 0.000000 -0.876721 -0.481000
outer loop
vertex -3.000000 0.870096 0.585000
vertex 0.000000 0.866948 0.590738
vertex -3.000000 0.866948 0.590738
endloop
endfacet
facet normal 0.000000 -0.896904 -0.442225
outer loop
vertex 0.000000 0.866948 0.590738
vertex 0.000000 0.864054 0.596607
vertex -3.000000 0.866948 0.590738
endloop
endfacet
facet normal 0.000000 -0.896885 -0.442264
outer loop
vertex -3.000000 0.866948 0.590738
vertex 0.000000 0.864054 0.596607
vertex -3.000000 0.864054 0.596607
endloop
endfacet
facet normal 0.000000 -0.915285 -0.402806
outer loop
vertex 0.000000 0.864054 0.596607
vertex 0.000000 0.861418 0.602597
vertex -3.000000 0.864054 0.596607
endloop
endfacet
facet normal 0.000000 -0.915294 -0.402786
outer loop
vertex -3.000000 0.864054 0.596607
vertex 0.000000 0.861418 0.602597
vertex -3.000000 0.861418 0.602597
endloop
endfacet
facet normal 0.000000 -0.932019 -0.362410
outer loop
vertex 0.000000 0.861418 0.602597
vertex 0.000000 0.859046 0.608697
vertex -3.000000 0.861418 0.602597
endloop
endfacet
facet normal 0.000000 -0.932011 -0.362431
outer loop
vertex -3.000000 0.861418 0.602597
vertex 0.000000 0.859046 0.608697
vertex -3.000000 0.859046 0.608697
endloop
endfacet
facet normal 0.000000 -0.946905 -0.321513
outer loop
vertex 0.000000 0.859046 0.608697
vertex 0.000000 0.856942 0.614894
vertex -3.000000 0.859046 0.608697
endloop
endfacet
facet normal 0.000000 -0.946920 -0.321469
outer loop
vertex -3.000000 0.859046 0.608697
vertex 0.000000 0.856942 0.614894
vertex -3.000000 0.856942 0.614894
endloop
endfacet
facet normal 0.000000 -0.960062 -0.279789
outer loop
vertex 0.000000 0.856942 0.614894
vertex 0.000000 0.855111 0.621177
vertex -3.000000 0.856942 0.614894
endloop
endfacet
facet normal 0.000000 -0.960062 -0.279789
outer loop
vertex -3.000000 0.856942 0.614894
vertex 0.000000 0.855111 0.621177
vertex -3.000000 0.855111 0.621177
endloop
endfacet
facet normal 0.000000 -0.971368 -0.237581
outer loop
vertex 0.000000 0.855111 0.621177
vertex 0.000000 0.853556 0.627534
vertex -3.000000 0.855111 0.621177
endloop
endfacet
facet normal 0.000000 -0.971357 -0.237626
outer loop
vertex -3.000000 0.855111 0.621177
vertex 0.000000 0.853556 0.627534
vertex -3.000000 0.853556 0.627534
endloop
endfacet
facet normal 0.000000 -0.980781 -0.195112
outer loop
vertex 0.000000 0.853556 0.627534
vertex 0.000000 0.852279 0.633953
vertex -3.000000 0.853556 0.627534
endloop
endfacet
facet normal 0.000000 -0.980781 -0.195112
outer loop
vertex -3.000000 0.853556 0.627534
vertex 0.000000 0.852279 0.633953
vertex -3.000000 0.852279 0.633953
endloop
endfacet
facet normal 0.000000 -0.988352 -0.152188
outer loop
vertex 0.000000 0.852279 0.633953
vertex 0.000000 0.851283 0.640421
vertex -3.000000 0.852279 0.633953
endloop
endfacet
facet normal 0.000000 -0.988348 -0.152212
outer loop
vertex -3.000000 0.852279 0.633953
vertex 0.000000 0.851283 0.640421
vertex -3.000000 0.851283 0.640421
endloop
endfacet
facet normal 0.000000 -0.994066 -0.108775
outer loop
vertex 0.000000 0.851283 0.640421
vertex 0.000000 0.850571 0.646927
vertex -3.000000 0.851283 0.640421
endloop
endfacet
facet normal 0.000000 -0.994064 -0.108799
outer loop
vertex -3.000000 0.851283 0.640421
vertex 0.000000 0.850571 0.646927
vertex -3.000000 0.850571 0.646927
endloop
endfacet
facet normal 0.000000 -0.997859 -0.065410
outer loop
vertex 0.000000 0.850571 0.646927
vertex 0.000000 0.850143 0.653457
vertex -3.000000 0.850571 0.646927
endloop
endfacet
facet normal 0.000000 -0.997860 -0.065385
outer loop
vertex -3.000000 0.850571 0.646927
vertex 0.000000 0.850143 0.653457
vertex -3.000000 0.850143 0.653457
endloop
endfacet
facet normal 0.000000 -0.999762 -0.021834
outer loop
vertex 0.000000 0.850143 0.653457
vertex 0.000000 0.850000 0.660000
vertex -3.000000 0.850143 0.653457
endloop
endfacet
facet normal 0.000000 -0.999761 -0.021858
outer loop
vertex -3.000000 0.850143 0.653457
vertex 0.000000 0.850000 0.660000
vertex -3.000000 0.850000 0.660000
endloop
endfacet
facet normal 0.000000 -0.999761 0.021858
outer loop
vertex 0.000000 0.850000 0.660000
vertex 0.000000 0.850143 0.666543
vertex -3.000000 0.850000 0.660000
endloop
endfacet
facet normal 0.000000 -0.999762 0.021834
outer loop
vertex -3.000000 0.850000 0.660000
vertex 0.000000 0.850143 0.666543
vertex -3.000000 0.850143 0.666543
endloop
endfacet
facet normal 0.000000 -0.997860 0.065385
outer loop
vertex 0.000000 0.850143 0.666543
vertex 0.000000 0.850571 0.673073
vertex -3.000000 0.850143 0.666543
endloop
endfacet
facet normal 0.000000 -0.997859 0.065410
outer loop
vertex -3.000000 0.850143 0.666543
vertex 0.000000 0.850571 0.673073
vertex -3.000000 0.850571 0.673073
endloop
endfacet
facet normal 0.000000 -0.994064 0.108799
outer loop
vertex 0.000000 0.850571 0.673073
vertex 0.000000 0.851283 0.679579
vertex -3.000000 0.850571 0.673073
endloop
endfacet
facet normal 0.000000 -0.994066 0.108775
outer loop
vertex -3.000000 0.850571 0.673073
vertex 0.000000 0.851283 0.679579
vertex -3.000000 0.851283 0.679579
endloop
endfacet
facet normal 0.000000 -0.988348 0.152212
outer loop
vertex 0.000000 0.851283 0.679579
vertex 0.000000 0.852279 0.686047
vertex -3.000000 0.851283 0.679579
endloop
endfacet
facet normal 0.000000 -0.988352 0.152188
outer loop
vertex -3.000000 0.851283 0.679579
vertex 0.000000 0.852279 0.686047
vertex -3.000000 0.852279 0.686047
endloop
endfacet
facet normal 0.000000 -0.980781 0.195112
outer loop
vertex 0.000000 0.852279 0.686047
vertex 0.000000 0.853556 0.692466
vertex -3.000000 0.852279 0.686047
endloop
endfacet
facet normal 0.000000 -0.980781 0.195112
outer loop
vertex -3.000000 0.852279 0.686047
vertex 0.000000 0.853556 0.692466
vertex -3.000000 0.853556 0.692466
endloop
endfacet
facet normal 0.000000 -0.971357 0.237626
outer loop
vertex 0.000000 0.853556 0.692466
vertex 0.000000 0.855111 0.698823
vertex -3.000000 0.853556 0.692466
endloop
endfacet
facet normal 0.000000 -0.971368 0.237581
outer loop
vertex -3.000000 0.853556 0.692466
vertex 0.000000 0.855111 0.698823
vertex -3.000000 0.855111 0.698823
endloop
endfacet
facet normal 0.000000 -0.960062 0.279789
outer loop
vertex 0.000000 0.855111 0.698823
vertex 0.000000 0.856942 0.705106
vertex -3.000000 0.855111 0.698823
endloop
endfacet
facet normal 0.000000 -0.960062 0.279789
outer loop
vertex -3.000000 0.855111 0.698823
vertex 0.000000 0.856942 0.705106
vertex -3.000000 0.856942 0.705106
endloop
endfacet
facet normal 0.000000 -0.946920 0.321469
outer loop
vertex 0.000000 0.856942 0.705106
vertex 0.000000 0.859046 0.711303
vertex -3.000000 0.856942 0.705106
endloop
endfacet
facet normal 0.000000 -0.946905 0.321513
outer loop
vertex -3.000000 0.856942 0.705106
vertex 0.000000 0.859046 0.711303
vertex -3.000000 0.859046 0.711303
endloop
endfacet
facet normal 0.000000 -0.932011 0.362431
outer loop
vertex 0.000000 0.859046 0.711303
vertex 0.000000 0.861418 0.717403
vertex -3.000000 0.859046 0.711303
endloop
endfacet
facet normal 0.000000 -0.932019 0.362410
outer loop
vertex -3.000000 0.859046 0.711303
vertex 0.000000 0.861418 0.717403
vertex -3.000000 0.861418 0.717403
endloop
endfacet
facet normal 0.000000 -0.915296 0.402783
outer loop
vertex 0.000000 0.861418 0.717403
vertex 0.000000 0.864054 0.723393
vertex -3.000000 0.861418 0.717403
endloop
endfacet
facet normal 0.000000 -0.915287 0.402803
outer loop
vertex -3.000000 0.861418 0.717403
vertex 0.000000 0.864054 0.723393
vertex -3.000000 0.864054 0.723393
endloop
endfacet
facet normal 0.000000 -0.896883 0.442267
outer loop
vertex 0.000000 0.864054 0.723393
vertex 0.000000 0.866948 0.729262
vertex -3.000000 0.864054 0.723393
endloop
endfacet
facet normal 0.000000 -0.896903 0.442228
outer loop
vertex -3.000000 0.864054 0.723393
vertex 0.000000 0.866948 0.729262
vertex -3.000000 0.866948 0.729262
endloop
endfacet
facet normal 0.000000 -0.876721 0.481000
outer loop
vertex 0.000000 0.866948 0.729262
vertex 0.000000 0.870096 0.735000
vertex -3.000000 0.866948 0.729262
endloop
endfacet
facet normal 0.000000 -0.876721 0.481000
outer loop
vertex -3.000000 0.866948 0.729262
vertex 0.000000 0.870096 0.735000
vertex -3.000000 0.870096 0.735000
endloop
endfacet
facet normal 0.000000 -0.854925 0.518752
outer loop
vertex 0.000000 0.870096 0.735000
vertex 0.000000 0.873491 0.740595
vertex -3.000000 0.870096 0.735000
endloop
endfacet
facet normal 0.000000 -0.854925 0.518752
outer loop
vertex -3.000000 0.870096 0.735000
vertex 0.000000 0.873491 0.740595
vertex -3.000000 0.873491 0.740595
endloop
endfacet
facet normal 0.000000 -0.831436 0.555620
outer loop
vertex 0.000000 0.873491 0.740595
vertex 0.000000 0.877127 0.746036
vertex -3.000000 0.873491 0.740595
endloop
endfacet
facet normal 0.000000 -0.831436 0.555620
outer loop
vertex -3.000000 0.873491 0.740595
vertex 0.000000 0.877127 0.746036
vertex -3.000000 0.877127 0.746036
endloop
endfacet
facet normal 0.000000 -0.806443 0.591312
outer loop
vertex 0.000000 0.877127 0.746036
vertex 0.000000 0.880997 0.751314
vertex -3.000000 0.877127 0.746036
endloop
endfacet
facet normal 0.000000 -0.806443 0.591312
outer loop
vertex -3.000000 0.877127 0.746036
vertex 0.000000 0.880997 0.751314
vertex -3.000000 0.880997 0.751314
endloop
endfacet
facet normal 0.000000 -0.779924 0.625875
outer loop
vertex 0.000000 0.880997 0.751314
vertex 0.000000 0.885093 0.756418
vertex -3.000000 0.880997 0.751314
endloop
endfacet
facet normal 0.000000 -0.779912 0.625889
outer loop
vertex -3.000000 0.880997 0.751314
vertex 0.000000 0.885093 0.756418
vertex -3.000000 0.885093 0.756418
endloop
endfacet
facet normal 0.000000 -0.751882 0.659298
outer loop
vertex 0.000000 0.885093 0.756418
vertex 0.000000 0.889408 0.761339
vertex -3.000000 0.885093 0.756418
endloop
endfacet
facet normal 0.000000 -0.751894 0.659284
outer loop
vertex -3.000000 0.885093 0.756418
vertex 0.000000 0.889408 0.761339
vertex -3.000000 0.889408 0.761339
endloop
endfacet
facet normal 0.000000 -0.722287 0.691594
outer loop
vertex 0.000000 0.889408 0.761339
vertex 0.000000 0.893934 0.766066
vertex -3.000000 0.889408 0.761339
endloop
endfacet
facet normal 0.000000 -0.722299 0.691581
outer loop
vertex -3.000000 0.889408 0.761339
vertex 0.000000 0.893934 0.766066
vertex -3.000000 0.893934 0.766066
endloop
endfacet
facet normal 0.000000 -0.691577 0.722303
outer loop
vertex 0.000000 0.893934 0.766066
vertex 0.000000 0.898661 0.770592
vertex -3.000000 0.893934 0.766066
endloop
endfacet
facet normal 0.000000 -0.691589 0.722291
outer loop
vertex -3.000000 0.893934 0.766066
vertex 0.000000 0.898661 0.770592
vertex -3.000000 0.898661 0.770592
endloop
endfacet
facet normal 0.000000 -0.659299 0.751881
outer loop
vertex 0.000000 0.898661 0.770592
vertex 0.000000 0.903582 0.774907
vertex -3.000000 0.898661 0.770592
endloop
endfacet
facet normal 0.000000 -0.659299 0.751881
outer loop
vertex -3.000000 0.898661 0.770592
vertex 0.000000 0.903582 0.774907
vertex -3.000000 0.903582 0.774907
endloop
endfacet
facet normal 0.000000 -0.625885 0.779915
outer loop
vertex 0.000000 0.903582 0.774907
vertex 0.000000 0.908686 0.779003
vertex -3.000000 0.903582 0.774907
endloop
endfacet
facet normal 0.000000 -0.625885 0.779915
outer loop
vertex -3.000000 0.903582 0.774907
vertex 0.000000 0.908686 0.779003
vertex -3.000000 0.908686 0.779003
endloop
endfacet
facet normal 0.000000 -0.591309 0.806445
outer loop
vertex 0.000000 0.908686 0.779003
vertex 0.000000 0.913964 0.782873
vertex -3.000000 0.908686 0.779003
endloop
endfacet
facet normal 0.000000 -0.591309 0.806445
outer loop
vertex -3.000000 0.908686 0.779003
vertex 0.000000 0.913964 0.782873
vertex -3.000000 0.913964 0.782873
endloop
endfacet
facet normal 0.000000 -0.555615 0.831440
outer loop
vertex 0.000000 0.913964 0.782873
vertex 0.000000 0.919405 0.786509
vertex -3.000000 0.913964 0.782873
endloop
endfacet
facet normal 0.000000 -0.555615 0.831440
outer loop
vertex -3.000000 0.913964 0.782873
vertex 0.000000 0.919405 0.786509
vertex -3.000000 0.919405 0.786509
endloop
endfacet
facet normal 0.000000 -0.518769 0.854915
outer loop
vertex 0.000000 0.919405 0.786509
vertex 0.000000 0.925000 0.789904
vertex -3.000000 0.919405 0.786509
endloop
endfacet
facet normal 0.000000 -0.518747 0.854928
outer loop
vertex -3.000000 0.919405 0.786509
vertex 0.000000 0.925000 0.789904
vertex -3.000000 0.925000 0.789904
endloop
endfacet
facet normal 0.000000 -0.480998 0.876722
outer loop
vertex 0.000000 0.925000 0.789904
vertex 0.000000 0.930738 0.793052
vertex -3.000000 0.925000 0.789904
endloop
endfacet
facet normal 0.000000 -0.480998 0.876722
outer loop
vertex -3.000000 0.925000 0.789904
vertex 0.000000 0.930738 0.793052
vertex -3.000000 0.930738 0.793052
endloop
endfacet
facet normal 0.000000 -0.442249 0.896892
outer loop
vertex 0.000000 0.930738 0.793052
vertex 0.000000 0.936607 0.795946
vertex -3.000000 0.930738 0.793052
endloop
endfacet
facet normal 0.000000 -0.442249 0.896892
outer loop
vertex -3.000000 0.930738 0.793052
vertex 0.000000 0.936607 0.795946
vertex -3.000000 0.936607 0.795946
endloop
endfacet
facet normal 0.000000 -0.402736 0.915316
outer loop
vertex 0.000000 0.936607 0.795946
vertex 0.000000 0.942598 0.798582
vertex -3.000000 0.936607 0.795946
endloop
endfacet
facet normal 0.000000 -0.402736 0.915316
outer loop
vertex -3.000000 0.936607 0.795946
vertex 0.000000 0.942598 0.798582
vertex -3.000000 0.942598 0.798582
endloop
endfacet
facet normal 0.000000 -0.362469 0.931996
outer loop
vertex 0.000000 0.942598 0.798582
vertex 0.000000 0.948697 0.800954
vertex -3.000000 0.942598 0.798582
endloop
endfacet
facet normal 0.000000 -0.362469 0.931996
outer loop
vertex -3.000000 0.942598 0.798582
vertex 0.000000 0.948697 0.800954
vertex -3.000000 0.948697 0.800954
endloop
endfacet
facet normal 0.000000 -0.321502 0.946909
outer loop
vertex 0.000000 0.948697 0.800954
vertex 0.000000 0.954894 0.803058
vertex -3.000000 0.948697 0.800954
endloop
endfacet
facet normal 0.000000 -0.321494 0.946912
outer loop
vertex -3.000000 0.948697 0.800954
vertex 0.000000 0.954894 0.803058
vertex -3.000000 0.954894 0.803058
endloop
endfacet
facet normal 0.000000 -0.279784 0.960063
outer loop
vertex 0.000000 0.954894 0.803058
vertex 0.000000 0.961177 0.804889
vertex -3.000000 0.954894 0.803058
endloop
endfacet
facet normal 0.000000 -0.279777 0.960065
outer loop
vertex -3.000000 0.954894 0.803058
vertex 0.000000 0.961177 0.804889
vertex -3.000000 0.961177 0.804889
endloop
endfacet
facet normal 0.000000 -0.237606 0.971362
outer loop
vertex 0.000000 0.961177 0.804889
vertex 0.000000 0.967534 0.806444
vertex -3.000000 0.961177 0.804889
endloop
endfacet
facet normal 0.000000 -0.237601 0.971363
outer loop
vertex -3.000000 0.961177 0.804889
vertex 0.000000 0.967534 0.806444
vertex -3.000000 0.967534 0.806444
endloop
endfacet
facet normal 0.000000 -0.195121 0.980779
outer loop
vertex 0.000000 0.967534 0.806444
vertex 0.000000 0.973953 0.807721
vertex -3.000000 0.967534 0.806444
endloop
endfacet
facet normal 0.000000 -0.195121 0.980779
outer loop
vertex -3.000000 0.967534 0.806444
vertex 0.000000 0.973953 0.807721
vertex -3.000000 0.973953 0.807721
endloop
endfacet
facet normal 0.000000 -0.152195 0.988351
outer loop
vertex 0.000000 0.973953 0.807721
vertex 0.000000 0.980421 0.808717
vertex -3.000000 0.973953 0.807721
endloop
endfacet
facet normal 0.000000 -0.152195 0.988351
outer loop
vertex -3.000000 0.973953 0.807721
vertex 0.000000 0.980421 0.808717
vertex -3.000000 0.980421 0.808717
endloop
endfacet
facet normal 0.000000 -0.108785 0.994065
outer loop
vertex 0.000000 0.980421 0.808717
vertex 0.000000 0.986927 0.809429
vertex -3.000000 0.980421 0.808717
endloop
endfacet
facet normal 0.000000 -0.108785 0.994065
outer loop
vertex -3.000000 0.980421 0.808717
vertex 0.000000 0.986927 0.809429
vertex -3.000000 0.986927 0.809429
endloop
endfacet
facet normal 0.000000 -0.065405 0.997859
outer loop
vertex 0.000000 0.986927 0.809429
vertex 0.000000 0.993457 0.809857
vertex -3.000000 0.986927 0.809429
endloop
endfacet
facet normal 0.000000 -0.065407 0.997859
outer loop
vertex -3.000000 0.986927 0.809429
vertex 0.000000 0.993457 0.809857
vertex -3.000000 0.993457 0.809857
endloop
endfacet
facet normal 0.000000 -0.021848 0.999761
outer loop
vertex 0.000000 0.993457 0.809857
vertex 0.000000 1.000000 0.810000
vertex -3.000000 0.993457 0.809857
endloop
endfacet
facet normal 0.000000 -0.021849 0.999761
outer loop
vertex -3.000000 0.993457 0.809857
vertex 0.000000 1.000000 0.810000
vertex -3.000000 1.000000 0.810000
endloop
endfacet
facet normal 0.000000 0.021860 0.999761
outer loop
vertex 0.000000 1.000000 0.810000
vertex 0.000000 1.006540 0.809857
vertex -3.000000 1.000000 0.810000
endloop
endfacet
endsolid outletwall
