solid outlet
facet normal -1.000000 0.000000 0.000000
outer loop
vertex -3.000000 1.013070 0.510571
vertex -3.000000 1.006540 0.510143
vertex -3.000000 1.000000 0.660000
endloop
endfacet
facet normal -1.000000 0.000000 0.000000
outer loop
vertex -3.000000 1.006540 0.510143
vertex -3.000000 1.000000 0.510000
vertex -3.000000 1.000000 0.660000
endloop
endfacet
facet normal -1.000000 0.000000 0.000000
outer loop
vertex -3.000000 1.000000 0.660000
vertex -3.000000 1.000000 0.510000
vertex -3.000000 0.993457 0.510143
endloop
endfacet
facet normal -1.000000 0.000000 0.000000
outer loop
vertex -3.000000 1.032470 0.513556
vertex -3.000000 1.026050 0.512279
vertex -3.000000 1.000000 0.660000
endloop
endfacet
facet normal -1.000000 0.000000 0.000000
outer loop
vertex -3.000000 1.026050 0.512279
vertex -3.000000 1.019580 0.511283
vertex -3.000000 1.000000 0.660000
endloop
endfacet
facet normal -1.000000 0.000000 0.000000
outer loop
vertex -3.000000 1.000000 0.660000
vertex -3.000000 1.019580 0.511283
vertex -3.000000 1.013070 0.510571
endloop
endfacet
facet normal -1.000000 0.000000 0.000000
outer loop
vertex -3.000000 1.051300 0.519046
vertex -3.000000 1.045110 0.516942
vertex -3.000000 1.000000 0.660000
endloop
endfacet
facet normal -1.000000 0.000000 0.000000
outer loop
vertex -3.000000 1.045110 0.516942
vertex -3.000000 1.038820 0.515111
vertex -3.000000 1.000000 0.660000
endloop
endfacet
facet normal -1.000000 0.000000 0.000000
outer loop
vertex -3.000000 1.000000 0.660000
vertex -3.000000 1.038820 0.515111
vertex -3.000000 1.032470 0.513556
endloop
endfacet
facet normal -1.000000 0.000000 0.000000
outer loop
vertex -3.000000 1.069260 0.526948
vertex -3.000000 1.063390 0.524054
vertex -3.000000 1.000000 0.660000
endloop
endfacet
facet normal -1.000000 0.000000 0.000000
outer loop
vertex -3.000000 1.063390 0.524054
vertex -3.000000 1.057400 0.521418
vertex -3.000000 1.000000 0.660000
endloop
endfacet
facet normal -1.000000 0.000000 0.000000
outer loop
vertex -3.000000 1.000000 0.660000
vertex -3.000000 1.057400 0.521418
vertex -3.000000 1.051300 0.519046
endloop
endfacet
facet normal -1.000000 0.000000 0.000000
outer loop
vertex -3.000000 1.086040 0.537127
vertex -3.000000 1.080590 0.533491
vertex -3.000000 1.000000 0.660000
endloop
endfacet
facet normal -1.000000 0.000000 0.000000
outer loop
vertex -3.000000 1.080590 0.533491
vertex -3.000000 1.075000 0.530096
vertex -3.000000 1.000000 0.660000
endloop
endfacet
facet normal -1.000000 0.000000 0.000000
outer loop
vertex -3.000000 1.000000 0.660000
vertex -3.000000 1.075000 0.530096
vertex -3.000000 1.069260 0.526948
endloop
endfacet
facet normal -1.000000 0.000000 0.000000
outer loop
vertex -3.000000 1.101340 0.549408
vertex -3.000000 1.096420 0.545093
vertex -3.000000 1.000000 0.660000
endloop
endfacet
facet normal -1.000000 0.000000 0.000000
outer loop
vertex -3.000000 1.096420 0.545093
vertex -3.000000 1.091310 0.540997
vertex -3.000000 1.000000 0.660000
endloop
endfacet
facet normal -1.000000 0.000000 0.000000
outer loop
vertex -3.000000 1.000000 0.660000
vertex -3.000000 1.091310 0.540997
vertex -3.000000 1.086040 0.537127
endloop
endfacet
facet normal -1.000000 0.000000 0.000000
outer loop
vertex -3.000000 1.114910 0.563582
vertex -3.000000 1.110590 0.558661
vertex -3.000000 1.000000 0.660000
endloop
endfacet
facet normal -1.000000 0.000000 0.000000
outer loop
vertex -3.000000 1.110590 0.558661
vertex -3.000000 1.106070 0.553934
vertex -3.000000 1.000000 0.660000
endloop
endfacet
facet normal -1.000000 0.000000 0.000000
outer loop
vertex -3.000000 1.000000 0.660000
vertex -3.000000 1.106070 0.553934
vertex -3.000000 1.101340 0.549408
endloop
endfacet
facet normal -1.000000 0.000000 0.000000
outer loop
vertex -3.000000 1.126510 0.579405
vertex -3.000000 1.122870 0.573964
vertex -3.000000 1.000000 0.660000
endloop
endfacet
facet normal -1.000000 0.000000 0.000000
outer loop
vertex -3.000000 1.122870 0.573964
vertex -3.000000 1.119000 0.568686
vertex -3.000000 1.000000 0.660000
endloop
endfacet
facet normal -1.000000 0.000000 0.000000
outer loop
vertex -3.000000 1.000000 0.660000
vertex -3.000000 1.119000 0.568686
vertex -3.000000 1.114910 0.563582
endloop
endfacet
facet normal -1.000000 0.000000 0.000000
outer loop
vertex -3.000000 1.135950 0.596607
vertex -3.000000 1.133050 0.590738
vertex -3.000000 1.000000 0.660000
endloop
endfacet
facet normal -1.000000 0.000000 0.000000
outer loop
vertex -3.000000 1.133050 0.590738
vertex -3.000000 1.129900 0.585000
vertex -3.000000 1.000000 0.660000
endloop
endfacet
facet normal -1.000000 0.000000 0.000000
outer loop
vertex -3.000000 1.000000 0.660000
vertex -3.000000 1.129900 0.585000
vertex -3.000000 1.126510 0.579405
endloop
endfacet
facet normal -1.000000 0.000000 0.000000
outer loop
vertex -3.000000 1.143060 0.614894
vertex -3.000000 1.140950 0.608697
vertex -3.000000 1.000000 0.660000
endloop
endfacet
facet normal -1.000000 0.000000 0.000000
outer loop
vertex -3.000000 1.140950 0.608697
vertex -3.000000 1.138580 0.602597
vertex -3.000000 1.000000 0.660000
endloop
endfacet
facet normal -1.000000 0.000000 0.000000
outer loop
vertex -3.000000 1.000000 0.660000
vertex -3.000000 1.138580 0.602597
vertex -3.000000 1.135950 0.596607
endloop
endfacet
facet normal -1.000000 0.000000 0.000000
outer loop
vertex -3.000000 1.147720 0.633953
vertex -3.000000 1.146440 0.627534
vertex -3.000000 1.000000 0.660000
endloop
endfacet
facet normal -1.000000 0.000000 0.000000
outer loop
vertex -3.000000 1.146440 0.627534
vertex -3.000000 1.144890 0.621177
vertex -3.000000 1.000000 0.660000
endloop
endfacet
facet normal -1.000000 0.000000 0.000000
outer loop
vertex -3.000000 1.000000 0.660000
vertex -3.000000 1.144890 0.621177
vertex -3.000000 1.143060 0.614894
endloop
endfacet
facet normal -1.000000 0.000000 0.000000
outer loop
vertex -3.000000 1.149860 0.653457
vertex -3.000000 1.149430 0.646927
vertex -3.000000 1.000000 0.660000
endloop
endfacet
facet normal -1.000000 0.000000 0.000000
outer loop
vertex -3.000000 1.149430 0.646927
vertex -3.000000 1.148720 0.640421
vertex -3.000000 1.000000 0.660000
endloop
endfacet
facet normal -1.000000 0.000000 0.000000
outer loop
vertex -3.000000 1.000000 0.660000
vertex -3.000000 1.148720 0.640421
vertex -3.000000 1.147720 0.633953
endloop
endfacet
facet normal -1.000000 0.000000 0.000000
outer loop
vertex -3.000000 1.149430 0.673073
vertex -3.000000 1.149860 0.666543
vertex -3.000000 1.000000 0.660000
endloop
endfacet
facet normal -1.000000 0.000000 0.000000
outer loop
vertex -3.000000 1.149860 0.666543
vertex -3.000000 1.150000 0.660000
vertex -3.000000 1.000000 0.660000
endloop
endfacet
facet normal -1.000000 0.000000 0.000000
outer loop
vertex -3.000000 1.000000 0.660000
vertex -3.000000 1.150000 0.660000
vertex -3.000000 1.149860 0.653457
endloop
endfacet
facet normal -1.000000 0.000000 0.000000
outer loop
vertex -3.000000 1.146440 0.692466
vertex -3.000000 1.147720 0.686047
vertex -3.000000 1.000000 0.660000
endloop
endfacet
facet normal -1.000000 0.000000 0.000000
outer loop
vertex -3.000000 1.147720 0.686047
vertex -3.000000 1.148720 0.679579
vertex -3.000000 1.000000 0.660000
endloop
endfacet
facet normal -1.000000 0.000000 0.000000
outer loop
vertex -3.000000 1.000000 0.660000
vertex -3.000000 1.148720 0.679579
vertex -3.000000 1.149430 0.673073
endloop
endfacet
facet normal -1.000000 0.000000 0.000000
outer loop
vertex -3.000000 1.140950 0.711303
vertex -3.000000 1.143060 0.705106
vertex -3.000000 1.000000 0.660000
endloop
endfacet
facet normal -1.000000 0.000000 0.000000
outer loop
vertex -3.000000 1.143060 0.705106
vertex -3.000000 1.144890 0.698823
vertex -3.000000 1.000000 0.660000
endloop
endfacet
facet normal -1.000000 0.000000 0.000000
outer loop
vertex -3.000000 1.000000 0.660000
vertex -3.000000 1.144890 0.698823
vertex -3.000000 1.146440 0.692466
endloop
endfacet
facet normal -1.000000 0.000000 0.000000
outer loop
vertex -3.000000 1.133050 0.729262
vertex -3.000000 1.135950 0.723393
vertex -3.000000 1.000000 0.660000
endloop
endfacet
facet normal -1.000000 0.000000 0.000000
outer loop
vertex -3.000000 1.135950 0.723393
vertex -3.000000 1.138580 0.717403
vertex -3.000000 1.000000 0.660000
endloop
endfacet
facet normal -1.000000 0.000000 0.000000
outer loop
vertex -3.000000 1.000000 0.660000
vertex -3.000000 1.138580 0.717403
vertex -3.000000 1.140950 0.711303
endloop
endfacet
facet normal -1.000000 0.000000 0.000000
outer loop
vertex -3.000000 1.122870 0.746036
vertex -3.000000 1.126510 0.740595
vertex -3.000000 1.000000 0.660000
endloop
endfacet
facet normal -1.000000 0.000000 0.000000
outer loop
vertex -3.000000 1.126510 0.740595
vertex -3.000000 1.129900 0.735000
vertex -3.000000 1.000000 0.660000
endloop
endfacet
facet normal -1.000000 0.000000 0.000000
outer loop
vertex -3.000000 1.000000 0.660000
vertex -3.000000 1.129900 0.735000
vertex -3.000000 1.133050 0.729262
endloop
endfacet
facet normal -1.000000 0.000000 0.000000
outer loop
vertex -3.000000 1.110590 0.761339
vertex -3.000000 1.114910 0.756418
vertex -3.000000 1.000000 0.660000
endloop
endfacet
facet normal -1.000000 0.000000 0.000000
outer loop
vertex -3.000000 1.114910 0.756418
vertex -3.000000 1.119000 0.751314
vertex -3.000000 1.000000 0.660000
endloop
endfacet
facet normal -1.000000 0.000000 0.000000
outer loop
vertex -3.000000 1.000000 0.660000
vertex -3.000000 1.119000 0.751314
vertex -3.000000 1.122870 0.746036
endloop
endfacet
facet normal -1.000000 0.000000 0.000000
outer loop
vertex -3.000000 1.096420 0.774907
vertex -3.000000 1.101340 0.770592
vertex -3.000000 1.000000 0.660000
endloop
endfacet
facet normal -1.000000 0.000000 0.000000
outer loop
vertex -3.000000 1.101340 0.770592
vertex -3.000000 1.106070 0.766066
vertex -3.000000 1.000000 0.660000
endloop
endfacet
facet normal -1.000000 0.000000 0.000000
outer loop
vertex -3.000000 1.000000 0.660000
vertex -3.000000 1.106070 0.766066
vertex -3.000000 1.110590 0.761339
endloop
endfacet
facet normal -1.000000 0.000000 0.000000
outer loop
vertex -3.000000 1.080590 0.786509
vertex -3.000000 1.086040 0.782873
vertex -3.000000 1.000000 0.660000
endloop
endfacet
facet normal -1.000000 0.000000 0.000000
outer loop
vertex -3.000000 1.086040 0.782873
vertex -3.000000 1.091310 0.779003
vertex -3.000000 1.000000 0.660000
endloop
endfacet
facet normal -1.000000 0.000000 0.000000
outer loop
vertex -3.000000 1.000000 0.660000
vertex -3.000000 1.091310 0.779003
vertex -3.000000 1.096420 0.774907
endloop
endfacet
facet normal -1.000000 0.000000 0.000000
outer loop
vertex -3.000000 1.063390 0.795946
vertex -3.000000 1.069260 0.793052
vertex -3.000000 1.000000 0.660000
endloop
endfacet
facet normal -1.000000 0.000000 0.000000
outer loop
vertex -3.000000 1.069260 0.793052
vertex -3.000000 1.075000 0.789904
vertex -3.000000 1.000000 0.660000
endloop
endfacet
facet normal -1.000000 0.000000 0.000000
outer loop
vertex -3.000000 1.000000 0.660000
vertex -3.000000 1.075000 0.789904
vertex -3.000000 1.080590 0.786509
endloop
endfacet
facet normal -1.000000 0.000000 0.000000
outer loop
vertex -3.000000 1.045110 0.803058
vertex -3.000000 1.051300 0.800954
vertex -3.000000 1.000000 0.660000
endloop
endfacet
facet normal -1.000000 0.000000 0.000000
outer loop
vertex -3.000000 1.051300 0.800954
vertex -3.000000 1.057400 0.798582
vertex -3.000000 1.000000 0.660000
endloop
endfacet
facet normal -1.000000 0.000000 0.000000
outer loop
vertex -3.000000 1.000000 0.660000
vertex -3.000000 1.057400 0.798582
vertex -3.000000 1.063390 0.795946
endloop
endfacet
facet normal -1.000000 0.000000 0.000000
outer loop
vertex -3.000000 1.026050 0.807721
vertex -3.000000 1.032470 0.806444
vertex -3.000000 1.000000 0.660000
endloop
endfacet
facet normal -1.000000 0.000000 0.000000
outer loop
vertex -3.000000 1.032470 0.806444
vertex -3.000000 1.038820 0.804889
vertex -3.000000 1.000000 0.660000
endloop
endfacet
facet normal -1.000000 0.000000 0.000000
outer loop
vertex -3.000000 1.000000 0.660000
vertex -3.000000 1.038820 0.804889
vertex -3.000000 1.045110 0.803058
endloop
endfacet
facet normal -1.000000 0.000000 0.000000
outer loop
vertex -3.000000 1.006540 0.809857
vertex -3.000000 1.013070 0.809429
vertex -3.000000 1.000000 0.660000
endloop
endfacet
facet normal -1.000000 0.000000 0.000000
outer loop
vertex -3.000000 1.013070 0.809429
vertex -3.000000 1.019580 0.808717
vertex -3.000000 1.000000 0.660000
endloop
endfacet
facet normal -1.000000 0.000000 0.000000
outer loop
vertex -3.000000 1.000000 0.660000
vertex -3.000000 1.019580 0.808717
vertex -3.000000 1.026050 0.807721
endloop
endfacet
facet normal -1.000000 0.000000 0.000000
outer loop
vertex -3.000000 0.986927 0.809429
vertex -3.000000 0.993457 0.809857
vertex -3.000000 1.000000 0.660000
endloop
endfacet
facet normal -1.000000 0.000000 0.000000
outer loop
vertex -3.000000 0.993457 0.809857
vertex -3.000000 1.000000 0.810000
vertex -3.000000 1.000000 0.660000
endloop
endfacet
facet normal -1.000000 0.000000 0.000000
outer loop
vertex -3.000000 1.000000 0.660000
vertex -3.000000 1.000000 0.810000
vertex -3.000000 1.006540 0.809857
endloop
endfacet
facet normal -1.000000 0.000000 0.000000
outer loop
vertex -3.000000 0.967534 0.806444
vertex -3.000000 0.973953 0.807721
vertex -3.000000 1.000000 0.660000
endloop
endfacet
facet normal -1.000000 0.000000 0.000000
outer loop
vertex -3.000000 0.973953 0.807721
vertex -3.000000 0.980421 0.808717
vertex -3.000000 1.000000 0.660000
endloop
endfacet
facet normal -1.000000 0.000000 0.000000
outer loop
vertex -3.000000 1.000000 0.660000
vertex -3.000000 0.980421 0.808717
vertex -3.000000 0.986927 0.809429
endloop
endfacet
facet normal -1.000000 0.000000 0.000000
outer loop
vertex -3.000000 0.948697 0.800954
vertex -3.000000 0.954894 0.803058
vertex -3.000000 1.000000 0.660000
endloop
endfacet
facet normal -1.000000 0.000000 0.000000
outer loop
vertex -3.000000 0.954894 0.803058
vertex -3.000000 0.961177 0.804889
vertex -3.000000 1.000000 0.660000
endloop
endfacet
facet normal -1.000000 0.000000 0.000000
outer loop
vertex -3.000000 1.000000 0.660000
vertex -3.000000 0.961177 0.804889
vertex -3.000000 0.967534 0.806444
endloop
endfacet
facet normal -1.000000 0.000000 0.000000
outer loop
vertex -3.000000 0.930738 0.793052
vertex -3.000000 0.936607 0.795946
vertex -3.000000 1.000000 0.660000
endloop
endfacet
facet normal -1.000000 0.000000 0.000000
outer loop
vertex -3.000000 0.936607 0.795946
vertex -3.000000 0.942598 0.798582
vertex -3.000000 1.000000 0.660000
endloop
endfacet
facet normal -1.000000 0.000000 0.000000
outer loop
vertex -3.000000 1.000000 0.660000
vertex -3.000000 0.942598 0.798582
vertex -3.000000 0.948697 0.800954
endloop
endfacet
facet normal -1.000000 0.000000 0.000000
outer loop
vertex -3.000000 0.913964 0.782873
vertex -3.000000 0.919405 0.786509
vertex -3.000000 1.000000 0.660000
endloop
endfacet
facet normal -1.000000 0.000000 0.000000
outer loop
vertex -3.000000 0.919405 0.786509
vertex -3.000000 0.925000 0.789904
vertex -3.000000 1.000000 0.660000
endloop
endfacet
facet normal -1.000000 0.000000 0.000000
outer loop
vertex -3.000000 1.000000 0.660000
vertex -3.000000 0.925000 0.789904
vertex -3.000000 0.930738 0.793052
endloop
endfacet
facet normal -1.000000 0.000000 0.000000
outer loop
vertex -3.000000 0.898661 0.770592
vertex -3.000000 0.903582 0.774907
vertex -3.000000 1.000000 0.660000
endloop
endfacet
facet normal -1.000000 0.000000 0.000000
outer loop
vertex -3.000000 0.903582 0.774907
vertex -3.000000 0.908686 0.779003
vertex -3.000000 1.000000 0.660000
endloop
endfacet
facet normal -1.000000 0.000000 0.000000
outer loop
vertex -3.000000 1.000000 0.660000
vertex -3.000000 0.908686 0.779003
vertex -3.000000 0.913964 0.782873
endloop
endfacet
facet normal -1.000000 0.000000 0.000000
outer loop
vertex -3.000000 0.885093 0.756418
vertex -3.000000 0.889408 0.761339
vertex -3.000000 1.000000 0.660000
endloop
endfacet
facet normal -1.000000 0.000000 0.000000
outer loop
vertex -3.000000 0.889408 0.761339
vertex -3.000000 0.893934 0.766066
vertex -3.000000 1.000000 0.660000
endloop
endfacet
facet normal -1.000000 0.000000 0.000000
outer loop
vertex -3.000000 1.000000 0.660000
vertex -3.000000 0.893934 0.766066
vertex -3.000000 0.898661 0.770592
endloop
endfacet
facet normal -1.000000 0.000000 0.000000
outer loop
vertex -3.000000 0.873491 0.740595
vertex -3.000000 0.877127 0.746036
vertex -3.000000 1.000000 0.660000
endloop
endfacet
facet normal -1.000000 0.000000 0.000000
outer loop
vertex -3.000000 0.877127 0.746036
vertex -3.000000 0.880997 0.751314
vertex -3.000000 1.000000 0.660000
endloop
endfacet
facet normal -1.000000 0.000000 0.000000
outer loop
vertex -3.000000 1.000000 0.660000
vertex -3.000000 0.880997 0.751314
vertex -3.000000 0.885093 0.756418
endloop
endfacet
facet normal -1.000000 0.000000 0.000000
outer loop
vertex -3.000000 0.864054 0.723393
vertex -3.000000 0.866948 0.729262
vertex -3.000000 1.000000 0.660000
endloop
endfacet
facet normal -1.000000 0.000000 0.000000
outer loop
vertex -3.000000 0.866948 0.729262
vertex -3.000000 0.870096 0.735000
vertex -3.000000 1.000000 0.660000
endloop
endfacet
facet normal -1.000000 0.000000 0.000000
outer loop
vertex -3.000000 1.000000 0.660000
vertex -3.000000 0.870096 0.735000
vertex -3.000000 0.873491 0.740595
endloop
endfacet
facet normal -1.000000 0.000000 0.000000
outer loop
vertex -3.000000 0.856942 0.705106
vertex -3.000000 0.859046 0.711303
vertex -3.000000 1.000000 0.660000
endloop
endfacet
facet normal -1.000000 0.000000 0.000000
outer loop
vertex -3.000000 0.859046 0.711303
vertex -3.000000 0.861418 0.717403
vertex -3.000000 1.000000 0.660000
endloop
endfacet
facet normal -1.000000 0.000000 0.000000
outer loop
vertex -3.000000 1.000000 0.660000
vertex -3.000000 0.861418 0.717403
vertex -3.000000 0.864054 0.723393
endloop
endfacet
facet normal -1.000000 0.000000 0.000000
outer loop
vertex -3.000000 0.852279 0.686047
vertex -3.000000 0.853556 0.692466
vertex -3.000000 1.000000 0.660000
endloop
endfacet
facet normal -1.000000 0.000000 0.000000
outer loop
vertex -3.000000 0.853556 0.692466
vertex -3.000000 0.855111 0.698823
vertex -3.000000 1.000000 0.660000
endloop
endfacet
facet normal -1.000000 0.000000 0.000000
outer loop
vertex -3.000000 1.000000 0.660000
vertex -3.000000 0.855111 0.698823
vertex -3.000000 0.856942 0.705106
endloop
endfacet
facet normal -1.000000 0.000000 0.000000
outer loop
vertex -3.000000 0.850143 0.666543
vertex -3.000000 0.850571 0.673073
vertex -3.000000 1.000000 0.660000
endloop
endfacet
facet normal -1.000000 0.000000 0.000000
outer loop
vertex -3.000000 0.850571 0.673073
vertex -3.000000 0.851283 0.679579
vertex -3.000000 1.000000 0.660000
endloop
endfacet
facet normal -1.000000 0.000000 0.000000
outer loop
vertex -3.000000 1.000000 0.660000
vertex -3.000000 0.851283 0.679579
vertex -3.000000 0.852279 0.686047
endloop
endfacet
facet normal -1.000000 0.000000 0.000000
outer loop
vertex -3.000000 0.850571 0.646927
vertex -3.000000 0.850143 0.653457
vertex -3.000000 1.000000 0.660000
endloop
endfacet
facet normal -1.000000 0.000000 0.000000
outer loop
vertex -3.000000 0.850143 0.653457
vertex -3.000000 0.850000 0.660000
vertex -3.000000 1.000000 0.660000
endloop
endfacet
facet normal -1.000000 0.000000 0.000000
outer loop
vertex -3.000000 1.000000 0.660000
vertex -3.000000 0.850000 0.660000
vertex -3.000000 0.850143 0.666543
endloop
endfacet
facet normal -1.000000 0.000000 0.000000
outer loop
vertex -3.000000 0.853556 0.627534
vertex -3.000000 0.852279 0.633953
vertex -3.000000 1.000000 0.660000
endloop
endfacet
facet normal -1.000000 0.000000 0.000000
outer loop
vertex -3.000000 0.852279 0.633953
vertex -3.000000 0.851283 0.640421
vertex -3.000000 1.000000 0.660000
endloop
endfacet
facet normal -1.000000 0.000000 0.000000
outer loop
vertex -3.000000 1.000000 0.660000
vertex -3.000000 0.851283 0.640421
vertex -3.000000 0.850571 0.646927
endloop
endfacet
facet normal -1.000000 0.000000 0.000000
outer loop
vertex -3.000000 0.859046 0.608697
vertex -3.000000 0.856942 0.614894
vertex -3.000000 1.000000 0.660000
endloop
endfacet
facet normal -1.000000 0.000000 0.000000
outer loop
vertex -3.000000 0.856942 0.614894
vertex -3.000000 0.855111 0.621177
vertex -3.000000 1.000000 0.660000
endloop
endfacet
facet normal -1.000000 0.000000 0.000000
outer loop
vertex -3.000000 1.000000 0.660000
vertex -3.000000 0.855111 0.621177
vertex -3.000000 0.853556 0.627534
endloop
endfacet
facet normal -1.000000 0.000000 0.000000
outer loop
vertex -3.000000 0.866948 0.590738
vertex -3.000000 0.864054 0.596607
vertex -3.000000 1.000000 0.660000
endloop
endfacet
facet normal -1.000000 0.000000 0.000000
outer loop
vertex -3.000000 0.864054 0.596607
vertex -3.000000 0.861418 0.602597
vertex -3.000000 1.000000 0.660000
endloop
endfacet
facet normal -1.000000 0.000000 0.000000
outer loop
vertex -3.000000 1.000000 0.660000
vertex -3.000000 0.861418 0.602597
vertex -3.000000 0.859046 0.608697
endloop
endfacet
facet normal -1.000000 0.000000 0.000000
outer loop
vertex -3.000000 0.877127 0.573964
vertex -3.000000 0.873491 0.579405
vertex -3.000000 1.000000 0.660000
endloop
endfacet
facet normal -1.000000 0.000000 0.000000
outer loop
vertex -3.000000 0.873491 0.579405
vertex -3.000000 0.870096 0.585000
vertex -3.000000 1.000000 0.660000
endloop
endfacet
facet normal -1.000000 0.000000 0.000000
outer loop
vertex -3.000000 1.000000 0.660000
vertex -3.000000 0.870096 0.585000
vertex -3.000000 0.866948 0.590738
endloop
endfacet
facet normal -1.000000 0.000000 0.000000
outer loop
vertex -3.000000 0.889408 0.558661
vertex -3.000000 0.885093 0.563582
vertex -3.000000 1.000000 0.660000
endloop
endfacet
facet normal -1.000000 0.000000 0.000000
outer loop
vertex -3.000000 0.885093 0.563582
vertex -3.000000 0.880997 0.568686
vertex -3.000000 1.000000 0.660000
endloop
endfacet
facet normal -1.000000 0.000000 0.000000
outer loop
vertex -3.000000 1.000000 0.660000
vertex -3.000000 0.880997 0.568686
vertex -3.000000 0.877127 0.573964
endloop
endfacet
facet normal -1.000000 0.000000 0.000000
outer loop
vertex -3.000000 0.903582 0.545093
vertex -3.000000 0.898661 0.549408
vertex -3.000000 1.000000 0.660000
endloop
endfacet
facet normal -1.000000 0.000000 0.000000
outer loop
vertex -3.000000 0.898661 0.549408
vertex -3.000000 0.893934 0.553934
vertex -3.000000 1.000000 0.660000
endloop
endfacet
facet normal -1.000000 0.000000 0.000000
outer loop
vertex -3.000000 1.000000 0.660000
vertex -3.000000 0.893934 0.553934
vertex -3.000000 0.889408 0.558661
endloop
endfacet
facet normal -1.000000 0.000000 0.000000
outer loop
vertex -3.000000 0.919405 0.533491
vertex -3.000000 0.913964 0.537127
vertex -3.000000 1.000000 0.660000
endloop
endfacet
facet normal -1.000000 0.000000 0.000000
outer loop
vertex -3.000000 0.913964 0.537127
vertex -3.000000 0.908686 0.540997
vertex -3.000000 1.000000 0.660000
endloop
endfacet
facet normal -1.000000 0.000000 0.000000
outer loop
vertex -3.000000 1.000000 0.660000
vertex -3.000000 0.908686 0.540997
vertex -3.000000 0.903582 0.545093
endloop
endfacet
facet normal -1.000000 0.000000 0.000000
outer loop
vertex -3.000000 0.936607 0.524054
vertex -3.000000 0.930738 0.526948
vertex -3.000000 1.000000 0.660000
endloop
endfacet
facet normal -1.000000 0.000000 0.000000
outer loop
vertex -3.000000 0.930738 0.526948
vertex -3.000000 0.925000 0.530096
vertex -3.000000 1.000000 0.660000
endloop
endfacet
facet normal -1.000000 0.000000 0.000000
outer loop
vertex -3.000000 1.000000 0.660000
vertex -3.000000 0.925000 0.530096
vertex -3.000000 0.919405 0.533491
endloop
endfacet
facet normal -1.000000 0.000000 0.000000
outer loop
vertex -3.000000 0.954894 0.516942
vertex -3.000000 0.948697 0.519046
vertex -3.000000 1.000000 0.660000
endloop
endfacet
facet normal -1.000000 0.000000 0.000000
outer loop
vertex -3.000000 0.948697 0.519046
vertex -3.000000 0.942598 0.521418
vertex -3.000000 1.000000 0.660000
endloop
endfacet
facet normal -1.000000 0.000000 0.000000
outer loop
vertex -3.000000 1.000000 0.660000
vertex -3.000000 0.942598 0.521418
vertex -3.000000 0.936607 0.524054
endloop
endfacet
facet normal -1.000000 0.000000 0.000000
outer loop
vertex -3.000000 0.973953 0.512279
vertex -3.000000 0.967534 0.513556
vertex -3.000000 1.000000 0.660000
endloop
endfacet
facet normal -1.000000 0.000000 0.000000
outer loop
vertex -3.000000 0.967534 0.513556
vertex -3.000000 0.961177 0.515111
vertex -3.000000 1.000000 0.660000
endloop
endfacet
facet normal -1.000000 0.000000 0.000000
outer loop
vertex -3.000000 1.000000 0.660000
vertex -3.000000 0.961177 0.515111
vertex -3.000000 0.954894 0.516942
endloop
endfacet
facet normal -1.000000 0.000000 0.000000
outer loop
vertex -3.000000 0.993457 0.510143
vertex -3.000000 0.986927 0.510571
vertex -3.000000 1.000000 0.660000
endloop
endfacet
facet normal -1.000000 0.000000 0.000000
outer loop
vertex -3.000000 0.986927 0.510571
vertex -3.000000 0.980421 0.511283
vertex -3.000000 1.000000 0.660000
endloop
endfacet
facet normal -1.000000 0.000000 0.000000
outer loop
vertex -3.000000 1.000000 0.660000
vertex -3.000000 0.980421 0.511283
vertex -3.000000 0.973953 0.512279
endloop
endfacet
endsolid outlet
