solid wall
facet normal 0.000000 -1.000000 0.000000
outer loop
vertex 12.000000 0.000000 1.320000
vertex 0.000000 0.000000 1.320000
vertex 12.000000 0.000000 0.000000
endloop
endfacet
facet normal 0.000000 -1.000000 0.000000
outer loop
vertex 0.000000 0.000000 1.320000
vertex 0.000000 0.000000 0.000000
vertex 12.000000 0.000000 0.000000
endloop
endfacet
facet normal 1.000000 0.000000 0.000000
outer loop
vertex 12.000000 4.649430 0.646927
vertex 12.000000 4.648720 0.640421
vertex 12.000000 6.000000 0.000000
endloop
endfacet
facet normal 1.000000 0.000000 0.000000
outer loop
vertex 12.000000 4.361420 0.602597
vertex 12.000000 4.359050 0.608697
vertex 12.000000 0.000000 0.000000
endloop
endfacet
facet normal 1.000000 -0.000105 0.000000
outer loop
vertex 12.000000 4.649430 0.673073
vertex 12.000000 4.649860 0.666543
vertex 12.000000 6.000000 1.320000
endloop
endfacet
facet normal 1.000000 0.000000 0.000000
outer loop
vertex 12.000000 4.649860 0.666543
vertex 12.000000 4.650000 0.660000
vertex 12.000000 6.000000 1.320000
endloop
endfacet
facet normal 1.000000 0.000000 0.000000
outer loop
vertex 12.000000 6.000000 1.320000
vertex 12.000000 4.650000 0.660000
vertex 12.000000 6.000000 0.000000
endloop
endfacet
facet normal 1.000000 0.000107 0.000000
outer loop
vertex 12.000000 4.650000 0.660000
vertex 12.000000 4.649860 0.653457
vertex 12.000000 6.000000 0.000000
endloop
endfacet
facet normal 1.000000 -0.000052 0.000000
outer loop
vertex 12.000000 6.000000 0.000000
vertex 12.000000 4.649860 0.653457
vertex 12.000000 4.649430 0.646927
endloop
endfacet
facet normal 1.000000 0.000000 0.000000
outer loop
vertex 12.000000 4.640950 0.711303
vertex 12.000000 6.000000 1.320000
vertex 12.000000 4.638580 0.717403
endloop
endfacet
facet normal 1.000000 0.000000 0.000000
outer loop
vertex 12.000000 6.000000 1.320000
vertex 12.000000 4.635950 0.723393
vertex 12.000000 4.638580 0.717403
endloop
endfacet
facet normal 1.000000 -0.000102 0.000000
outer loop
vertex 12.000000 4.648720 0.640421
vertex 12.000000 4.647720 0.633953
vertex 12.000000 6.000000 0.000000
endloop
endfacet
facet normal 1.000000 0.000000 0.000000
outer loop
vertex 12.000000 4.647720 0.633953
vertex 12.000000 4.646440 0.627534
vertex 12.000000 6.000000 0.000000
endloop
endfacet
facet normal 1.000000 0.000000 0.000000
outer loop
vertex 12.000000 6.000000 0.000000
vertex 12.000000 4.646440 0.627534
vertex 12.000000 4.644890 0.621177
endloop
endfacet
facet normal 1.000000 0.000000 0.000000
outer loop
vertex 12.000000 4.644890 0.621177
vertex 12.000000 4.643060 0.614894
vertex 12.000000 6.000000 0.000000
endloop
endfacet
facet normal 1.000000 0.000000 0.000000
outer loop
vertex 12.000000 4.643060 0.614894
vertex 12.000000 4.640950 0.608697
vertex 12.000000 6.000000 0.000000
endloop
endfacet
facet normal 1.000000 -0.000049 0.000000
outer loop
vertex 12.000000 6.000000 0.000000
vertex 12.000000 4.640950 0.608697
vertex 12.000000 4.638580 0.602597
endloop
endfacet
facet normal 1.000000 0.000000 0.000000
outer loop
vertex 12.000000 4.385090 0.756418
vertex 12.000000 4.389410 0.761339
vertex 12.000000 0.000000 1.320000
endloop
endfacet
facet normal 1.000000 0.000000 0.000000
outer loop
vertex 12.000000 4.370100 0.585000
vertex 12.000000 4.366950 0.590738
vertex 12.000000 0.000000 0.000000
endloop
endfacet
facet normal 1.000000 0.000035 0.000000
outer loop
vertex 12.000000 4.366950 0.590738
vertex 12.000000 4.364050 0.596607
vertex 12.000000 0.000000 0.000000
endloop
endfacet
facet normal 1.000000 -0.000017 0.000000
outer loop
vertex 12.000000 0.000000 0.000000
vertex 12.000000 4.364050 0.596607
vertex 12.000000 4.361420 0.602597
endloop
endfacet
facet normal 1.000000 0.000000 0.000000
outer loop
vertex 12.000000 4.352280 0.633953
vertex 12.000000 4.351280 0.640421
vertex 12.000000 0.000000 0.000000
endloop
endfacet
facet normal 1.000000 0.000000 0.000000
outer loop
vertex 12.000000 4.361420 0.717403
vertex 12.000000 4.364050 0.723393
vertex 12.000000 0.000000 1.320000
endloop
endfacet
facet normal 1.000000 0.000000 0.000000
outer loop
vertex 12.000000 4.364050 0.723393
vertex 12.000000 4.366950 0.729262
vertex 12.000000 0.000000 1.320000
endloop
endfacet
facet normal 1.000000 0.000000 0.000000
outer loop
vertex 12.000000 0.000000 1.320000
vertex 12.000000 4.366950 0.729262
vertex 12.000000 4.370100 0.735000
endloop
endfacet
facet normal 1.000000 0.000000 0.000000
outer loop
vertex 12.000000 4.385090 0.756418
vertex 12.000000 0.000000 1.320000
vertex 12.000000 4.381000 0.751314
endloop
endfacet
facet normal 1.000000 0.000000 0.000000
outer loop
vertex 12.000000 4.626510 0.740595
vertex 12.000000 4.629900 0.735000
vertex 12.000000 6.000000 1.320000
endloop
endfacet
facet normal 1.000000 0.000000 0.000000
outer loop
vertex 12.000000 4.629900 0.735000
vertex 12.000000 4.633050 0.729262
vertex 12.000000 6.000000 1.320000
endloop
endfacet
facet normal 1.000000 -0.000049 0.000000
outer loop
vertex 12.000000 6.000000 1.320000
vertex 12.000000 4.633050 0.729262
vertex 12.000000 4.635950 0.723393
endloop
endfacet
facet normal 1.000000 0.000000 0.000000
outer loop
vertex 12.000000 4.646440 0.692466
vertex 12.000000 4.647720 0.686047
vertex 12.000000 6.000000 1.320000
endloop
endfacet
facet normal 1.000000 -0.000102 0.000000
outer loop
vertex 12.000000 4.647720 0.686047
vertex 12.000000 4.648720 0.679579
vertex 12.000000 6.000000 1.320000
endloop
endfacet
facet normal 1.000000 0.000052 0.000000
outer loop
vertex 12.000000 6.000000 1.320000
vertex 12.000000 4.648720 0.679579
vertex 12.000000 4.649430 0.673073
endloop
endfacet
facet normal 1.000000 0.000000 0.000000
outer loop
vertex 12.000000 4.352280 0.633953
vertex 12.000000 0.000000 0.000000
vertex 12.000000 4.353560 0.627534
endloop
endfacet
facet normal 1.000000 -0.000033 0.000000
outer loop
vertex 12.000000 4.351280 0.640421
vertex 12.000000 4.350570 0.646927
vertex 12.000000 0.000000 0.000000
endloop
endfacet
facet normal 1.000000 0.000000 0.000000
outer loop
vertex 12.000000 4.350570 0.646927
vertex 12.000000 4.350140 0.653457
vertex 12.000000 0.000000 0.000000
endloop
endfacet
facet normal 1.000000 -0.000000 0.000000
outer loop
vertex 12.000000 0.000000 0.000000
vertex 12.000000 4.350140 0.653457
vertex 12.000000 0.000000 1.320000
endloop
endfacet
facet normal 1.000000 0.000034 0.000000
outer loop
vertex 12.000000 4.350140 0.653457
vertex 12.000000 4.350000 0.660000
vertex 12.000000 0.000000 1.320000
endloop
endfacet
facet normal 1.000000 0.000000 0.000000
outer loop
vertex 12.000000 4.640950 0.711303
vertex 12.000000 4.643060 0.705106
vertex 12.000000 6.000000 1.320000
endloop
endfacet
facet normal 1.000000 0.000000 0.000000
outer loop
vertex 12.000000 4.643060 0.705106
vertex 12.000000 4.644890 0.698823
vertex 12.000000 6.000000 1.320000
endloop
endfacet
facet normal 1.000000 0.000000 0.000000
outer loop
vertex 12.000000 6.000000 1.320000
vertex 12.000000 4.644890 0.698823
vertex 12.000000 4.646440 0.692466
endloop
endfacet
facet normal 1.000000 0.000000 0.000000
outer loop
vertex 12.000000 4.638580 0.602597
vertex 12.000000 4.635950 0.596607
vertex 12.000000 6.000000 0.000000
endloop
endfacet
facet normal 1.000000 -0.000098 0.000000
outer loop
vertex 12.000000 4.635950 0.596607
vertex 12.000000 4.633050 0.590738
vertex 12.000000 6.000000 0.000000
endloop
endfacet
facet normal 1.000000 0.000000 0.000000
outer loop
vertex 12.000000 6.000000 0.000000
vertex 12.000000 4.633050 0.590738
vertex 12.000000 4.629900 0.585000
endloop
endfacet
facet normal 1.000000 0.000070 0.000000
outer loop
vertex 12.000000 4.448700 0.519046
vertex 12.000000 4.442600 0.521418
vertex 12.000000 0.000000 0.000000
endloop
endfacet
facet normal 1.000000 0.000000 0.000000
outer loop
vertex 12.000000 4.442600 0.521418
vertex 12.000000 4.436610 0.524054
vertex 12.000000 0.000000 0.000000
endloop
endfacet
facet normal 1.000000 0.000030 0.000000
outer loop
vertex 12.000000 0.000000 0.000000
vertex 12.000000 4.436610 0.524054
vertex 12.000000 4.430740 0.526948
endloop
endfacet
facet normal 1.000000 -0.000021 0.000000
outer loop
vertex 12.000000 0.000000 0.000000
vertex 12.000000 4.398660 0.549408
vertex 12.000000 4.393930 0.553934
endloop
endfacet
facet normal 1.000000 0.000000 0.000000
outer loop
vertex 12.000000 4.393930 0.553934
vertex 12.000000 4.389410 0.558661
vertex 12.000000 0.000000 0.000000
endloop
endfacet
facet normal 1.000000 0.000000 0.000000
outer loop
vertex 12.000000 4.389410 0.558661
vertex 12.000000 4.385090 0.563582
vertex 12.000000 0.000000 0.000000
endloop
endfacet
facet normal 1.000000 -0.000019 0.000000
outer loop
vertex 12.000000 0.000000 0.000000
vertex 12.000000 4.385090 0.563582
vertex 12.000000 4.381000 0.568686
endloop
endfacet
facet normal 1.000000 0.000000 0.000000
outer loop
vertex 12.000000 4.381000 0.568686
vertex 12.000000 4.377130 0.573964
vertex 12.000000 0.000000 0.000000
endloop
endfacet
facet normal 1.000000 0.000000 0.000000
outer loop
vertex 12.000000 4.377130 0.573964
vertex 12.000000 4.373490 0.579405
vertex 12.000000 0.000000 0.000000
endloop
endfacet
facet normal 1.000000 0.000000 0.000000
outer loop
vertex 12.000000 0.000000 0.000000
vertex 12.000000 4.373490 0.579405
vertex 12.000000 4.370100 0.585000
endloop
endfacet
facet normal 1.000000 -0.000033 0.000000
outer loop
vertex 12.000000 4.350000 0.660000
vertex 12.000000 4.350140 0.666543
vertex 12.000000 0.000000 1.320000
endloop
endfacet
facet normal 1.000000 0.000000 0.000000
outer loop
vertex 12.000000 4.350140 0.666543
vertex 12.000000 4.350570 0.673073
vertex 12.000000 0.000000 1.320000
endloop
endfacet
facet normal 1.000000 -0.000017 0.000000
outer loop
vertex 12.000000 0.000000 1.320000
vertex 12.000000 4.350570 0.673073
vertex 12.000000 4.351280 0.679579
endloop
endfacet
facet normal 1.000000 0.000000 0.000000
outer loop
vertex 12.000000 4.351280 0.679579
vertex 12.000000 4.352280 0.686047
vertex 12.000000 0.000000 1.320000
endloop
endfacet
facet normal 1.000000 -0.000033 0.000000
outer loop
vertex 12.000000 4.352280 0.686047
vertex 12.000000 4.353560 0.692466
vertex 12.000000 0.000000 1.320000
endloop
endfacet
facet normal 1.000000 0.000000 0.000000
outer loop
vertex 12.000000 0.000000 1.320000
vertex 12.000000 4.353560 0.692466
vertex 12.000000 4.355110 0.698823
endloop
endfacet
facet normal 1.000000 0.000000 0.000000
outer loop
vertex 12.000000 4.355110 0.698823
vertex 12.000000 4.356940 0.705106
vertex 12.000000 0.000000 1.320000
endloop
endfacet
facet normal 1.000000 0.000000 0.000000
outer loop
vertex 12.000000 4.356940 0.705106
vertex 12.000000 4.359050 0.711303
vertex 12.000000 0.000000 1.320000
endloop
endfacet
facet normal 1.000000 -0.000017 0.000000
outer loop
vertex 12.000000 0.000000 1.320000
vertex 12.000000 4.359050 0.711303
vertex 12.000000 4.361420 0.717403
endloop
endfacet
facet normal 1.000000 0.000000 0.000000
outer loop
vertex 12.000000 4.370100 0.735000
vertex 12.000000 4.373490 0.740595
vertex 12.000000 0.000000 1.320000
endloop
endfacet
facet normal 1.000000 0.000000 0.000000
outer loop
vertex 12.000000 4.373490 0.740595
vertex 12.000000 4.377130 0.746036
vertex 12.000000 0.000000 1.320000
endloop
endfacet
facet normal 1.000000 -0.000038 0.000000
outer loop
vertex 12.000000 0.000000 1.320000
vertex 12.000000 4.377130 0.746036
vertex 12.000000 4.381000 0.751314
endloop
endfacet
facet normal 1.000000 0.000000 0.000000
outer loop
vertex 12.000000 4.413960 0.782873
vertex 12.000000 0.000000 1.320000
vertex 12.000000 4.408690 0.779003
endloop
endfacet
facet normal 1.000000 0.000000 0.000000
outer loop
vertex 12.000000 0.000000 1.320000
vertex 12.000000 4.403580 0.774907
vertex 12.000000 4.408690 0.779003
endloop
endfacet
facet normal 1.000000 0.000000 0.000000
outer loop
vertex 12.000000 4.430740 0.526948
vertex 12.000000 4.425000 0.530096
vertex 12.000000 0.000000 0.000000
endloop
endfacet
facet normal 1.000000 0.000053 0.000000
outer loop
vertex 12.000000 4.425000 0.530096
vertex 12.000000 4.419400 0.533491
vertex 12.000000 0.000000 0.000000
endloop
endfacet
facet normal 1.000000 0.000000 0.000000
outer loop
vertex 12.000000 0.000000 0.000000
vertex 12.000000 4.419400 0.533491
vertex 12.000000 4.413960 0.537127
endloop
endfacet
facet normal 1.000000 0.000000 0.000000
outer loop
vertex 12.000000 4.413960 0.537127
vertex 12.000000 4.408690 0.540997
vertex 12.000000 0.000000 0.000000
endloop
endfacet
facet normal 1.000000 0.000000 0.000000
outer loop
vertex 12.000000 4.408690 0.540997
vertex 12.000000 4.403580 0.545093
vertex 12.000000 0.000000 0.000000
endloop
endfacet
facet normal 1.000000 0.000044 0.000000
outer loop
vertex 12.000000 0.000000 0.000000
vertex 12.000000 4.403580 0.545093
vertex 12.000000 4.398660 0.549408
endloop
endfacet
facet normal 1.000000 0.000000 0.000000
outer loop
vertex 12.000000 4.359050 0.608697
vertex 12.000000 4.356940 0.614894
vertex 12.000000 0.000000 0.000000
endloop
endfacet
facet normal 1.000000 0.000000 0.000000
outer loop
vertex 12.000000 4.356940 0.614894
vertex 12.000000 4.355110 0.621177
vertex 12.000000 0.000000 0.000000
endloop
endfacet
facet normal 1.000000 0.000000 0.000000
outer loop
vertex 12.000000 0.000000 0.000000
vertex 12.000000 4.355110 0.621177
vertex 12.000000 4.353560 0.627534
endloop
endfacet
facet normal 1.000000 0.000041 0.000000
outer loop
vertex 12.000000 4.389410 0.761339
vertex 12.000000 4.393930 0.766066
vertex 12.000000 0.000000 1.320000
endloop
endfacet
facet normal 1.000000 -0.000042 0.000000
outer loop
vertex 12.000000 4.393930 0.766066
vertex 12.000000 4.398660 0.770592
vertex 12.000000 0.000000 1.320000
endloop
endfacet
facet normal 1.000000 0.000000 0.000000
outer loop
vertex 12.000000 0.000000 1.320000
vertex 12.000000 4.398660 0.770592
vertex 12.000000 4.403580 0.774907
endloop
endfacet
facet normal 1.000000 0.000103 0.000000
outer loop
vertex 12.000000 4.610590 0.761339
vertex 12.000000 4.614910 0.756418
vertex 12.000000 6.000000 1.320000
endloop
endfacet
facet normal 1.000000 0.000000 0.000000
outer loop
vertex 12.000000 4.629900 0.585000
vertex 12.000000 4.626510 0.579405
vertex 12.000000 6.000000 0.000000
endloop
endfacet
facet normal 1.000000 0.000100 0.000000
outer loop
vertex 12.000000 4.626510 0.579405
vertex 12.000000 4.622870 0.573964
vertex 12.000000 6.000000 0.000000
endloop
endfacet
facet normal 1.000000 0.000000 0.000000
outer loop
vertex 12.000000 6.000000 0.000000
vertex 12.000000 4.622870 0.573964
vertex 12.000000 4.619000 0.568686
endloop
endfacet
facet normal 1.000000 0.000050 0.000000
outer loop
vertex 12.000000 4.413960 0.782873
vertex 12.000000 4.419400 0.786509
vertex 12.000000 0.000000 1.320000
endloop
endfacet
facet normal 1.000000 0.000000 0.000000
outer loop
vertex 12.000000 4.419400 0.786509
vertex 12.000000 4.425000 0.789904
vertex 12.000000 0.000000 1.320000
endloop
endfacet
facet normal 1.000000 -0.000028 0.000000
outer loop
vertex 12.000000 0.000000 1.320000
vertex 12.000000 4.425000 0.789904
vertex 12.000000 4.430740 0.793052
endloop
endfacet
facet normal 1.000000 0.000000 0.000000
outer loop
vertex 12.000000 4.614910 0.756418
vertex 12.000000 4.619000 0.751314
vertex 12.000000 6.000000 1.320000
endloop
endfacet
facet normal 1.000000 0.000100 0.000000
outer loop
vertex 12.000000 4.619000 0.751314
vertex 12.000000 4.622870 0.746036
vertex 12.000000 6.000000 1.320000
endloop
endfacet
facet normal 1.000000 -0.000050 0.000000
outer loop
vertex 12.000000 6.000000 1.320000
vertex 12.000000 4.622870 0.746036
vertex 12.000000 4.626510 0.740595
endloop
endfacet
facet normal 1.000000 0.000000 0.000000
outer loop
vertex 12.000000 4.619000 0.568686
vertex 12.000000 4.614910 0.563582
vertex 12.000000 6.000000 0.000000
endloop
endfacet
facet normal 1.000000 0.000000 0.000000
outer loop
vertex 12.000000 4.614910 0.563582
vertex 12.000000 4.610590 0.558661
vertex 12.000000 6.000000 0.000000
endloop
endfacet
facet normal 1.000000 0.000000 0.000000
outer loop
vertex 12.000000 6.000000 0.000000
vertex 12.000000 4.610590 0.558661
vertex 12.000000 4.606070 0.553934
endloop
endfacet
facet normal 1.000000 0.000000 0.000000
outer loop
vertex 12.000000 4.575000 0.530096
vertex 12.000000 4.569260 0.526948
vertex 12.000000 6.000000 0.000000
endloop
endfacet
facet normal 1.000000 0.000000 0.000000
outer loop
vertex 12.000000 4.569260 0.526948
vertex 12.000000 4.563390 0.524054
vertex 12.000000 6.000000 0.000000
endloop
endfacet
facet normal 1.000000 0.000138 0.000000
outer loop
vertex 12.000000 4.563390 0.524054
vertex 12.000000 4.557400 0.521418
vertex 12.000000 6.000000 0.000000
endloop
endfacet
facet normal 1.000000 0.000000 0.000000
outer loop
vertex 12.000000 4.557400 0.521418
vertex 12.000000 4.551300 0.519046
vertex 12.000000 6.000000 0.000000
endloop
endfacet
facet normal 1.000000 0.000076 0.000000
outer loop
vertex 12.000000 6.000000 0.000000
vertex 12.000000 4.551300 0.519046
vertex 12.000000 4.545110 0.516942
endloop
endfacet
facet normal 1.000000 0.000000 0.000000
outer loop
vertex 12.000000 4.545110 0.516942
vertex 12.000000 4.538820 0.515111
vertex 12.000000 6.000000 0.000000
endloop
endfacet
facet normal 1.000000 0.000000 0.000000
outer loop
vertex 12.000000 4.538820 0.515111
vertex 12.000000 4.532470 0.513556
vertex 12.000000 6.000000 0.000000
endloop
endfacet
facet normal 1.000000 -0.000092 0.000000
outer loop
vertex 12.000000 6.000000 0.000000
vertex 12.000000 4.532470 0.513556
vertex 12.000000 4.526050 0.512279
endloop
endfacet
facet normal 1.000000 0.000000 0.000000
outer loop
vertex 12.000000 4.430740 0.793052
vertex 12.000000 4.436610 0.795946
vertex 12.000000 0.000000 1.320000
endloop
endfacet
facet normal 1.000000 0.000000 0.000000
outer loop
vertex 12.000000 4.436610 0.795946
vertex 12.000000 4.442600 0.798582
vertex 12.000000 0.000000 1.320000
endloop
endfacet
facet normal 1.000000 -0.000035 0.000000
outer loop
vertex 12.000000 0.000000 1.320000
vertex 12.000000 4.442600 0.798582
vertex 12.000000 4.448700 0.800954
endloop
endfacet
facet normal 1.000000 -0.000069 0.000000
outer loop
vertex 12.000000 6.000000 1.320000
vertex 12.000000 4.557400 0.798582
vertex 12.000000 4.563390 0.795946
endloop
endfacet
facet normal 1.000000 0.000000 0.000000
outer loop
vertex 12.000000 4.596420 0.774907
vertex 12.000000 4.601340 0.770592
vertex 12.000000 6.000000 1.320000
endloop
endfacet
facet normal 1.000000 0.000000 0.000000
outer loop
vertex 12.000000 4.601340 0.770592
vertex 12.000000 4.606070 0.766066
vertex 12.000000 6.000000 1.320000
endloop
endfacet
facet normal 1.000000 -0.000105 0.000000
outer loop
vertex 12.000000 6.000000 1.320000
vertex 12.000000 4.606070 0.766066
vertex 12.000000 4.610590 0.761339
endloop
endfacet
facet normal 1.000000 0.000000 0.000000
outer loop
vertex 12.000000 4.500000 0.510000
vertex 12.000000 4.493460 0.510143
vertex 12.000000 0.000000 0.000000
endloop
endfacet
facet normal 1.000000 0.000000 0.000000
outer loop
vertex 12.000000 4.563390 0.795946
vertex 12.000000 4.569260 0.793052
vertex 12.000000 6.000000 1.320000
endloop
endfacet
facet normal 1.000000 0.000000 0.000000
outer loop
vertex 12.000000 4.569260 0.793052
vertex 12.000000 4.575000 0.789904
vertex 12.000000 6.000000 1.320000
endloop
endfacet
facet normal 1.000000 0.000061 0.000000
outer loop
vertex 12.000000 6.000000 1.320000
vertex 12.000000 4.575000 0.789904
vertex 12.000000 4.580600 0.786509
endloop
endfacet
facet normal 1.000000 0.000000 0.000000
outer loop
vertex 12.000000 4.606070 0.553934
vertex 12.000000 4.601340 0.549408
vertex 12.000000 6.000000 0.000000
endloop
endfacet
facet normal 1.000000 -0.000109 0.000000
outer loop
vertex 12.000000 4.601340 0.549408
vertex 12.000000 4.596420 0.545093
vertex 12.000000 6.000000 0.000000
endloop
endfacet
facet normal 1.000000 0.000056 0.000000
outer loop
vertex 12.000000 6.000000 0.000000
vertex 12.000000 4.596420 0.545093
vertex 12.000000 4.591310 0.540997
endloop
endfacet
facet normal 1.000000 0.000000 0.000000
outer loop
vertex 12.000000 4.591310 0.540997
vertex 12.000000 4.586040 0.537127
vertex 12.000000 6.000000 0.000000
endloop
endfacet
facet normal 1.000000 0.000000 0.000000
outer loop
vertex 12.000000 4.586040 0.537127
vertex 12.000000 4.580600 0.533491
vertex 12.000000 6.000000 0.000000
endloop
endfacet
facet normal 1.000000 -0.000061 0.000000
outer loop
vertex 12.000000 6.000000 0.000000
vertex 12.000000 4.580600 0.533491
vertex 12.000000 4.575000 0.530096
endloop
endfacet
facet normal 1.000000 0.000199 0.000000
outer loop
vertex 12.000000 4.526050 0.512279
vertex 12.000000 4.519580 0.511283
vertex 12.000000 6.000000 0.000000
endloop
endfacet
facet normal 1.000000 0.000000 0.000000
outer loop
vertex 12.000000 4.519580 0.511283
vertex 12.000000 4.513070 0.510571
vertex 12.000000 6.000000 0.000000
endloop
endfacet
facet normal 1.000000 0.000000 0.000000
outer loop
vertex 12.000000 6.000000 0.000000
vertex 12.000000 4.513070 0.510571
vertex 12.000000 0.000000 0.000000
endloop
endfacet
facet normal 1.000000 0.000000 0.000000
outer loop
vertex 12.000000 4.513070 0.510571
vertex 12.000000 4.506540 0.510143
vertex 12.000000 0.000000 0.000000
endloop
endfacet
facet normal 1.000000 0.000177 0.000000
outer loop
vertex 12.000000 0.000000 0.000000
vertex 12.000000 4.506540 0.510143
vertex 12.000000 4.500000 0.510000
endloop
endfacet
facet normal 1.000000 0.000000 0.000000
outer loop
vertex 12.000000 4.448700 0.800954
vertex 12.000000 4.454890 0.803058
vertex 12.000000 0.000000 1.320000
endloop
endfacet
facet normal 1.000000 0.000000 0.000000
outer loop
vertex 12.000000 4.454890 0.803058
vertex 12.000000 4.461180 0.804889
vertex 12.000000 0.000000 1.320000
endloop
endfacet
facet normal 1.000000 0.000000 0.000000
outer loop
vertex 12.000000 0.000000 1.320000
vertex 12.000000 4.461180 0.804889
vertex 12.000000 6.000000 1.320000
endloop
endfacet
facet normal 1.000000 -0.000118 0.000000
outer loop
vertex 12.000000 4.580600 0.786509
vertex 12.000000 4.586040 0.782873
vertex 12.000000 6.000000 1.320000
endloop
endfacet
facet normal 1.000000 0.000000 0.000000
outer loop
vertex 12.000000 4.586040 0.782873
vertex 12.000000 4.591310 0.779003
vertex 12.000000 6.000000 1.320000
endloop
endfacet
facet normal 1.000000 0.000000 0.000000
outer loop
vertex 12.000000 6.000000 1.320000
vertex 12.000000 4.591310 0.779003
vertex 12.000000 4.596420 0.774907
endloop
endfacet
facet normal 1.000000 0.000000 0.000000
outer loop
vertex 12.000000 4.473950 0.512279
vertex 12.000000 4.467530 0.513556
vertex 12.000000 0.000000 0.000000
endloop
endfacet
facet normal 1.000000 0.000000 0.000000
outer loop
vertex 12.000000 4.467530 0.513556
vertex 12.000000 4.461180 0.515111
vertex 12.000000 0.000000 0.000000
endloop
endfacet
facet normal 1.000000 0.000000 0.000000
outer loop
vertex 12.000000 4.461180 0.515111
vertex 12.000000 4.454890 0.516942
vertex 12.000000 0.000000 0.000000
endloop
endfacet
facet normal 1.000000 -0.000038 0.000000
outer loop
vertex 12.000000 0.000000 0.000000
vertex 12.000000 4.454890 0.516942
vertex 12.000000 4.448700 0.519046
endloop
endfacet
facet normal 1.000000 0.000000 0.000000
outer loop
vertex 12.000000 4.461180 0.804889
vertex 12.000000 4.467530 0.806444
vertex 12.000000 6.000000 1.320000
endloop
endfacet
facet normal 1.000000 0.000000 0.000000
outer loop
vertex 12.000000 4.467530 0.806444
vertex 12.000000 4.473950 0.807721
vertex 12.000000 6.000000 1.320000
endloop
endfacet
facet normal 1.000000 0.000000 0.000000
outer loop
vertex 12.000000 6.000000 1.320000
vertex 12.000000 4.473950 0.807721
vertex 12.000000 4.480420 0.808717
endloop
endfacet
facet normal 1.000000 0.000000 0.000000
outer loop
vertex 12.000000 4.500000 0.810000
vertex 12.000000 4.506540 0.809857
vertex 12.000000 6.000000 1.320000
endloop
endfacet
facet normal 1.000000 0.000000 0.000000
outer loop
vertex 12.000000 4.506540 0.809857
vertex 12.000000 4.513070 0.809429
vertex 12.000000 6.000000 1.320000
endloop
endfacet
facet normal 1.000000 0.000109 0.000000
outer loop
vertex 12.000000 6.000000 1.320000
vertex 12.000000 4.513070 0.809429
vertex 12.000000 4.519580 0.808717
endloop
endfacet
facet normal 1.000000 0.000000 0.000000
outer loop
vertex 12.000000 4.519580 0.808717
vertex 12.000000 4.526050 0.807721
vertex 12.000000 6.000000 1.320000
endloop
endfacet
facet normal 1.000000 0.000000 0.000000
outer loop
vertex 12.000000 4.526050 0.807721
vertex 12.000000 4.532470 0.806444
vertex 12.000000 6.000000 1.320000
endloop
endfacet
facet normal 1.000000 0.000000 0.000000
outer loop
vertex 12.000000 6.000000 1.320000
vertex 12.000000 4.532470 0.806444
vertex 12.000000 4.538820 0.804889
endloop
endfacet
facet normal 1.000000 0.000000 0.000000
outer loop
vertex 12.000000 4.538820 0.804889
vertex 12.000000 4.545110 0.803058
vertex 12.000000 6.000000 1.320000
endloop
endfacet
facet normal 1.000000 0.000000 0.000000
outer loop
vertex 12.000000 4.545110 0.803058
vertex 12.000000 4.551300 0.800954
vertex 12.000000 6.000000 1.320000
endloop
endfacet
facet normal 1.000000 0.000072 0.000000
outer loop
vertex 12.000000 6.000000 1.320000
vertex 12.000000 4.551300 0.800954
vertex 12.000000 4.557400 0.798582
endloop
endfacet
facet normal 1.000000 0.000000 0.000000
outer loop
vertex 12.000000 4.493460 0.510143
vertex 12.000000 4.486930 0.510571
vertex 12.000000 0.000000 0.000000
endloop
endfacet
facet normal 1.000000 0.000000 0.000000
outer loop
vertex 12.000000 4.486930 0.510571
vertex 12.000000 4.480420 0.511283
vertex 12.000000 0.000000 0.000000
endloop
endfacet
facet normal 1.000000 -0.000123 0.000000
outer loop
vertex 12.000000 0.000000 0.000000
vertex 12.000000 4.480420 0.511283
vertex 12.000000 4.473950 0.512279
endloop
endfacet
facet normal 1.000000 0.000000 0.000000
outer loop
vertex 12.000000 4.480420 0.808717
vertex 12.000000 4.486930 0.809429
vertex 12.000000 6.000000 1.320000
endloop
endfacet
facet normal 1.000000 0.000000 0.000000
outer loop
vertex 12.000000 4.486930 0.809429
vertex 12.000000 4.493460 0.809857
vertex 12.000000 6.000000 1.320000
endloop
endfacet
facet normal 1.000000 -0.000153 0.000000
outer loop
vertex 12.000000 6.000000 1.320000
vertex 12.000000 4.493460 0.809857
vertex 12.000000 4.500000 0.810000
endloop
endfacet
facet normal -1.000000 0.000000 0.000000
outer loop
vertex 0.000000 0.930738 0.793052
vertex 0.000000 0.925000 0.789904
vertex 0.000000 0.000000 1.320000
endloop
endfacet
facet normal -1.000000 0.000000 0.000000
outer loop
vertex 0.000000 0.856942 0.614894
vertex 0.000000 0.859046 0.608697
vertex 0.000000 0.000000 0.000000
endloop
endfacet
facet normal -1.000000 0.000000 0.000000
outer loop
vertex 0.000000 0.859046 0.608697
vertex 0.000000 0.861418 0.602597
vertex 0.000000 0.000000 0.000000
endloop
endfacet
facet normal -1.000000 0.000000 0.000000
outer loop
vertex 0.000000 0.000000 0.000000
vertex 0.000000 0.861418 0.602597
vertex 0.000000 0.864054 0.596607
endloop
endfacet
facet normal -1.000000 0.000000 0.000000
outer loop
vertex 0.000000 0.908686 0.779003
vertex 0.000000 0.903582 0.774907
vertex 0.000000 0.000000 1.320000
endloop
endfacet
facet normal -1.000000 0.000000 0.000000
outer loop
vertex 0.000000 0.903582 0.774907
vertex 0.000000 0.898661 0.770592
vertex 0.000000 0.000000 1.320000
endloop
endfacet
facet normal -1.000000 0.000000 0.000000
outer loop
vertex 0.000000 0.000000 1.320000
vertex 0.000000 0.898661 0.770592
vertex 0.000000 0.893934 0.766066
endloop
endfacet
facet normal -1.000000 0.000000 0.000000
outer loop
vertex 0.000000 0.870096 0.735000
vertex 0.000000 0.866948 0.729262
vertex 0.000000 0.000000 1.320000
endloop
endfacet
facet normal -1.000000 0.000000 0.000000
outer loop
vertex 0.000000 0.866948 0.729262
vertex 0.000000 0.864054 0.723393
vertex 0.000000 0.000000 1.320000
endloop
endfacet
facet normal -1.000000 0.000000 0.000000
outer loop
vertex 0.000000 0.000000 1.320000
vertex 0.000000 0.864054 0.723393
vertex 0.000000 0.861418 0.717403
endloop
endfacet
facet normal -1.000000 0.000000 0.000000
outer loop
vertex 0.000000 0.880997 0.568686
vertex 0.000000 0.000000 0.000000
vertex 0.000000 0.877127 0.573964
endloop
endfacet
facet normal -1.000000 0.000000 0.000000
outer loop
vertex 0.000000 0.000000 0.000000
vertex 0.000000 0.873491 0.579405
vertex 0.000000 0.877127 0.573964
endloop
endfacet
facet normal -1.000000 0.000000 0.000000
outer loop
vertex 0.000000 0.880997 0.568686
vertex 0.000000 0.885093 0.563582
vertex 0.000000 0.000000 0.000000
endloop
endfacet
facet normal -1.000000 0.000000 0.000000
outer loop
vertex 0.000000 0.885093 0.563582
vertex 0.000000 0.889408 0.558661
vertex 0.000000 0.000000 0.000000
endloop
endfacet
facet normal -1.000000 0.000000 0.000000
outer loop
vertex 0.000000 0.000000 0.000000
vertex 0.000000 0.889408 0.558661
vertex 0.000000 0.893934 0.553934
endloop
endfacet
facet normal -1.000000 0.000000 0.000000
outer loop
vertex 0.000000 0.919405 0.533491
vertex 0.000000 0.000000 0.000000
vertex 0.000000 0.913964 0.537127
endloop
endfacet
facet normal -1.000000 0.000000 0.000000
outer loop
vertex 0.000000 0.000000 0.000000
vertex 0.000000 0.908686 0.540997
vertex 0.000000 0.913964 0.537127
endloop
endfacet
facet normal -1.000000 0.000000 0.000000
outer loop
vertex 0.000000 0.919405 0.533491
vertex 0.000000 0.925000 0.530096
vertex 0.000000 0.000000 0.000000
endloop
endfacet
facet normal -1.000000 0.000000 0.000000
outer loop
vertex 0.000000 0.925000 0.530096
vertex 0.000000 0.930738 0.526948
vertex 0.000000 0.000000 0.000000
endloop
endfacet
facet normal -1.000000 0.000000 0.000000
outer loop
vertex 0.000000 0.000000 0.000000
vertex 0.000000 0.930738 0.526948
vertex 0.000000 0.936607 0.524054
endloop
endfacet
facet normal -1.000000 -0.000000 0.000000
outer loop
vertex 0.000000 1.150000 0.660000
vertex -0.000000 6.000000 1.320000
vertex 0.000000 1.149860 0.653457
endloop
endfacet
facet normal -1.000000 -0.000000 0.000000
outer loop
vertex -0.000000 6.000000 1.320000
vertex -0.000000 6.000000 0.000000
vertex 0.000000 1.149860 0.653457
endloop
endfacet
facet normal -1.000000 -0.000000 0.000000
outer loop
vertex 0.000000 1.149860 0.653457
vertex -0.000000 6.000000 0.000000
vertex 0.000000 1.149430 0.646927
endloop
endfacet
facet normal -1.000000 0.000000 0.000000
outer loop
vertex 0.000000 0.925000 0.789904
vertex 0.000000 0.919405 0.786509
vertex 0.000000 0.000000 1.320000
endloop
endfacet
facet normal -1.000000 0.000000 0.000000
outer loop
vertex 0.000000 0.919405 0.786509
vertex 0.000000 0.913964 0.782873
vertex 0.000000 0.000000 1.320000
endloop
endfacet
facet normal -1.000000 0.000000 0.000000
outer loop
vertex 0.000000 0.000000 1.320000
vertex 0.000000 0.913964 0.782873
vertex 0.000000 0.908686 0.779003
endloop
endfacet
facet normal -1.000000 0.000000 0.000000
outer loop
vertex 0.000000 0.893934 0.766066
vertex 0.000000 0.889408 0.761339
vertex 0.000000 0.000000 1.320000
endloop
endfacet
facet normal -1.000000 0.000000 0.000000
outer loop
vertex 0.000000 0.889408 0.761339
vertex 0.000000 0.885093 0.756418
vertex 0.000000 0.000000 1.320000
endloop
endfacet
facet normal -1.000000 0.000000 0.000000
outer loop
vertex 0.000000 0.000000 1.320000
vertex 0.000000 0.885093 0.756418
vertex 0.000000 0.880997 0.751314
endloop
endfacet
facet normal -1.000000 0.000000 0.000000
outer loop
vertex 0.000000 0.880997 0.751314
vertex 0.000000 0.877127 0.746036
vertex 0.000000 0.000000 1.320000
endloop
endfacet
facet normal -1.000000 0.000000 0.000000
outer loop
vertex 0.000000 0.877127 0.746036
vertex 0.000000 0.873491 0.740595
vertex 0.000000 0.000000 1.320000
endloop
endfacet
facet normal -1.000000 0.000000 0.000000
outer loop
vertex 0.000000 0.000000 1.320000
vertex 0.000000 0.873491 0.740595
vertex 0.000000 0.870096 0.735000
endloop
endfacet
facet normal -1.000000 0.000000 0.000000
outer loop
vertex 0.000000 0.861418 0.717403
vertex 0.000000 0.859046 0.711303
vertex 0.000000 0.000000 1.320000
endloop
endfacet
facet normal -1.000000 0.000000 0.000000
outer loop
vertex 0.000000 0.859046 0.711303
vertex 0.000000 0.856942 0.705106
vertex 0.000000 0.000000 1.320000
endloop
endfacet
facet normal -1.000000 0.000000 0.000000
outer loop
vertex 0.000000 0.000000 1.320000
vertex 0.000000 0.856942 0.705106
vertex 0.000000 0.855111 0.698823
endloop
endfacet
facet normal -1.000000 0.000000 0.000000
outer loop
vertex 0.000000 0.850143 0.653457
vertex 0.000000 0.850571 0.646927
vertex 0.000000 0.000000 0.000000
endloop
endfacet
facet normal -1.000000 0.000000 0.000000
outer loop
vertex 0.000000 0.850571 0.646927
vertex 0.000000 0.851283 0.640421
vertex 0.000000 0.000000 0.000000
endloop
endfacet
facet normal -1.000000 0.000000 0.000000
outer loop
vertex 0.000000 0.000000 0.000000
vertex 0.000000 0.851283 0.640421
vertex 0.000000 0.852279 0.633953
endloop
endfacet
facet normal -1.000000 0.000000 0.000000
outer loop
vertex 0.000000 0.864054 0.596607
vertex 0.000000 0.866948 0.590738
vertex 0.000000 0.000000 0.000000
endloop
endfacet
facet normal -1.000000 0.000000 0.000000
outer loop
vertex 0.000000 0.866948 0.590738
vertex 0.000000 0.870096 0.585000
vertex 0.000000 0.000000 0.000000
endloop
endfacet
facet normal -1.000000 0.000000 0.000000
outer loop
vertex 0.000000 0.000000 0.000000
vertex 0.000000 0.870096 0.585000
vertex 0.000000 0.873491 0.579405
endloop
endfacet
facet normal -1.000000 0.000000 0.000000
outer loop
vertex 0.000000 0.893934 0.553934
vertex 0.000000 0.898661 0.549408
vertex 0.000000 0.000000 0.000000
endloop
endfacet
facet normal -1.000000 0.000000 0.000000
outer loop
vertex 0.000000 0.898661 0.549408
vertex 0.000000 0.903582 0.545093
vertex 0.000000 0.000000 0.000000
endloop
endfacet
facet normal -1.000000 0.000000 0.000000
outer loop
vertex 0.000000 0.000000 0.000000
vertex 0.000000 0.903582 0.545093
vertex 0.000000 0.908686 0.540997
endloop
endfacet
facet normal -1.000000 0.000000 0.000000
outer loop
vertex 0.000000 1.013070 0.809429
vertex 0.000000 1.006540 0.809857
vertex 0.000000 0.000000 1.320000
endloop
endfacet
facet normal -1.000000 0.000000 0.000000
outer loop
vertex 0.000000 1.006540 0.809857
vertex 0.000000 1.000000 0.810000
vertex 0.000000 0.000000 1.320000
endloop
endfacet
facet normal -1.000000 0.000000 0.000000
outer loop
vertex 0.000000 1.000000 0.810000
vertex 0.000000 0.993457 0.809857
vertex 0.000000 0.000000 1.320000
endloop
endfacet
facet normal -1.000000 0.000000 0.000000
outer loop
vertex 0.000000 0.000000 1.320000
vertex 0.000000 0.993457 0.809857
vertex 0.000000 0.986927 0.809429
endloop
endfacet
facet normal -1.000000 0.000000 0.000000
outer loop
vertex 0.000000 0.851283 0.679579
vertex 0.000000 0.850571 0.673073
vertex 0.000000 0.000000 1.320000
endloop
endfacet
facet normal -1.000000 0.000000 0.000000
outer loop
vertex 0.000000 0.850571 0.673073
vertex 0.000000 0.850143 0.666543
vertex 0.000000 0.000000 1.320000
endloop
endfacet
facet normal -1.000000 0.000000 0.000000
outer loop
vertex 0.000000 0.000000 1.320000
vertex 0.000000 0.850143 0.666543
vertex 0.000000 0.000000 0.000000
endloop
endfacet
facet normal -1.000000 0.000000 0.000000
outer loop
vertex 0.000000 0.850143 0.666543
vertex 0.000000 0.850000 0.660000
vertex 0.000000 0.000000 0.000000
endloop
endfacet
facet normal -1.000000 0.000000 0.000000
outer loop
vertex 0.000000 0.000000 0.000000
vertex 0.000000 0.850000 0.660000
vertex 0.000000 0.850143 0.653457
endloop
endfacet
facet normal -1.000000 0.000000 0.000000
outer loop
vertex 0.000000 0.852279 0.633953
vertex 0.000000 0.853556 0.627534
vertex 0.000000 0.000000 0.000000
endloop
endfacet
facet normal -1.000000 0.000000 0.000000
outer loop
vertex 0.000000 0.853556 0.627534
vertex 0.000000 0.855111 0.621177
vertex 0.000000 0.000000 0.000000
endloop
endfacet
facet normal -1.000000 0.000000 0.000000
outer loop
vertex 0.000000 0.000000 0.000000
vertex 0.000000 0.855111 0.621177
vertex 0.000000 0.856942 0.614894
endloop
endfacet
facet normal -1.000000 0.000000 0.000000
outer loop
vertex 0.000000 0.973953 0.512279
vertex 0.000000 0.980421 0.511283
vertex 0.000000 0.000000 0.000000
endloop
endfacet
facet normal -1.000000 -0.000000 0.000000
outer loop
vertex 0.000000 1.122870 0.573964
vertex 0.000000 1.126510 0.579405
vertex -0.000000 6.000000 0.000000
endloop
endfacet
facet normal -1.000000 -0.000000 0.000000
outer loop
vertex 0.000000 1.126510 0.579405
vertex 0.000000 1.129900 0.585000
vertex -0.000000 6.000000 0.000000
endloop
endfacet
facet normal -1.000000 -0.000000 0.000000
outer loop
vertex -0.000000 6.000000 0.000000
vertex 0.000000 1.129900 0.585000
vertex 0.000000 1.133050 0.590738
endloop
endfacet
facet normal -1.000000 -0.000000 0.000000
outer loop
vertex 0.000000 1.133050 0.590738
vertex 0.000000 1.135950 0.596607
vertex -0.000000 6.000000 0.000000
endloop
endfacet
facet normal -1.000000 -0.000000 0.000000
outer loop
vertex 0.000000 1.135950 0.596607
vertex 0.000000 1.138580 0.602597
vertex -0.000000 6.000000 0.000000
endloop
endfacet
facet normal -1.000000 -0.000000 0.000000
outer loop
vertex -0.000000 6.000000 0.000000
vertex 0.000000 1.138580 0.602597
vertex 0.000000 1.140950 0.608697
endloop
endfacet
facet normal -1.000000 -0.000000 0.000000
outer loop
vertex 0.000000 1.140950 0.608697
vertex 0.000000 1.143060 0.614894
vertex -0.000000 6.000000 0.000000
endloop
endfacet
facet normal -1.000000 -0.000000 0.000000
outer loop
vertex 0.000000 1.143060 0.614894
vertex 0.000000 1.144890 0.621177
vertex -0.000000 6.000000 0.000000
endloop
endfacet
facet normal -1.000000 -0.000000 0.000000
outer loop
vertex -0.000000 6.000000 0.000000
vertex 0.000000 1.144890 0.621177
vertex 0.000000 1.146440 0.627534
endloop
endfacet
facet normal -1.000000 -0.000000 -0.000000
outer loop
vertex 0.000000 1.150000 0.660000
vertex 0.000000 1.149860 0.666543
vertex -0.000000 6.000000 1.320000
endloop
endfacet
facet normal -1.000000 -0.000000 -0.000000
outer loop
vertex 0.000000 1.149860 0.666543
vertex 0.000000 1.149430 0.673073
vertex -0.000000 6.000000 1.320000
endloop
endfacet
facet normal -1.000000 -0.000000 -0.000000
outer loop
vertex -0.000000 6.000000 1.320000
vertex 0.000000 1.149430 0.673073
vertex 0.000000 1.148720 0.679579
endloop
endfacet
facet normal -1.000000 -0.000000 -0.000000
outer loop
vertex 0.000000 1.148720 0.679579
vertex 0.000000 1.147720 0.686047
vertex -0.000000 6.000000 1.320000
endloop
endfacet
facet normal -1.000000 -0.000000 -0.000000
outer loop
vertex 0.000000 1.147720 0.686047
vertex 0.000000 1.146440 0.692466
vertex -0.000000 6.000000 1.320000
endloop
endfacet
facet normal -1.000000 -0.000000 -0.000000
outer loop
vertex -0.000000 6.000000 1.320000
vertex 0.000000 1.146440 0.692466
vertex 0.000000 1.144890 0.698823
endloop
endfacet
facet normal -1.000000 0.000000 0.000000
outer loop
vertex 0.000000 0.855111 0.698823
vertex 0.000000 0.853556 0.692466
vertex 0.000000 0.000000 1.320000
endloop
endfacet
facet normal -1.000000 0.000000 0.000000
outer loop
vertex 0.000000 0.853556 0.692466
vertex 0.000000 0.852279 0.686047
vertex 0.000000 0.000000 1.320000
endloop
endfacet
facet normal -1.000000 0.000000 0.000000
outer loop
vertex 0.000000 0.000000 1.320000
vertex 0.000000 0.852279 0.686047
vertex 0.000000 0.851283 0.679579
endloop
endfacet
facet normal -1.000000 -0.000000 0.000000
outer loop
vertex 0.000000 1.146440 0.627534
vertex 0.000000 1.147720 0.633953
vertex -0.000000 6.000000 0.000000
endloop
endfacet
facet normal -1.000000 -0.000000 0.000000
outer loop
vertex 0.000000 1.147720 0.633953
vertex 0.000000 1.148720 0.640421
vertex -0.000000 6.000000 0.000000
endloop
endfacet
facet normal -1.000000 -0.000000 0.000000
outer loop
vertex -0.000000 6.000000 0.000000
vertex 0.000000 1.148720 0.640421
vertex 0.000000 1.149430 0.646927
endloop
endfacet
facet normal -1.000000 0.000000 0.000000
outer loop
vertex 0.000000 0.000000 1.320000
vertex 0.000000 1.038820 0.804889
vertex 0.000000 1.032470 0.806444
endloop
endfacet
facet normal -1.000000 0.000000 0.000000
outer loop
vertex 0.000000 0.986927 0.809429
vertex 0.000000 0.980421 0.808717
vertex 0.000000 0.000000 1.320000
endloop
endfacet
facet normal -1.000000 0.000000 0.000000
outer loop
vertex 0.000000 0.980421 0.808717
vertex 0.000000 0.973953 0.807721
vertex 0.000000 0.000000 1.320000
endloop
endfacet
facet normal -1.000000 0.000000 0.000000
outer loop
vertex 0.000000 0.000000 1.320000
vertex 0.000000 0.973953 0.807721
vertex 0.000000 0.967534 0.806444
endloop
endfacet
facet normal -1.000000 0.000000 0.000000
outer loop
vertex 0.000000 0.967534 0.806444
vertex 0.000000 0.961177 0.804889
vertex 0.000000 0.000000 1.320000
endloop
endfacet
facet normal -1.000000 0.000000 0.000000
outer loop
vertex 0.000000 0.961177 0.804889
vertex 0.000000 0.954894 0.803058
vertex 0.000000 0.000000 1.320000
endloop
endfacet
facet normal -1.000000 0.000000 0.000000
outer loop
vertex 0.000000 0.000000 1.320000
vertex 0.000000 0.954894 0.803058
vertex 0.000000 0.948697 0.800954
endloop
endfacet
facet normal -1.000000 0.000000 0.000000
outer loop
vertex 0.000000 0.948697 0.800954
vertex 0.000000 0.942598 0.798582
vertex 0.000000 0.000000 1.320000
endloop
endfacet
facet normal -1.000000 0.000000 0.000000
outer loop
vertex 0.000000 0.942598 0.798582
vertex 0.000000 0.936607 0.795946
vertex 0.000000 0.000000 1.320000
endloop
endfacet
facet normal -1.000000 0.000000 0.000000
outer loop
vertex 0.000000 0.000000 1.320000
vertex 0.000000 0.936607 0.795946
vertex 0.000000 0.930738 0.793052
endloop
endfacet
facet normal -1.000000 -0.000000 0.000000
outer loop
vertex 0.000000 1.026050 0.512279
vertex 0.000000 1.032470 0.513556
vertex -0.000000 6.000000 0.000000
endloop
endfacet
facet normal -1.000000 -0.000000 0.000000
outer loop
vertex 0.000000 1.032470 0.513556
vertex 0.000000 1.038820 0.515111
vertex -0.000000 6.000000 0.000000
endloop
endfacet
facet normal -1.000000 -0.000000 -0.000000
outer loop
vertex 0.000000 1.144890 0.698823
vertex 0.000000 1.143060 0.705106
vertex -0.000000 6.000000 1.320000
endloop
endfacet
facet normal -1.000000 -0.000000 -0.000000
outer loop
vertex 0.000000 1.143060 0.705106
vertex 0.000000 1.140950 0.711303
vertex -0.000000 6.000000 1.320000
endloop
endfacet
facet normal -1.000000 -0.000000 -0.000000
outer loop
vertex -0.000000 6.000000 1.320000
vertex 0.000000 1.140950 0.711303
vertex 0.000000 1.138580 0.717403
endloop
endfacet
facet normal -1.000000 0.000000 0.000000
outer loop
vertex 0.000000 1.032470 0.806444
vertex 0.000000 1.026050 0.807721
vertex 0.000000 0.000000 1.320000
endloop
endfacet
facet normal -1.000000 0.000000 0.000000
outer loop
vertex 0.000000 1.026050 0.807721
vertex 0.000000 1.019580 0.808717
vertex 0.000000 0.000000 1.320000
endloop
endfacet
facet normal -1.000000 0.000000 0.000000
outer loop
vertex 0.000000 0.000000 1.320000
vertex 0.000000 1.019580 0.808717
vertex 0.000000 1.013070 0.809429
endloop
endfacet
facet normal -1.000000 0.000000 0.000000
outer loop
vertex 0.000000 0.936607 0.524054
vertex 0.000000 0.942598 0.521418
vertex 0.000000 0.000000 0.000000
endloop
endfacet
facet normal -1.000000 0.000000 0.000000
outer loop
vertex 0.000000 0.942598 0.521418
vertex 0.000000 0.948697 0.519046
vertex 0.000000 0.000000 0.000000
endloop
endfacet
facet normal -1.000000 0.000000 0.000000
outer loop
vertex 0.000000 0.000000 0.000000
vertex 0.000000 0.948697 0.519046
vertex 0.000000 0.954894 0.516942
endloop
endfacet
facet normal -1.000000 0.000000 0.000000
outer loop
vertex 0.000000 0.980421 0.511283
vertex 0.000000 0.986927 0.510571
vertex 0.000000 0.000000 0.000000
endloop
endfacet
facet normal -1.000000 0.000000 0.000000
outer loop
vertex 0.000000 0.986927 0.510571
vertex 0.000000 0.993457 0.510143
vertex 0.000000 0.000000 0.000000
endloop
endfacet
facet normal -1.000000 0.000000 0.000000
outer loop
vertex 0.000000 0.000000 0.000000
vertex 0.000000 0.993457 0.510143
vertex 0.000000 1.000000 0.510000
endloop
endfacet
facet normal -1.000000 -0.000000 0.000000
outer loop
vertex 0.000000 1.075000 0.530096
vertex 0.000000 1.080590 0.533491
vertex -0.000000 6.000000 0.000000
endloop
endfacet
facet normal -1.000000 -0.000000 0.000000
outer loop
vertex 0.000000 1.080590 0.533491
vertex 0.000000 1.086040 0.537127
vertex -0.000000 6.000000 0.000000
endloop
endfacet
facet normal -1.000000 -0.000000 0.000000
outer loop
vertex -0.000000 6.000000 0.000000
vertex 0.000000 1.086040 0.537127
vertex 0.000000 1.091310 0.540997
endloop
endfacet
facet normal -1.000000 -0.000000 0.000000
outer loop
vertex 0.000000 1.106070 0.553934
vertex 0.000000 1.110590 0.558661
vertex -0.000000 6.000000 0.000000
endloop
endfacet
facet normal -1.000000 -0.000000 0.000000
outer loop
vertex 0.000000 1.110590 0.558661
vertex 0.000000 1.114910 0.563582
vertex -0.000000 6.000000 0.000000
endloop
endfacet
facet normal -1.000000 -0.000000 0.000000
outer loop
vertex 0.000000 1.114910 0.563582
vertex 0.000000 1.119000 0.568686
vertex -0.000000 6.000000 0.000000
endloop
endfacet
facet normal -1.000000 -0.000000 0.000000
outer loop
vertex -0.000000 6.000000 0.000000
vertex 0.000000 1.119000 0.568686
vertex 0.000000 1.122870 0.573964
endloop
endfacet
facet normal -1.000000 -0.000000 -0.000000
outer loop
vertex 0.000000 1.138580 0.717403
vertex 0.000000 1.135950 0.723393
vertex -0.000000 6.000000 1.320000
endloop
endfacet
facet normal -1.000000 -0.000000 -0.000000
outer loop
vertex 0.000000 1.135950 0.723393
vertex 0.000000 1.133050 0.729262
vertex -0.000000 6.000000 1.320000
endloop
endfacet
facet normal -1.000000 -0.000000 -0.000000
outer loop
vertex -0.000000 6.000000 1.320000
vertex 0.000000 1.133050 0.729262
vertex 0.000000 1.129900 0.735000
endloop
endfacet
facet normal -1.000000 -0.000000 -0.000000
outer loop
vertex 0.000000 1.063390 0.795946
vertex 0.000000 1.057400 0.798582
vertex -0.000000 6.000000 1.320000
endloop
endfacet
facet normal -1.000000 -0.000000 -0.000000
outer loop
vertex 0.000000 1.057400 0.798582
vertex 0.000000 1.051300 0.800954
vertex -0.000000 6.000000 1.320000
endloop
endfacet
facet normal -1.000000 -0.000000 -0.000000
outer loop
vertex -0.000000 6.000000 1.320000
vertex 0.000000 1.051300 0.800954
vertex 0.000000 0.000000 1.320000
endloop
endfacet
facet normal -1.000000 0.000000 0.000000
outer loop
vertex 0.000000 1.051300 0.800954
vertex 0.000000 1.045110 0.803058
vertex 0.000000 0.000000 1.320000
endloop
endfacet
facet normal -1.000000 0.000000 0.000000
outer loop
vertex 0.000000 0.000000 1.320000
vertex 0.000000 1.045110 0.803058
vertex 0.000000 1.038820 0.804889
endloop
endfacet
facet normal -1.000000 0.000000 0.000000
outer loop
vertex 0.000000 0.954894 0.516942
vertex 0.000000 0.961177 0.515111
vertex 0.000000 0.000000 0.000000
endloop
endfacet
facet normal -1.000000 0.000000 0.000000
outer loop
vertex 0.000000 0.961177 0.515111
vertex 0.000000 0.967534 0.513556
vertex 0.000000 0.000000 0.000000
endloop
endfacet
facet normal -1.000000 0.000000 0.000000
outer loop
vertex 0.000000 0.000000 0.000000
vertex 0.000000 0.967534 0.513556
vertex 0.000000 0.973953 0.512279
endloop
endfacet
facet normal -1.000000 0.000000 0.000000
outer loop
vertex 0.000000 1.000000 0.510000
vertex 0.000000 1.006540 0.510143
vertex 0.000000 0.000000 0.000000
endloop
endfacet
facet normal -1.000000 0.000000 0.000000
outer loop
vertex 0.000000 1.006540 0.510143
vertex 0.000000 1.013070 0.510571
vertex 0.000000 0.000000 0.000000
endloop
endfacet
facet normal -1.000000 -0.000000 0.000000
outer loop
vertex 0.000000 0.000000 0.000000
vertex 0.000000 1.013070 0.510571
vertex -0.000000 6.000000 0.000000
endloop
endfacet
facet normal -1.000000 -0.000000 0.000000
outer loop
vertex 0.000000 1.013070 0.510571
vertex 0.000000 1.019580 0.511283
vertex -0.000000 6.000000 0.000000
endloop
endfacet
facet normal -1.000000 -0.000000 0.000000
outer loop
vertex -0.000000 6.000000 0.000000
vertex 0.000000 1.019580 0.511283
vertex 0.000000 1.026050 0.512279
endloop
endfacet
facet normal -1.000000 -0.000000 0.000000
outer loop
vertex 0.000000 1.038820 0.515111
vertex 0.000000 1.045110 0.516942
vertex -0.000000 6.000000 0.000000
endloop
endfacet
facet normal -1.000000 -0.000000 0.000000
outer loop
vertex 0.000000 1.045110 0.516942
vertex 0.000000 1.051300 0.519046
vertex -0.000000 6.000000 0.000000
endloop
endfacet
facet normal -1.000000 -0.000000 0.000000
outer loop
vertex -0.000000 6.000000 0.000000
vertex 0.000000 1.051300 0.519046
vertex 0.000000 1.057400 0.521418
endloop
endfacet
facet normal -1.000000 -0.000000 -0.000000
outer loop
vertex 0.000000 1.080590 0.786509
vertex -0.000000 6.000000 1.320000
vertex 0.000000 1.086040 0.782873
endloop
endfacet
facet normal -1.000000 -0.000000 -0.000000
outer loop
vertex -0.000000 6.000000 1.320000
vertex 0.000000 1.091310 0.779003
vertex 0.000000 1.086040 0.782873
endloop
endfacet
facet normal -1.000000 -0.000000 -0.000000
outer loop
vertex 0.000000 1.080590 0.786509
vertex 0.000000 1.075000 0.789904
vertex -0.000000 6.000000 1.320000
endloop
endfacet
facet normal -1.000000 -0.000000 -0.000000
outer loop
vertex 0.000000 1.075000 0.789904
vertex 0.000000 1.069260 0.793052
vertex -0.000000 6.000000 1.320000
endloop
endfacet
facet normal -1.000000 -0.000000 -0.000000
outer loop
vertex -0.000000 6.000000 1.320000
vertex 0.000000 1.069260 0.793052
vertex 0.000000 1.063390 0.795946
endloop
endfacet
facet normal -1.000000 -0.000000 0.000000
outer loop
vertex 0.000000 1.057400 0.521418
vertex 0.000000 1.063390 0.524054
vertex -0.000000 6.000000 0.000000
endloop
endfacet
facet normal -1.000000 -0.000000 0.000000
outer loop
vertex 0.000000 1.063390 0.524054
vertex 0.000000 1.069260 0.526948
vertex -0.000000 6.000000 0.000000
endloop
endfacet
facet normal -1.000000 -0.000000 0.000000
outer loop
vertex -0.000000 6.000000 0.000000
vertex 0.000000 1.069260 0.526948
vertex 0.000000 1.075000 0.530096
endloop
endfacet
facet normal -1.000000 -0.000000 0.000000
outer loop
vertex 0.000000 1.091310 0.540997
vertex 0.000000 1.096420 0.545093
vertex -0.000000 6.000000 0.000000
endloop
endfacet
facet normal -1.000000 -0.000000 0.000000
outer loop
vertex 0.000000 1.096420 0.545093
vertex 0.000000 1.101340 0.549408
vertex -0.000000 6.000000 0.000000
endloop
endfacet
facet normal -1.000000 -0.000000 0.000000
outer loop
vertex -0.000000 6.000000 0.000000
vertex 0.000000 1.101340 0.549408
vertex 0.000000 1.106070 0.553934
endloop
endfacet
facet normal -1.000000 -0.000000 -0.000000
outer loop
vertex 0.000000 1.129900 0.735000
vertex 0.000000 1.126510 0.740595
vertex -0.000000 6.000000 1.320000
endloop
endfacet
facet normal -1.000000 -0.000000 -0.000000
outer loop
vertex 0.000000 1.126510 0.740595
vertex 0.000000 1.122870 0.746036
vertex -0.000000 6.000000 1.320000
endloop
endfacet
facet normal -1.000000 -0.000000 -0.000000
outer loop
vertex -0.000000 6.000000 1.320000
vertex 0.000000 1.122870 0.746036
vertex 0.000000 1.119000 0.751314
endloop
endfacet
facet normal -1.000000 -0.000000 -0.000000
outer loop
vertex 0.000000 1.119000 0.751314
vertex 0.000000 1.114910 0.756418
vertex -0.000000 6.000000 1.320000
endloop
endfacet
facet normal -1.000000 -0.000000 -0.000000
outer loop
vertex 0.000000 1.114910 0.756418
vertex 0.000000 1.110590 0.761339
vertex -0.000000 6.000000 1.320000
endloop
endfacet
facet normal -1.000000 -0.000000 -0.000000
outer loop
vertex -0.000000 6.000000 1.320000
vertex 0.000000 1.110590 0.761339
vertex 0.000000 1.106070 0.766066
endloop
endfacet
facet normal -1.000000 -0.000000 -0.000000
outer loop
vertex 0.000000 1.106070 0.766066
vertex 0.000000 1.101340 0.770592
vertex -0.000000 6.000000 1.320000
endloop
endfacet
facet normal -1.000000 -0.000000 -0.000000
outer loop
vertex 0.000000 1.101340 0.770592
vertex 0.000000 1.096420 0.774907
vertex -0.000000 6.000000 1.320000
endloop
endfacet
facet normal -1.000000 -0.000000 -0.000000
outer loop
vertex -0.000000 6.000000 1.320000
vertex 0.000000 1.096420 0.774907
vertex 0.000000 1.091310 0.779003
endloop
endfacet
facet normal 0.000000 1.000000 0.000000
outer loop
vertex -0.000000 6.000000 1.320000
vertex 12.000000 6.000000 1.320000
vertex -0.000000 6.000000 0.000000
endloop
endfacet
facet normal 0.000000 1.000000 0.000000
outer loop
vertex 12.000000 6.000000 1.320000
vertex 12.000000 6.000000 0.000000
vertex -0.000000 6.000000 0.000000
endloop
endfacet
endsolid wall
